<svg width="1655" height="999" xmlns="http://www.w3.org/2000/svg" xmlns:xlink="http://www.w3.org/1999/xlink" xml:space="preserve" overflow="hidden"><defs><filter id="fx0" x="-10%" y="-10%" width="120%" height="120%" filterUnits="userSpaceOnUse" primitiveUnits="userSpaceOnUse"><feComponentTransfer color-interpolation-filters="sRGB"><feFuncR type="discrete" tableValues="0.85098 0.85098"/><feFuncG type="discrete" tableValues="0.85098 0.85098"/><feFuncB type="discrete" tableValues="0.85098 0.85098"/><feFuncA type="linear" slope="1" intercept="0"/></feComponentTransfer><feGaussianBlur stdDeviation="6.11111 6.11111"/></filter><filter id="fx1" x="-10%" y="-10%" width="120%" height="120%" filterUnits="userSpaceOnUse" primitiveUnits="userSpaceOnUse"><feComponentTransfer color-interpolation-filters="sRGB"><feFuncR type="discrete" tableValues="0.85098 0.85098"/><feFuncG type="discrete" tableValues="0.85098 0.85098"/><feFuncB type="discrete" tableValues="0.85098 0.85098"/><feFuncA type="linear" slope="1" intercept="0"/></feComponentTransfer><feGaussianBlur stdDeviation="6.11111 6.11111"/></filter><filter id="fx2" x="-10%" y="-10%" width="120%" height="120%" filterUnits="userSpaceOnUse" primitiveUnits="userSpaceOnUse"><feComponentTransfer color-interpolation-filters="sRGB"><feFuncR type="discrete" tableValues="0.85098 0.85098"/><feFuncG type="discrete" tableValues="0.85098 0.85098"/><feFuncB type="discrete" tableValues="0.85098 0.85098"/><feFuncA type="linear" slope="1" intercept="0"/></feComponentTransfer><feGaussianBlur stdDeviation="6.11111 6.11111"/></filter><filter id="fx3" x="-10%" y="-10%" width="120%" height="120%" filterUnits="userSpaceOnUse" primitiveUnits="userSpaceOnUse"><feComponentTransfer color-interpolation-filters="sRGB"><feFuncR type="discrete" tableValues="0.85098 0.85098"/><feFuncG type="discrete" tableValues="0.85098 0.85098"/><feFuncB type="discrete" tableValues="0.85098 0.85098"/><feFuncA type="linear" slope="1" intercept="0"/></feComponentTransfer><feGaussianBlur stdDeviation="6.11111 6.11111"/></filter><filter id="fx4" x="-10%" y="-10%" width="120%" height="120%" filterUnits="userSpaceOnUse" primitiveUnits="userSpaceOnUse"><feComponentTransfer color-interpolation-filters="sRGB"><feFuncR type="discrete" tableValues="0.85098 0.85098"/><feFuncG type="discrete" tableValues="0.85098 0.85098"/><feFuncB type="discrete" tableValues="0.85098 0.85098"/><feFuncA type="linear" slope="1" intercept="0"/></feComponentTransfer><feGaussianBlur stdDeviation="6.11111 6.11111"/></filter><filter id="fx5" x="-10%" y="-10%" width="120%" height="120%" filterUnits="userSpaceOnUse" primitiveUnits="userSpaceOnUse"><feComponentTransfer color-interpolation-filters="sRGB"><feFuncR type="discrete" tableValues="0.85098 0.85098"/><feFuncG type="discrete" tableValues="0.85098 0.85098"/><feFuncB type="discrete" tableValues="0.85098 0.85098"/><feFuncA type="linear" slope="1" intercept="0"/></feComponentTransfer><feGaussianBlur stdDeviation="6.11111 6.11111"/></filter><filter id="fx6" x="-10%" y="-10%" width="120%" height="120%" filterUnits="userSpaceOnUse" primitiveUnits="userSpaceOnUse"><feComponentTransfer color-interpolation-filters="sRGB"><feFuncR type="discrete" tableValues="0.85098 0.85098"/><feFuncG type="discrete" tableValues="0.85098 0.85098"/><feFuncB type="discrete" tableValues="0.85098 0.85098"/><feFuncA type="linear" slope="1" intercept="0"/></feComponentTransfer><feGaussianBlur stdDeviation="6.11111 6.11111"/></filter><filter id="fx7" x="-10%" y="-10%" width="120%" height="120%" filterUnits="userSpaceOnUse" primitiveUnits="userSpaceOnUse"><feComponentTransfer color-interpolation-filters="sRGB"><feFuncR type="discrete" tableValues="0.85098 0.85098"/><feFuncG type="discrete" tableValues="0.85098 0.85098"/><feFuncB type="discrete" tableValues="0.85098 0.85098"/><feFuncA type="linear" slope="1" intercept="0"/></feComponentTransfer><feGaussianBlur stdDeviation="6.11111 6.11111"/></filter><filter id="fx8" x="-10%" y="-10%" width="120%" height="120%" filterUnits="userSpaceOnUse" primitiveUnits="userSpaceOnUse"><feComponentTransfer color-interpolation-filters="sRGB"><feFuncR type="discrete" tableValues="0.85098 0.85098"/><feFuncG type="discrete" tableValues="0.85098 0.85098"/><feFuncB type="discrete" tableValues="0.85098 0.85098"/><feFuncA type="linear" slope="1" intercept="0"/></feComponentTransfer><feGaussianBlur stdDeviation="6.11111 6.11111"/></filter><filter id="fx9" x="-10%" y="-10%" width="120%" height="120%" filterUnits="userSpaceOnUse" primitiveUnits="userSpaceOnUse"><feComponentTransfer color-interpolation-filters="sRGB"><feFuncR type="discrete" tableValues="0.85098 0.85098"/><feFuncG type="discrete" tableValues="0.85098 0.85098"/><feFuncB type="discrete" tableValues="0.85098 0.85098"/><feFuncA type="linear" slope="1" intercept="0"/></feComponentTransfer><feGaussianBlur stdDeviation="6.11111 6.11111"/></filter><filter id="fx10" x="-10%" y="-10%" width="120%" height="120%" filterUnits="userSpaceOnUse" primitiveUnits="userSpaceOnUse"><feComponentTransfer color-interpolation-filters="sRGB"><feFuncR type="discrete" tableValues="0.85098 0.85098"/><feFuncG type="discrete" tableValues="0.85098 0.85098"/><feFuncB type="discrete" tableValues="0.85098 0.85098"/><feFuncA type="linear" slope="1" intercept="0"/></feComponentTransfer><feGaussianBlur stdDeviation="6.11111 6.11111"/></filter><filter id="fx11" x="-10%" y="-10%" width="120%" height="120%" filterUnits="userSpaceOnUse" primitiveUnits="userSpaceOnUse"><feComponentTransfer color-interpolation-filters="sRGB"><feFuncR type="discrete" tableValues="0.85098 0.85098"/><feFuncG type="discrete" tableValues="0.85098 0.85098"/><feFuncB type="discrete" tableValues="0.85098 0.85098"/><feFuncA type="linear" slope="1" intercept="0"/></feComponentTransfer><feGaussianBlur stdDeviation="6.11111 6.11111"/></filter><filter id="fx12" x="-10%" y="-10%" width="120%" height="120%" filterUnits="userSpaceOnUse" primitiveUnits="userSpaceOnUse"><feComponentTransfer color-interpolation-filters="sRGB"><feFuncR type="discrete" tableValues="0.85098 0.85098"/><feFuncG type="discrete" tableValues="0.85098 0.85098"/><feFuncB type="discrete" tableValues="0.85098 0.85098"/><feFuncA type="linear" slope="1" intercept="0"/></feComponentTransfer><feGaussianBlur stdDeviation="6.11111 6.11111"/></filter><filter id="fx13" x="-10%" y="-10%" width="120%" height="120%" filterUnits="userSpaceOnUse" primitiveUnits="userSpaceOnUse"><feComponentTransfer color-interpolation-filters="sRGB"><feFuncR type="discrete" tableValues="0.85098 0.85098"/><feFuncG type="discrete" tableValues="0.85098 0.85098"/><feFuncB type="discrete" tableValues="0.85098 0.85098"/><feFuncA type="linear" slope="1" intercept="0"/></feComponentTransfer><feGaussianBlur stdDeviation="6.11111 6.11111"/></filter><filter id="fx14" x="-10%" y="-10%" width="120%" height="120%" filterUnits="userSpaceOnUse" primitiveUnits="userSpaceOnUse"><feComponentTransfer color-interpolation-filters="sRGB"><feFuncR type="discrete" tableValues="0.85098 0.85098"/><feFuncG type="discrete" tableValues="0.85098 0.85098"/><feFuncB type="discrete" tableValues="0.85098 0.85098"/><feFuncA type="linear" slope="1" intercept="0"/></feComponentTransfer><feGaussianBlur stdDeviation="6.11111 6.11111"/></filter><clipPath id="clip15"><rect x="95" y="1029" width="1655" height="999"/></clipPath><clipPath id="clip16"><rect x="94" y="1028" width="1655" height="1000"/></clipPath><clipPath id="clip17"><rect x="94" y="1028" width="1655" height="1000"/></clipPath><clipPath id="clip18"><rect x="94" y="1028" width="1655" height="1000"/></clipPath><clipPath id="clip19"><rect x="382" y="1183" width="1299" height="648"/></clipPath><clipPath id="clip20"><rect x="-3" y="-3" width="1322" height="441"/></clipPath><clipPath id="clip21"><rect x="0" y="0" width="1311" height="436"/></clipPath><clipPath id="clip22"><rect x="94" y="1028" width="1655" height="1000"/></clipPath><clipPath id="clip23"><rect x="-3" y="-3" width="73" height="73"/></clipPath><clipPath id="clip24"><rect x="0" y="0" width="65" height="66"/></clipPath><clipPath id="clip25"><rect x="-3" y="-3" width="73" height="73"/></clipPath><clipPath id="clip26"><rect x="0" y="0" width="65" height="66"/></clipPath><clipPath id="clip27"><rect x="-3" y="-3" width="73" height="73"/></clipPath><clipPath id="clip28"><rect x="0" y="0" width="65" height="66"/></clipPath><clipPath id="clip29"><rect x="-3" y="-3" width="73" height="73"/></clipPath><clipPath id="clip30"><rect x="0" y="0" width="65" height="66"/></clipPath><clipPath id="clip31"><rect x="-3" y="-3" width="73" height="73"/></clipPath><clipPath id="clip32"><rect x="0" y="0" width="65" height="66"/></clipPath><clipPath id="clip33"><rect x="-3" y="-3" width="73" height="73"/></clipPath><clipPath id="clip34"><rect x="0" y="0" width="65" height="66"/></clipPath><clipPath id="clip35"><rect x="-3" y="-3" width="73" height="73"/></clipPath><clipPath id="clip36"><rect x="0" y="0" width="65" height="66"/></clipPath><clipPath id="clip37"><rect x="-3" y="-3" width="73" height="73"/></clipPath><clipPath id="clip38"><rect x="0" y="0" width="65" height="66"/></clipPath><clipPath id="clip39"><rect x="-3" y="-3" width="73" height="73"/></clipPath><clipPath id="clip40"><rect x="0" y="0" width="65" height="66"/></clipPath><clipPath id="clip41"><rect x="-3" y="-3" width="73" height="73"/></clipPath><clipPath id="clip42"><rect x="0" y="0" width="65" height="66"/></clipPath><clipPath id="clip43"><rect x="-3" y="-3" width="73" height="73"/></clipPath><clipPath id="clip44"><rect x="0" y="0" width="65" height="66"/></clipPath><clipPath id="clip45"><rect x="-3" y="-3" width="73" height="73"/></clipPath><clipPath id="clip46"><rect x="0" y="0" width="65" height="66"/></clipPath><clipPath id="clip47"><rect x="-3" y="-3" width="73" height="73"/></clipPath><clipPath id="clip48"><rect x="0" y="0" width="65" height="66"/></clipPath><clipPath id="clip49"><rect x="-3" y="-3" width="73" height="73"/></clipPath><clipPath id="clip50"><rect x="0" y="0" width="65" height="66"/></clipPath><clipPath id="clip51"><rect x="382" y="1183" width="1299" height="648"/></clipPath><clipPath id="clip52"><rect x="94" y="1028" width="1655" height="1000"/></clipPath><clipPath id="clip53"><rect x="94" y="1028" width="1655" height="1000"/></clipPath><clipPath id="clip54"><rect x="94" y="1028" width="1655" height="1000"/></clipPath><clipPath id="clip55"><rect x="94" y="1028" width="1655" height="1000"/></clipPath><clipPath id="clip56"><rect x="94" y="1028" width="1655" height="1000"/></clipPath><clipPath id="clip57"><rect x="94" y="1028" width="1655" height="1000"/></clipPath><clipPath id="clip58"><rect x="94" y="1028" width="1655" height="1000"/></clipPath><clipPath id="clip59"><rect x="94" y="1028" width="1655" height="1000"/></clipPath><clipPath id="clip60"><rect x="94" y="1028" width="1655" height="1000"/></clipPath><clipPath id="clip61"><rect x="94" y="1028" width="1655" height="1000"/></clipPath><clipPath id="clip62"><rect x="94" y="1028" width="1655" height="1000"/></clipPath><clipPath id="clip63"><rect x="94" y="1028" width="1655" height="1000"/></clipPath><clipPath id="clip64"><rect x="94" y="1028" width="1655" height="1000"/></clipPath><clipPath id="clip65"><rect x="94" y="1028" width="1655" height="1000"/></clipPath><clipPath id="clip66"><rect x="94" y="1028" width="1655" height="1000"/></clipPath><clipPath id="clip67"><rect x="94" y="1028" width="1655" height="1000"/></clipPath><clipPath id="clip68"><rect x="94" y="1028" width="1655" height="1000"/></clipPath><clipPath id="clip69"><rect x="94" y="1028" width="1655" height="1000"/></clipPath><clipPath id="clip70"><rect x="94" y="1028" width="1655" height="1000"/></clipPath><clipPath id="clip71"><rect x="94" y="1028" width="1655" height="1000"/></clipPath><clipPath id="clip72"><rect x="94" y="1028" width="1655" height="1000"/></clipPath><clipPath id="clip73"><rect x="94" y="1028" width="1655" height="1000"/></clipPath><clipPath id="clip74"><rect x="94" y="1028" width="1655" height="1000"/></clipPath></defs><g clip-path="url(#clip15)" transform="translate(-95 -1029)"><rect x="94.9999" y="1029" width="1655" height="999" fill="#FFFFFF"/><g clip-path="url(#clip16)"><path d="M382.5 1756.56 1678.5 1756.56M382.5 1684.56 1678.5 1684.56M382.5 1613.55 1678.5 1613.55M382.5 1541.55 1678.5 1541.55M382.5 1470.55 1678.5 1470.55M382.5 1398.55 1678.5 1398.55M382.5 1326.54 1678.5 1326.54M382.5 1255.54 1678.5 1255.54M382.5 1183.5 1678.5 1183.5" stroke="#D9D9D9" stroke-width="3.4375" stroke-linejoin="round" stroke-miterlimit="10" fill="none"/></g><g clip-path="url(#clip17)"><path d="M0 0 0.000360892 644" stroke="#BFBFBF" stroke-width="3.4375" stroke-linejoin="round" stroke-miterlimit="10" fill="none" fill-rule="evenodd" transform="matrix(1 0 0 -1 382.5 1827.5)"/></g><g clip-path="url(#clip18)"><path d="M382.5 1827.5 1678.5 1827.5" stroke="#BFBFBF" stroke-width="3.4375" stroke-linejoin="round" stroke-miterlimit="10" fill="none" fill-rule="evenodd"/></g><g clip-path="url(#clip19)"><g clip-path="url(#clip20)" filter="url(#fx0)" transform="translate(389 1259)"><g clip-path="url(#clip21)"><path d="M25.5001 176.88 58.5149 312.885 90.5159 366.886 123.517 404.888 155.518 409.833 187.519 315.885 220.52 266.883 252.521 85.8771 317.523 44.8757 382.525 36.8755 511.53 31.8753 1029.55 25.8333 1159.55 38.8755 1289.5 37.8755" stroke="#4472C4" stroke-width="11" stroke-linecap="round" stroke-linejoin="round" stroke-miterlimit="10" fill="none"/></g></g></g><g clip-path="url(#clip22)"><g clip-path="url(#clip23)" filter="url(#fx1)" transform="translate(382 1403)"><g clip-path="url(#clip24)"><path d="M43.3272 32.8216C43.3272 38.8965 38.4025 43.8213 32.3276 43.8213 26.2526 43.8213 21.3279 38.8965 21.3279 32.8216 21.3279 26.7467 26.2526 21.822 32.3276 21.822 38.4025 21.822 43.3272 26.7467 43.3272 32.8216Z" stroke="#4472C4" stroke-width="3.4375" stroke-linejoin="round" stroke-miterlimit="10" fill="#4472C4"/></g></g><g clip-path="url(#clip25)" filter="url(#fx2)" transform="translate(415 1539)"><g clip-path="url(#clip26)"><path d="M43.3272 32.8214C43.3272 38.8963 38.4025 43.821 32.3276 43.821 26.2526 43.821 21.3279 38.8963 21.3279 32.8214 21.3279 26.7464 26.2526 21.8217 32.3276 21.8217 38.4025 21.8217 43.3272 26.7464 43.3272 32.8214Z" stroke="#4472C4" stroke-width="3.4375" stroke-linejoin="round" stroke-miterlimit="10" fill="#4472C4"/></g></g><g clip-path="url(#clip27)" filter="url(#fx3)" transform="translate(447 1593)"><g clip-path="url(#clip28)"><path d="M43.3272 32.8212C43.3272 38.8962 38.4025 43.8209 32.3275 43.8209 26.2526 43.8209 21.3279 38.8962 21.3279 32.8212 21.3279 26.7463 26.2526 21.8216 32.3275 21.8216 38.4025 21.8216 43.3272 26.7463 43.3272 32.8212Z" stroke="#4472C4" stroke-width="3.4375" stroke-linejoin="round" stroke-miterlimit="10" fill="#4472C4"/></g></g><g clip-path="url(#clip29)" filter="url(#fx4)" transform="translate(480 1631)"><g clip-path="url(#clip30)"><path d="M43.3272 32.8215C43.3272 38.8964 38.4025 43.8211 32.3275 43.8211 26.2526 43.8211 21.3279 38.8964 21.3279 32.8215 21.3279 26.7466 26.2526 21.8219 32.3275 21.8219 38.4025 21.8219 43.3272 26.7466 43.3272 32.8215Z" stroke="#4472C4" stroke-width="3.4375" stroke-linejoin="round" stroke-miterlimit="10" fill="#4472C4"/></g></g><g clip-path="url(#clip31)" filter="url(#fx5)" transform="translate(512 1636)"><g clip-path="url(#clip32)"><path d="M43.3271 32.8216C43.3271 38.8965 38.4024 43.8213 32.3275 43.8213 26.2525 43.8213 21.3278 38.8965 21.3278 32.8216 21.3278 26.7467 26.2525 21.822 32.3275 21.822 38.4024 21.822 43.3271 26.7467 43.3271 32.8216Z" stroke="#4472C4" stroke-width="3.4375" stroke-linejoin="round" stroke-miterlimit="10" fill="#4472C4"/></g></g><g clip-path="url(#clip33)" filter="url(#fx6)" transform="translate(544 1542)"><g clip-path="url(#clip34)"><path d="M43.3271 32.8214C43.3271 38.8963 38.4024 43.821 32.3275 43.821 26.2525 43.821 21.3278 38.8963 21.3278 32.8214 21.3278 26.7464 26.2525 21.8217 32.3275 21.8217 38.4024 21.8217 43.3271 26.7464 43.3271 32.8214Z" stroke="#4472C4" stroke-width="3.4375" stroke-linejoin="round" stroke-miterlimit="10" fill="#4472C4"/></g></g><g clip-path="url(#clip35)" filter="url(#fx7)" transform="translate(577 1493)"><g clip-path="url(#clip36)"><path d="M43.3271 32.8216C43.3271 38.8965 38.4024 43.8213 32.3275 43.8213 26.2525 43.8213 21.3278 38.8965 21.3278 32.8216 21.3278 26.7467 26.2525 21.822 32.3275 21.822 38.4024 21.822 43.3271 26.7467 43.3271 32.8216Z" stroke="#4472C4" stroke-width="3.4375" stroke-linejoin="round" stroke-miterlimit="10" fill="#4472C4"/></g></g><g clip-path="url(#clip37)" filter="url(#fx8)" transform="translate(609 1312)"><g clip-path="url(#clip38)"><path d="M43.327 32.8215C43.327 38.8964 38.4023 43.8211 32.3274 43.8211 26.2525 43.8211 21.3278 38.8964 21.3278 32.8215 21.3278 26.7466 26.2525 21.8219 32.3274 21.8219 38.4023 21.8219 43.327 26.7466 43.327 32.8215Z" stroke="#4472C4" stroke-width="3.4375" stroke-linejoin="round" stroke-miterlimit="10" fill="#4472C4"/></g></g><g clip-path="url(#clip39)" filter="url(#fx9)" transform="translate(674 1271)"><g clip-path="url(#clip40)"><path d="M43.327 32.8216C43.327 38.8965 38.4023 43.8213 32.3274 43.8213 26.2525 43.8213 21.3278 38.8965 21.3278 32.8216 21.3278 26.7467 26.2525 21.822 32.3274 21.822 38.4023 21.822 43.327 26.7467 43.327 32.8216Z" stroke="#4472C4" stroke-width="3.4375" stroke-linejoin="round" stroke-miterlimit="10" fill="#4472C4"/></g></g><g clip-path="url(#clip41)" filter="url(#fx10)" transform="translate(739 1263)"><g clip-path="url(#clip42)"><path d="M43.327 32.8212C43.327 38.8962 38.4023 43.8209 32.3274 43.8209 26.2524 43.8209 21.3277 38.8962 21.3277 32.8212 21.3277 26.7463 26.2524 21.8216 32.3274 21.8216 38.4023 21.8216 43.327 26.7463 43.327 32.8212Z" stroke="#4472C4" stroke-width="3.4375" stroke-linejoin="round" stroke-miterlimit="10" fill="#4472C4"/></g></g><g clip-path="url(#clip43)" filter="url(#fx11)" transform="translate(868 1258)"><g clip-path="url(#clip44)"><path d="M43.3272 32.8215C43.3272 38.8964 38.4025 43.8211 32.3276 43.8211 26.2527 43.8211 21.328 38.8964 21.328 32.8215 21.328 26.7466 26.2527 21.8219 32.3276 21.8219 38.4025 21.8219 43.3272 26.7466 43.3272 32.8215Z" stroke="#4472C4" stroke-width="3.4375" stroke-linejoin="round" stroke-miterlimit="10" fill="#4472C4"/></g></g><g clip-path="url(#clip45)" filter="url(#fx12)" transform="translate(1387 1252)"><g clip-path="url(#clip46)"><path d="M43.3274 32.8212C43.3274 38.8962 38.4026 43.8209 32.3277 43.8209 26.2528 43.8209 21.3281 38.8962 21.3281 32.8212 21.3281 26.7463 26.2528 21.8216 32.3277 21.8216 38.4026 21.8216 43.3274 26.7463 43.3274 32.8212Z" stroke="#4472C4" stroke-width="3.4375" stroke-linejoin="round" stroke-miterlimit="10" fill="#4472C4"/></g></g><g clip-path="url(#clip47)" filter="url(#fx13)" transform="translate(1516 1265)"><g clip-path="url(#clip48)"><path d="M43.3272 32.8214C43.3272 38.8963 38.4025 43.821 32.3276 43.821 26.2527 43.821 21.328 38.8963 21.328 32.8214 21.328 26.7464 26.2527 21.8217 32.3276 21.8217 38.4025 21.8217 43.3272 26.7464 43.3272 32.8214Z" stroke="#4472C4" stroke-width="3.4375" stroke-linejoin="round" stroke-miterlimit="10" fill="#4472C4"/></g></g><g clip-path="url(#clip49)" filter="url(#fx14)" transform="translate(1646 1264)"><g clip-path="url(#clip50)"><path d="M43.3271 32.8214C43.3271 38.8963 38.4024 43.821 32.3275 43.821 26.2525 43.821 21.3278 38.8963 21.3278 32.8214 21.3278 26.7464 26.2525 21.8217 32.3275 21.8217 38.4024 21.8217 43.3271 26.7464 43.3271 32.8214Z" stroke="#4472C4" stroke-width="3.4375" stroke-linejoin="round" stroke-miterlimit="10" fill="#4472C4"/></g></g></g><g clip-path="url(#clip51)"><path d="M414.5 1417.55 447.515 1553.55 479.516 1607.55 512.517 1645.55 544.518 1650.5 576.519 1556.55 609.52 1507.55 641.521 1326.54 706.523 1285.54 771.526 1277.54 900.53 1272.54 1418.55 1266.5 1548.55 1279.54 1678.5 1278.54" stroke="#4472C4" stroke-width="11.4583" stroke-linecap="round" stroke-linejoin="round" stroke-miterlimit="10" fill="none"/></g><g clip-path="url(#clip52)"><path d="M425.327 1417.49C425.327 1423.56 420.402 1428.49 414.328 1428.49 408.253 1428.49 403.328 1423.56 403.328 1417.49 403.328 1411.41 408.253 1406.49 414.328 1406.49 420.402 1406.49 425.327 1411.41 425.327 1417.49Z" stroke="#4472C4" stroke-width="3.4375" stroke-linejoin="round" stroke-miterlimit="10" fill="#4472C4"/><path d="M458.327 1553.49C458.327 1559.56 453.402 1564.49 447.328 1564.49 441.253 1564.49 436.328 1559.56 436.328 1553.49 436.328 1547.41 441.253 1542.49 447.328 1542.49 453.402 1542.49 458.327 1547.41 458.327 1553.49Z" stroke="#4472C4" stroke-width="3.4375" stroke-linejoin="round" stroke-miterlimit="10" fill="#4472C4"/><path d="M490.327 1607.49C490.327 1613.56 485.402 1618.49 479.328 1618.49 473.253 1618.49 468.328 1613.56 468.328 1607.49 468.328 1601.41 473.253 1596.49 479.328 1596.49 485.402 1596.49 490.327 1601.41 490.327 1607.49Z" stroke="#4472C4" stroke-width="3.4375" stroke-linejoin="round" stroke-miterlimit="10" fill="#4472C4"/><path d="M523.327 1645.49C523.327 1651.56 518.402 1656.49 512.328 1656.49 506.253 1656.49 501.328 1651.56 501.328 1645.49 501.328 1639.41 506.253 1634.49 512.328 1634.49 518.402 1634.49 523.327 1639.41 523.327 1645.49Z" stroke="#4472C4" stroke-width="3.4375" stroke-linejoin="round" stroke-miterlimit="10" fill="#4472C4"/><path d="M555.327 1650.49C555.327 1656.56 550.402 1661.49 544.327 1661.49 538.253 1661.49 533.328 1656.56 533.328 1650.49 533.328 1644.41 538.253 1639.49 544.327 1639.49 550.402 1639.49 555.327 1644.41 555.327 1650.49Z" stroke="#4472C4" stroke-width="3.4375" stroke-linejoin="round" stroke-miterlimit="10" fill="#4472C4"/><path d="M587.327 1556.49C587.327 1562.56 582.402 1567.49 576.327 1567.49 570.253 1567.49 565.328 1562.56 565.328 1556.49 565.328 1550.41 570.253 1545.49 576.327 1545.49 582.402 1545.49 587.327 1550.41 587.327 1556.49Z" stroke="#4472C4" stroke-width="3.4375" stroke-linejoin="round" stroke-miterlimit="10" fill="#4472C4"/><path d="M620.327 1507.49C620.327 1513.56 615.402 1518.49 609.327 1518.49 603.253 1518.49 598.328 1513.56 598.328 1507.49 598.328 1501.41 603.253 1496.49 609.327 1496.49 615.402 1496.49 620.327 1501.41 620.327 1507.49Z" stroke="#4472C4" stroke-width="3.4375" stroke-linejoin="round" stroke-miterlimit="10" fill="#4472C4"/><path d="M652.327 1326.49C652.327 1332.56 647.402 1337.49 641.327 1337.49 635.253 1337.49 630.328 1332.56 630.328 1326.49 630.328 1320.41 635.253 1315.49 641.327 1315.49 647.402 1315.49 652.327 1320.41 652.327 1326.49Z" stroke="#4472C4" stroke-width="3.4375" stroke-linejoin="round" stroke-miterlimit="10" fill="#4472C4"/><path d="M717.327 1285.49C717.327 1291.56 712.402 1296.49 706.327 1296.49 700.253 1296.49 695.328 1291.56 695.328 1285.49 695.328 1279.41 700.253 1274.49 706.327 1274.49 712.402 1274.49 717.327 1279.41 717.327 1285.49Z" stroke="#4472C4" stroke-width="3.4375" stroke-linejoin="round" stroke-miterlimit="10" fill="#4472C4"/><path d="M782.327 1277.49C782.327 1283.56 777.402 1288.49 771.327 1288.49 765.252 1288.49 760.328 1283.56 760.328 1277.49 760.328 1271.41 765.252 1266.49 771.327 1266.49 777.402 1266.49 782.327 1271.41 782.327 1277.49Z" stroke="#4472C4" stroke-width="3.4375" stroke-linejoin="round" stroke-miterlimit="10" fill="#4472C4"/><path d="M911.327 1272.49C911.327 1278.56 906.403 1283.49 900.328 1283.49 894.253 1283.49 889.328 1278.56 889.328 1272.49 889.328 1266.41 894.253 1261.49 900.328 1261.49 906.403 1261.49 911.327 1266.41 911.327 1272.49Z" stroke="#4472C4" stroke-width="3.4375" stroke-linejoin="round" stroke-miterlimit="10" fill="#4472C4"/><path d="M1430.33 1266.49C1430.33 1272.56 1425.4 1277.49 1419.33 1277.49 1413.25 1277.49 1408.33 1272.56 1408.33 1266.49 1408.33 1260.41 1413.25 1255.49 1419.33 1255.49 1425.4 1255.49 1430.33 1260.41 1430.33 1266.49Z" stroke="#4472C4" stroke-width="3.4375" stroke-linejoin="round" stroke-miterlimit="10" fill="#4472C4"/><path d="M1559.33 1279.49C1559.33 1285.56 1554.4 1290.49 1548.33 1290.49 1542.25 1290.49 1537.33 1285.56 1537.33 1279.49 1537.33 1273.41 1542.25 1268.49 1548.33 1268.49 1554.4 1268.49 1559.33 1273.41 1559.33 1279.49Z" stroke="#4472C4" stroke-width="3.4375" stroke-linejoin="round" stroke-miterlimit="10" fill="#4472C4"/><path d="M1689.33 1278.49C1689.33 1284.56 1684.4 1289.49 1678.33 1289.49 1672.25 1289.49 1667.33 1284.56 1667.33 1278.49 1667.33 1272.41 1672.25 1267.49 1678.33 1267.49 1684.4 1267.49 1689.33 1272.41 1689.33 1278.49Z" stroke="#4472C4" stroke-width="3.4375" stroke-linejoin="round" stroke-miterlimit="10" fill="#4472C4"/></g><g clip-path="url(#clip53)"><text font-family="Arial,Arial_MSFontService,sans-serif" font-weight="400" font-size="37" transform="matrix(1 0 0 1 213.284 1839)">0.0E+00</text></g><g clip-path="url(#clip54)"><text font-family="Arial,Arial_MSFontService,sans-serif" font-weight="400" font-size="37" transform="matrix(1 0 0 1 213.284 1768)">5.0E+03</text></g><g clip-path="url(#clip55)"><text font-family="Arial,Arial_MSFontService,sans-serif" font-weight="400" font-size="37" transform="matrix(1 0 0 1 213.284 1696)">1.0E+04</text></g><g clip-path="url(#clip56)"><text font-family="Arial,Arial_MSFontService,sans-serif" font-weight="400" font-size="37" transform="matrix(1 0 0 1 213.284 1625)">1.5E+04</text></g><g clip-path="url(#clip57)"><text font-family="Arial,Arial_MSFontService,sans-serif" font-weight="400" font-size="37" transform="matrix(1 0 0 1 213.284 1553)">2.0E+04</text></g><g clip-path="url(#clip58)"><text font-family="Arial,Arial_MSFontService,sans-serif" font-weight="400" font-size="37" transform="matrix(1 0 0 1 213.284 1482)">2.5E+04</text></g><g clip-path="url(#clip59)"><text font-family="Arial,Arial_MSFontService,sans-serif" font-weight="400" font-size="37" transform="matrix(1 0 0 1 213.284 1410)">3.0E+04</text></g><g clip-path="url(#clip60)"><text font-family="Arial,Arial_MSFontService,sans-serif" font-weight="400" font-size="37" transform="matrix(1 0 0 1 213.284 1338)">3.5E+04</text></g><g clip-path="url(#clip61)"><text font-family="Arial,Arial_MSFontService,sans-serif" font-weight="400" font-size="37" transform="matrix(1 0 0 1 213.284 1267)">4.0E+04</text></g><g clip-path="url(#clip62)"><text font-family="Arial,Arial_MSFontService,sans-serif" font-weight="400" font-size="37" transform="matrix(1 0 0 1 213.284 1195)">4.5E+04</text></g><g clip-path="url(#clip63)"><text font-family="Calibri,Calibri_MSFontService,sans-serif" font-weight="400" font-size="41" transform="matrix(1 0 0 1 372.009 1893)">0</text></g><g clip-path="url(#clip64)"><text font-family="Calibri,Calibri_MSFontService,sans-serif" font-weight="400" font-size="41" transform="matrix(1 0 0 1 533.976 1893)">5</text></g><g clip-path="url(#clip65)"><text font-family="Calibri,Calibri_MSFontService,sans-serif" font-weight="400" font-size="41" transform="matrix(1 0 0 1 685.492 1893)">10</text></g><g clip-path="url(#clip66)"><text font-family="Calibri,Calibri_MSFontService,sans-serif" font-weight="400" font-size="41" transform="matrix(1 0 0 1 847.459 1893)">15</text></g><g clip-path="url(#clip67)"><text font-family="Calibri,Calibri_MSFontService,sans-serif" font-weight="400" font-size="41" transform="matrix(1 0 0 1 1009.43 1893)">20</text></g><g clip-path="url(#clip68)"><text font-family="Calibri,Calibri_MSFontService,sans-serif" font-weight="400" font-size="41" transform="matrix(1 0 0 1 1171.39 1893)">25</text></g><g clip-path="url(#clip69)"><text font-family="Calibri,Calibri_MSFontService,sans-serif" font-weight="400" font-size="41" transform="matrix(1 0 0 1 1333.36 1893)">30</text></g><g clip-path="url(#clip70)"><text font-family="Calibri,Calibri_MSFontService,sans-serif" font-weight="400" font-size="41" transform="matrix(1 0 0 1 1495.32 1893)">35</text></g><g clip-path="url(#clip71)"><text font-family="Calibri,Calibri_MSFontService,sans-serif" font-weight="400" font-size="41" transform="matrix(1 0 0 1 1657.29 1893)">40</text></g><g clip-path="url(#clip72)"><text font-family="Arial,Arial_MSFontService,sans-serif" font-weight="400" font-size="41" transform="matrix(6.12323e-17 -1 1 6.12323e-17 191.124 1895)">Time consumption (Unit: milliseconds)</text></g><g clip-path="url(#clip73)"><text font-family="Arial,Arial_MSFontService,sans-serif" font-weight="400" font-size="46" transform="matrix(1 0 0 1 840.552 1961)">Number of threads</text></g><g clip-path="url(#clip74)"><text font-family="Arial,Arial_MSFontService,sans-serif" font-weight="400" font-size="55" transform="matrix(1 0 0 1 296.887 1115)">Time consumption under different number of thread</text></g></g></svg>