<svg width="2082" height="1117" xmlns="http://www.w3.org/2000/svg" xmlns:xlink="http://www.w3.org/1999/xlink" xml:space="preserve" overflow="hidden"><defs><filter id="fx0" x="-10%" y="-10%" width="120%" height="120%" filterUnits="userSpaceOnUse" primitiveUnits="userSpaceOnUse"><feComponentTransfer color-interpolation-filters="sRGB"><feFuncR type="discrete" tableValues="0 0"/><feFuncG type="discrete" tableValues="0 0"/><feFuncB type="discrete" tableValues="0 0"/><feFuncA type="linear" slope="0.4" intercept="0"/></feComponentTransfer><feGaussianBlur stdDeviation="6.11111 6.11111"/></filter><filter id="fx1" x="-10%" y="-10%" width="120%" height="120%" filterUnits="userSpaceOnUse" primitiveUnits="userSpaceOnUse"><feComponentTransfer color-interpolation-filters="sRGB"><feFuncR type="discrete" tableValues="0 0"/><feFuncG type="discrete" tableValues="0 0"/><feFuncB type="discrete" tableValues="0 0"/><feFuncA type="linear" slope="0.4" intercept="0"/></feComponentTransfer><feGaussianBlur stdDeviation="6.11111 6.11111"/></filter><filter id="fx2" x="-10%" y="-10%" width="120%" height="120%" filterUnits="userSpaceOnUse" primitiveUnits="userSpaceOnUse"><feComponentTransfer color-interpolation-filters="sRGB"><feFuncR type="discrete" tableValues="0 0"/><feFuncG type="discrete" tableValues="0 0"/><feFuncB type="discrete" tableValues="0 0"/><feFuncA type="linear" slope="0.4" intercept="0"/></feComponentTransfer><feGaussianBlur stdDeviation="6.11111 6.11111"/></filter><filter id="fx3" x="-10%" y="-10%" width="120%" height="120%" filterUnits="userSpaceOnUse" primitiveUnits="userSpaceOnUse"><feComponentTransfer color-interpolation-filters="sRGB"><feFuncR type="discrete" tableValues="0 0"/><feFuncG type="discrete" tableValues="0 0"/><feFuncB type="discrete" tableValues="0 0"/><feFuncA type="linear" slope="0.4" intercept="0"/></feComponentTransfer><feGaussianBlur stdDeviation="6.11111 6.11111"/></filter><clipPath id="clip4"><rect x="2278" y="3098" width="2082" height="1117"/></clipPath><clipPath id="clip5"><rect x="2279" y="3099" width="2079" height="1114"/></clipPath><clipPath id="clip6"><rect x="2279" y="3099" width="2079" height="1114"/></clipPath><clipPath id="clip7"><rect x="2571" y="3245" width="1745" height="684"/></clipPath><clipPath id="clip8"><rect x="-3" y="-3" width="1587" height="554"/></clipPath><clipPath id="clip9"><rect x="0" y="0" width="1580" height="541"/></clipPath><clipPath id="clip10"><rect x="2571" y="3245" width="1745" height="684"/></clipPath><clipPath id="clip11"><rect x="-3" y="-3" width="1587" height="558"/></clipPath><clipPath id="clip12"><rect x="0" y="0" width="1580" height="544"/></clipPath><clipPath id="clip13"><rect x="2571" y="3245" width="1745" height="684"/></clipPath><clipPath id="clip14"><rect x="-3" y="-3" width="1587" height="644"/></clipPath><clipPath id="clip15"><rect x="0" y="0" width="1580" height="629"/></clipPath><clipPath id="clip16"><rect x="2571" y="3245" width="1745" height="684"/></clipPath><clipPath id="clip17"><rect x="-3" y="-3" width="1587" height="640"/></clipPath><clipPath id="clip18"><rect x="0" y="0" width="1580" height="627"/></clipPath><clipPath id="clip19"><rect x="2571" y="3245" width="1745" height="684"/></clipPath><clipPath id="clip20"><rect x="2571" y="3245" width="1745" height="684"/></clipPath><clipPath id="clip21"><rect x="2571" y="3245" width="1745" height="684"/></clipPath><clipPath id="clip22"><rect x="2571" y="3245" width="1745" height="684"/></clipPath><clipPath id="clip23"><rect x="2279" y="3099" width="2079" height="1114"/></clipPath><clipPath id="clip24"><rect x="2279" y="3099" width="2079" height="1114"/></clipPath><clipPath id="clip25"><rect x="2279" y="3099" width="2079" height="1114"/></clipPath><clipPath id="clip26"><rect x="2279" y="3099" width="2079" height="1114"/></clipPath><clipPath id="clip27"><rect x="2279" y="3099" width="2079" height="1114"/></clipPath><clipPath id="clip28"><rect x="2279" y="3099" width="2079" height="1114"/></clipPath><clipPath id="clip29"><rect x="2279" y="3099" width="2079" height="1114"/></clipPath><clipPath id="clip30"><rect x="2279" y="3099" width="2079" height="1114"/></clipPath><clipPath id="clip31"><rect x="2279" y="3099" width="2079" height="1114"/></clipPath><clipPath id="clip32"><rect x="2279" y="3099" width="2079" height="1114"/></clipPath><clipPath id="clip33"><rect x="2279" y="3099" width="2079" height="1114"/></clipPath><clipPath id="clip34"><rect x="2279" y="3099" width="2079" height="1114"/></clipPath><clipPath id="clip35"><rect x="2279" y="3099" width="2079" height="1114"/></clipPath><clipPath id="clip36"><rect x="2279" y="3099" width="2079" height="1114"/></clipPath><clipPath id="clip37"><rect x="2279" y="3099" width="2079" height="1114"/></clipPath><clipPath id="clip38"><rect x="2279" y="3099" width="2079" height="1114"/></clipPath><clipPath id="clip39"><rect x="2279" y="3099" width="2079" height="1114"/></clipPath><clipPath id="clip40"><rect x="2279" y="3099" width="2079" height="1114"/></clipPath><clipPath id="clip41"><rect x="2279" y="3099" width="2079" height="1114"/></clipPath><clipPath id="clip42"><rect x="2279" y="3099" width="2079" height="1114"/></clipPath><clipPath id="clip43"><rect x="2279" y="3099" width="2079" height="1114"/></clipPath><clipPath id="clip44"><rect x="2279" y="3099" width="2079" height="1114"/></clipPath><clipPath id="clip45"><rect x="2279" y="3099" width="2079" height="1114"/></clipPath><clipPath id="clip46"><rect x="2279" y="3099" width="2079" height="1114"/></clipPath><clipPath id="clip47"><rect x="2279" y="3099" width="2079" height="1114"/></clipPath><clipPath id="clip48"><rect x="2279" y="3099" width="2079" height="1114"/></clipPath><clipPath id="clip49"><rect x="2279" y="3099" width="2079" height="1114"/></clipPath><clipPath id="clip50"><rect x="2279" y="3099" width="2079" height="1114"/></clipPath></defs><g clip-path="url(#clip4)" transform="translate(-2278 -3098)"><rect x="2279" y="3099" width="2079" height="1114" fill="#FFFFFF"/><g clip-path="url(#clip5)"><path d="M2571.5 3900.63 4312.5 3900.63M2571.5 3885.63 4312.5 3885.63M2571.5 3875.63 4312.5 3875.63M2571.5 3866.63 4312.5 3866.63M2571.5 3860.63 4312.5 3860.63M2571.5 3854.63 4312.5 3854.63M2571.5 3849.63 4312.5 3849.63M2571.5 3845.63 4312.5 3845.63M2571.5 3815.63 4312.5 3815.63M2571.5 3800.62 4312.5 3800.62M2571.5 3789.62 4312.5 3789.62M2571.5 3781.62 4312.5 3781.62M2571.5 3774.62 4312.5 3774.62M2571.5 3769.62 4312.5 3769.62M2571.5 3764.62 4312.5 3764.62M2571.5 3760.62 4312.5 3760.62M2571.5 3730.62 4312.5 3730.62M2571.5 3715.62 4312.5 3715.62M2571.5 3704.62 4312.5 3704.62M2571.5 3696.62 4312.5 3696.62M2571.5 3689.62 4312.5 3689.62M2571.5 3684.62 4312.5 3684.62M2571.5 3679.62 4312.5 3679.62M2571.5 3674.62 4312.5 3674.62M2571.5 3645.62 4312.5 3645.62M2571.5 3630.62 4312.5 3630.62M2571.5 3619.62 4312.5 3619.62M2571.5 3611.62 4312.5 3611.62M2571.5 3604.62 4312.5 3604.62M2571.5 3599.62 4312.5 3599.62M2571.5 3594.62 4312.5 3594.62M2571.5 3589.62 4312.5 3589.62M2571.5 3560.62 4312.5 3560.62M2571.5 3545.62 4312.5 3545.62M2571.5 3534.62 4312.5 3534.62M2571.5 3526.62 4312.5 3526.62M2571.5 3519.62 4312.5 3519.62M2571.5 3514.62 4312.5 3514.62M2571.5 3509.62 4312.5 3509.62M2571.5 3504.61 4312.5 3504.61M2571.5 3475.61 4312.5 3475.61M2571.5 3460.61 4312.5 3460.61M2571.5 3449.61 4312.5 3449.61M2571.5 3441.61 4312.5 3441.61M2571.5 3434.61 4312.5 3434.61M2571.5 3429.61 4312.5 3429.61M2571.5 3424.61 4312.5 3424.61M2571.5 3419.61 4312.5 3419.61M2571.5 3390.61 4312.5 3390.61M2571.5 3375.61 4312.5 3375.61M2571.5 3364.61 4312.5 3364.61M2571.5 3356.61 4312.5 3356.61M2571.5 3349.61 4312.5 3349.61M2571.5 3344.61 4312.5 3344.61M2571.5 3339.61 4312.5 3339.61M2571.5 3334.61 4312.5 3334.61M2571.5 3305.61 4312.5 3305.61M2571.5 3290.61 4312.5 3290.61M2571.5 3279.61 4312.5 3279.61M2571.5 3271.61 4312.5 3271.61M2571.5 3264.61 4312.5 3264.61M2571.5 3259.61 4312.5 3259.61M2571.5 3254.61 4312.5 3254.61M2571.5 3249.61 4312.5 3249.61" stroke="#F2F2F2" stroke-width="3.4375" stroke-linejoin="round" stroke-miterlimit="10" fill="none"/></g><g clip-path="url(#clip6)"><path d="M2571.5 3841.63 4312.5 3841.63M2571.5 3756.62 4312.5 3756.62M2571.5 3671.62 4312.5 3671.62M2571.5 3586.62 4312.5 3586.62M2571.5 3501.61 4312.5 3501.61M2571.5 3415.61 4312.5 3415.61M2571.5 3330.61 4312.5 3330.61M2571.5 3245.5 4312.5 3245.5" stroke="#D9D9D9" stroke-width="3.4375" stroke-linejoin="round" stroke-miterlimit="10" fill="none"/></g><g clip-path="url(#clip7)"><g clip-path="url(#clip8)" filter="url(#fx0)" transform="translate(2591 3407)"><g clip-path="url(#clip9)"><path d="M19.8081 488.85 66.8096 488.85 66.8096 528.723 19.8081 528.723ZM268.816 403.847 315.818 403.847 315.818 528.723 268.816 528.723ZM516.824 325.845 564.826 325.845 564.826 528.723 516.824 528.723ZM765.833 250.842 813.834 250.842 813.834 528.723 765.833 528.723ZM1014.84 173.84 1061.84 173.84 1061.84 528.723 1014.84 528.723ZM1263.85 97.8373 1310.85 97.8373 1310.85 528.723 1263.85 528.723ZM1511.86 19.8347 1559.86 19.8347 1559.86 528.723 1511.86 528.723Z" fill="#ED7D31"/></g></g></g><g clip-path="url(#clip10)"><g clip-path="url(#clip11)" filter="url(#fx1)" transform="translate(2638 3404)"><g clip-path="url(#clip12)"><path d="M19.8096 491.85 67.8112 491.85 67.8112 531.723 19.8096 531.723ZM268.818 408.847 315.819 408.847 315.819 531.723 268.818 531.723ZM517.826 335.845 564.828 335.845 564.828 531.723 517.826 531.723ZM766.834 253.842 813.836 253.842 813.836 531.723 766.834 531.723ZM1014.84 176.84 1062.84 176.84 1062.84 531.723 1014.84 531.723ZM1263.85 100.837 1310.85 100.837 1310.85 531.723 1263.85 531.723ZM1512.86 19.8346 1559.86 19.8346 1559.86 531.723 1512.86 531.723Z" fill="#A5A5A5"/></g></g></g><g clip-path="url(#clip13)"><g clip-path="url(#clip14)" filter="url(#fx2)" transform="translate(2686 3319)"><g clip-path="url(#clip15)"><path d="M19.8112 535.849 66.8127 535.849 66.8127 616.723 19.8112 616.723ZM267.819 448.846 315.821 448.846 315.821 616.723 267.819 616.723ZM516.828 372.843 564.829 372.843 564.829 616.723 516.828 616.723ZM765.836 294.841 812.837 294.841 812.837 616.723 765.836 616.723ZM1014.84 214.838 1061.85 214.838 1061.85 616.723 1014.84 616.723ZM1262.85 124.835 1310.85 124.835 1310.85 616.723 1262.85 616.723ZM1511.86 19.8318 1559.86 19.8318 1559.86 616.723 1511.86 616.723Z" fill="#FFC000"/></g></g></g><g clip-path="url(#clip16)"><g clip-path="url(#clip17)" filter="url(#fx3)" transform="translate(2733 3321)"><g clip-path="url(#clip18)"><path d="M19.8127 533.849 66.8143 533.849 66.8143 614.723 19.8127 614.723ZM268.821 445.846 315.822 445.846 315.822 614.723 268.821 614.723ZM517.829 372.843 564.831 372.843 564.831 614.723 517.829 614.723ZM765.837 295.841 813.839 295.841 813.839 614.723 765.837 614.723ZM1014.85 215.838 1061.85 215.838 1061.85 614.723 1014.85 614.723ZM1263.85 121.835 1310.86 121.835 1310.86 614.723 1263.85 614.723ZM1512.86 19.8319 1559.86 19.8319 1559.86 614.723 1512.86 614.723Z" fill="#5B9BD5"/></g></g></g><g clip-path="url(#clip19)"><path d="M2601.09 3886.13 2648.09 3886.13 2648.09 3926 2601.09 3926ZM2850.09 3801.12 2897.1 3801.12 2897.1 3926 2850.09 3926ZM3098.1 3723.12 3146.1 3723.12 3146.1 3926 3098.1 3926ZM3347.11 3648.12 3395.11 3648.12 3395.11 3926 3347.11 3926ZM3596.12 3571.12 3643.12 3571.12 3643.12 3926 3596.12 3926ZM3845.13 3495.11 3892.13 3495.11 3892.13 3926 3845.13 3926ZM4093.13 3417.11 4141.14 3417.11 4141.14 3926 4093.13 3926Z" fill="#ED7D31"/></g><g clip-path="url(#clip20)"><path d="M2648.09 3886.13 2696.09 3886.13 2696.09 3926 2648.09 3926ZM2897.1 3803.12 2944.1 3803.12 2944.1 3926 2897.1 3926ZM3146.1 3730.12 3193.1 3730.12 3193.1 3926 3146.1 3926ZM3395.11 3648.12 3442.11 3648.12 3442.11 3926 3395.11 3926ZM3643.12 3571.12 3691.12 3571.12 3691.12 3926 3643.12 3926ZM3892.13 3495.11 3939.13 3495.11 3939.13 3926 3892.13 3926ZM4141.14 3414.11 4188.14 3414.11 4188.14 3926 4141.14 3926Z" fill="#A5A5A5"/></g><g clip-path="url(#clip21)"><path d="M2696.09 3845.13 2743.09 3845.13 2743.09 3926 2696.09 3926ZM2944.1 3758.12 2992.1 3758.12 2992.1 3926 2944.1 3926ZM3193.1 3682.12 3241.11 3682.12 3241.11 3926 3193.1 3926ZM3442.11 3604.12 3489.11 3604.12 3489.11 3926 3442.11 3926ZM3691.12 3524.12 3738.12 3524.12 3738.12 3926 3691.12 3926ZM3939.13 3434.11 3987.13 3434.11 3987.13 3926 3939.13 3926ZM4188.14 3329.11 4236.14 3329.11 4236.14 3926 4188.14 3926Z" fill="#FFC000"/></g><g clip-path="url(#clip22)"><path d="M2743.09 3845.13 2790.09 3845.13 2790.09 3926 2743.09 3926ZM2992.1 3757.12 3039.1 3757.12 3039.1 3926 2992.1 3926ZM3241.11 3684.12 3288.11 3684.12 3288.11 3926 3241.11 3926ZM3489.11 3607.12 3537.12 3607.12 3537.12 3926 3489.11 3926ZM3738.12 3527.12 3785.12 3527.12 3785.12 3926 3738.12 3926ZM3987.13 3433.11 4034.13 3433.11 4034.13 3926 3987.13 3926ZM4236.14 3331.11 4283.14 3331.11 4283.14 3926 4236.14 3926Z" fill="#5B9BD5"/></g><g clip-path="url(#clip23)"><path d="M2571.5 3926.5 4312.5 3926.5" stroke="#D9D9D9" stroke-width="3.4375" stroke-linejoin="round" stroke-miterlimit="10" fill="none" fill-rule="evenodd"/></g><g clip-path="url(#clip24)"><text font-family="Arial,Arial_MSFontService,sans-serif" font-weight="400" font-size="41" transform="matrix(1 0 0 1 2512.97 3939)">1</text></g><g clip-path="url(#clip25)"><text font-family="Arial,Arial_MSFontService,sans-serif" font-weight="400" font-size="41" transform="matrix(1 0 0 1 2490.03 3854)">10</text></g><g clip-path="url(#clip26)"><text font-family="Arial,Arial_MSFontService,sans-serif" font-weight="400" font-size="41" transform="matrix(1 0 0 1 2467.09 3769)">100</text></g><g clip-path="url(#clip27)"><text font-family="Arial,Arial_MSFontService,sans-serif" font-weight="400" font-size="41" transform="matrix(1 0 0 1 2444.15 3684)">1000</text></g><g clip-path="url(#clip28)"><text font-family="Arial,Arial_MSFontService,sans-serif" font-weight="400" font-size="41" transform="matrix(1 0 0 1 2421.21 3599)">10000</text></g><g clip-path="url(#clip29)"><text font-family="Arial,Arial_MSFontService,sans-serif" font-weight="400" font-size="41" transform="matrix(1 0 0 1 2398.27 3514)">100000</text></g><g clip-path="url(#clip30)"><text font-family="Arial,Arial_MSFontService,sans-serif" font-weight="400" font-size="41" transform="matrix(1 0 0 1 2375.33 3429)">1000000</text></g><g clip-path="url(#clip31)"><text font-family="Arial,Arial_MSFontService,sans-serif" font-weight="400" font-size="41" transform="matrix(1 0 0 1 2352.39 3344)">10000000</text></g><g clip-path="url(#clip32)"><text font-family="Arial,Arial_MSFontService,sans-serif" font-weight="400" font-size="41" transform="matrix(1 0 0 1 2329.45 3259)">100000000</text></g><g clip-path="url(#clip33)"><text font-family="Arial,Arial_MSFontService,sans-serif" font-weight="400" font-size="41" transform="matrix(1 0 0 1 2661.35 3988)">128</text></g><g clip-path="url(#clip34)"><text font-family="Arial,Arial_MSFontService,sans-serif" font-weight="400" font-size="41" transform="matrix(1 0 0 1 2910.1 3988)">256</text></g><g clip-path="url(#clip35)"><text font-family="Arial,Arial_MSFontService,sans-serif" font-weight="400" font-size="41" transform="matrix(1 0 0 1 3158.86 3988)">512</text></g><g clip-path="url(#clip36)"><text font-family="Arial,Arial_MSFontService,sans-serif" font-weight="400" font-size="41" transform="matrix(1 0 0 1 3396.15 3988)">1024</text></g><g clip-path="url(#clip37)"><text font-family="Arial,Arial_MSFontService,sans-serif" font-weight="400" font-size="41" transform="matrix(1 0 0 1 3644.9 3988)">2048</text></g><g clip-path="url(#clip38)"><text font-family="Arial,Arial_MSFontService,sans-serif" font-weight="400" font-size="41" transform="matrix(1 0 0 1 3893.66 3988)">4096</text></g><g clip-path="url(#clip39)"><text font-family="Arial,Arial_MSFontService,sans-serif" font-weight="400" font-size="41" transform="matrix(1 0 0 1 4142.42 3988)">8192</text></g><g clip-path="url(#clip40)"><text font-family="Arial,Arial_MSFontService,sans-serif" font-weight="700" font-size="46" transform="matrix(6.12323e-17 -1 1 6.12323e-17 2329 4087)">Program Duration (Unit: milliseconds)</text></g><g clip-path="url(#clip41)"><text font-family="Arial,Arial_MSFontService,sans-serif" font-weight="700" font-size="46" transform="matrix(1 0 0 1 3128.29 4046)">Matrix Dimension</text></g><g clip-path="url(#clip42)"><text font-family="Arial,Arial_MSFontService,sans-serif" font-weight="700" font-size="48" transform="matrix(1 0 0 1 2520.6 3179)">Intrin and Common Duration for Different Dimensions and Data Types</text></g><g clip-path="url(#clip43)"><rect x="2700" y="4072" width="20" height="21" fill="#ED7D31"/></g><g clip-path="url(#clip44)"><text font-family="Arial,Arial_MSFontService,sans-serif" font-weight="400" font-size="41" transform="matrix(1 0 0 1 2729.11 4096)">Intrin Duration (ms) - Float 0</text></g><g clip-path="url(#clip45)"><rect x="3333" y="4072" width="20" height="21" fill="#A5A5A5"/></g><g clip-path="url(#clip46)"><text font-family="Arial,Arial_MSFontService,sans-serif" font-weight="400" font-size="41" transform="matrix(1 0 0 1 3361.89 4096)">Intrin Duration (ms) - Float 1</text></g><g clip-path="url(#clip47)"><rect x="2700" y="4146" width="20" height="20" fill="#FFC000"/></g><g clip-path="url(#clip48)"><text font-family="Arial,Arial_MSFontService,sans-serif" font-weight="400" font-size="41" transform="matrix(1 0 0 1 2729.11 4169)">Common Duration (ms) - Float 0</text></g><g clip-path="url(#clip49)"><rect x="3333" y="4146" width="20" height="20" fill="#5B9BD5"/></g><g clip-path="url(#clip50)"><text font-family="Arial,Arial_MSFontService,sans-serif" font-weight="400" font-size="41" transform="matrix(1 0 0 1 3361.89 4169)">Common Duration (ms) - Float 1</text></g><rect x="2279.5" y="3099.5" width="2079" height="1114" stroke="#D9D9D9" stroke-width="3.4375" stroke-linejoin="round" stroke-miterlimit="10" fill="none"/></g></svg>