<svg width="2082" height="1181" xmlns="http://www.w3.org/2000/svg" xmlns:xlink="http://www.w3.org/1999/xlink" xml:space="preserve" overflow="hidden"><defs><filter id="fx0" x="-10%" y="-10%" width="120%" height="120%" filterUnits="userSpaceOnUse" primitiveUnits="userSpaceOnUse"><feComponentTransfer color-interpolation-filters="sRGB"><feFuncR type="discrete" tableValues="0 0"/><feFuncG type="discrete" tableValues="0 0"/><feFuncB type="discrete" tableValues="0 0"/><feFuncA type="linear" slope="0.4" intercept="0"/></feComponentTransfer><feGaussianBlur stdDeviation="6.11111 6.11111"/></filter><filter id="fx1" x="-10%" y="-10%" width="120%" height="120%" filterUnits="userSpaceOnUse" primitiveUnits="userSpaceOnUse"><feComponentTransfer color-interpolation-filters="sRGB"><feFuncR type="discrete" tableValues="0 0"/><feFuncG type="discrete" tableValues="0 0"/><feFuncB type="discrete" tableValues="0 0"/><feFuncA type="linear" slope="0.4" intercept="0"/></feComponentTransfer><feGaussianBlur stdDeviation="6.11111 6.11111"/></filter><filter id="fx2" x="-10%" y="-10%" width="120%" height="120%" filterUnits="userSpaceOnUse" primitiveUnits="userSpaceOnUse"><feComponentTransfer color-interpolation-filters="sRGB"><feFuncR type="discrete" tableValues="0 0"/><feFuncG type="discrete" tableValues="0 0"/><feFuncB type="discrete" tableValues="0 0"/><feFuncA type="linear" slope="0.4" intercept="0"/></feComponentTransfer><feGaussianBlur stdDeviation="6.11111 6.11111"/></filter><filter id="fx3" x="-10%" y="-10%" width="120%" height="120%" filterUnits="userSpaceOnUse" primitiveUnits="userSpaceOnUse"><feComponentTransfer color-interpolation-filters="sRGB"><feFuncR type="discrete" tableValues="0 0"/><feFuncG type="discrete" tableValues="0 0"/><feFuncB type="discrete" tableValues="0 0"/><feFuncA type="linear" slope="0.4" intercept="0"/></feComponentTransfer><feGaussianBlur stdDeviation="6.11111 6.11111"/></filter><clipPath id="clip4"><rect x="2278" y="3098" width="2082" height="1181"/></clipPath><clipPath id="clip5"><rect x="2279" y="3099" width="2079" height="1177"/></clipPath><clipPath id="clip6"><rect x="2279" y="3099" width="2079" height="1177"/></clipPath><clipPath id="clip7"><rect x="2571" y="3254" width="1745" height="722"/></clipPath><clipPath id="clip8"><rect x="-3" y="-3" width="1611" height="689"/></clipPath><clipPath id="clip9"><rect x="0" y="0" width="1605" height="676"/></clipPath><clipPath id="clip10"><rect x="2571" y="3254" width="1745" height="722"/></clipPath><clipPath id="clip11"><rect x="-3" y="-3" width="1611" height="695"/></clipPath><clipPath id="clip12"><rect x="0" y="0" width="1605" height="680"/></clipPath><clipPath id="clip13"><rect x="2571" y="3254" width="1745" height="722"/></clipPath><clipPath id="clip14"><rect x="-3" y="-3" width="1611" height="761"/></clipPath><clipPath id="clip15"><rect x="0" y="0" width="1605" height="747"/></clipPath><clipPath id="clip16"><rect x="2571" y="3254" width="1745" height="722"/></clipPath><clipPath id="clip17"><rect x="-3" y="-3" width="1611" height="761"/></clipPath><clipPath id="clip18"><rect x="0" y="0" width="1605" height="746"/></clipPath><clipPath id="clip19"><rect x="2571" y="3254" width="1745" height="722"/></clipPath><clipPath id="clip20"><rect x="2571" y="3254" width="1745" height="722"/></clipPath><clipPath id="clip21"><rect x="2571" y="3254" width="1745" height="722"/></clipPath><clipPath id="clip22"><rect x="2571" y="3254" width="1745" height="722"/></clipPath><clipPath id="clip23"><rect x="2279" y="3099" width="2079" height="1177"/></clipPath><clipPath id="clip24"><rect x="2279" y="3099" width="2079" height="1177"/></clipPath><clipPath id="clip25"><rect x="2279" y="3099" width="2079" height="1177"/></clipPath><clipPath id="clip26"><rect x="2279" y="3099" width="2079" height="1177"/></clipPath><clipPath id="clip27"><rect x="2279" y="3099" width="2079" height="1177"/></clipPath><clipPath id="clip28"><rect x="2279" y="3099" width="2079" height="1177"/></clipPath><clipPath id="clip29"><rect x="2279" y="3099" width="2079" height="1177"/></clipPath><clipPath id="clip30"><rect x="2279" y="3099" width="2079" height="1177"/></clipPath><clipPath id="clip31"><rect x="2279" y="3099" width="2079" height="1177"/></clipPath><clipPath id="clip32"><rect x="2279" y="3099" width="2079" height="1177"/></clipPath><clipPath id="clip33"><rect x="2279" y="3099" width="2079" height="1177"/></clipPath><clipPath id="clip34"><rect x="2279" y="3099" width="2079" height="1177"/></clipPath><clipPath id="clip35"><rect x="2279" y="3099" width="2079" height="1177"/></clipPath><clipPath id="clip36"><rect x="2279" y="3099" width="2079" height="1177"/></clipPath><clipPath id="clip37"><rect x="2279" y="3099" width="2079" height="1177"/></clipPath><clipPath id="clip38"><rect x="2279" y="3099" width="2079" height="1177"/></clipPath><clipPath id="clip39"><rect x="2279" y="3099" width="2079" height="1177"/></clipPath><clipPath id="clip40"><rect x="2279" y="3099" width="2079" height="1177"/></clipPath><clipPath id="clip41"><rect x="2279" y="3099" width="2079" height="1177"/></clipPath><clipPath id="clip42"><rect x="2279" y="3099" width="2079" height="1177"/></clipPath><clipPath id="clip43"><rect x="2279" y="3099" width="2079" height="1177"/></clipPath><clipPath id="clip44"><rect x="2279" y="3099" width="2079" height="1177"/></clipPath><clipPath id="clip45"><rect x="2279" y="3099" width="2079" height="1177"/></clipPath><clipPath id="clip46"><rect x="2279" y="3099" width="2079" height="1177"/></clipPath><clipPath id="clip47"><rect x="2279" y="3099" width="2079" height="1177"/></clipPath><clipPath id="clip48"><rect x="2279" y="3099" width="2079" height="1177"/></clipPath><clipPath id="clip49"><rect x="2279" y="3099" width="2079" height="1177"/></clipPath><clipPath id="clip50"><rect x="2279" y="3099" width="2079" height="1177"/></clipPath></defs><g clip-path="url(#clip4)" transform="translate(-2278 -3098)"><rect x="2279" y="3099" width="2079" height="1178" fill="#FFFFFF"/><g clip-path="url(#clip5)"><path d="M2571.5 3942.63 4312.5 3942.63M2571.5 3924.63 4312.5 3924.63M2571.5 3911.63 4312.5 3911.63M2571.5 3901.63 4312.5 3901.63M2571.5 3893.63 4312.5 3893.63M2571.5 3886.63 4312.5 3886.63M2571.5 3880.63 4312.5 3880.63M2571.5 3875.63 4312.5 3875.63M2571.5 3839.63 4312.5 3839.63M2571.5 3821.63 4312.5 3821.63M2571.5 3808.63 4312.5 3808.63M2571.5 3798.62 4312.5 3798.62M2571.5 3790.62 4312.5 3790.62M2571.5 3783.62 4312.5 3783.62M2571.5 3777.62 4312.5 3777.62M2571.5 3772.62 4312.5 3772.62M2571.5 3736.62 4312.5 3736.62M2571.5 3718.62 4312.5 3718.62M2571.5 3706.62 4312.5 3706.62M2571.5 3696.62 4312.5 3696.62M2571.5 3687.62 4312.5 3687.62M2571.5 3681.62 4312.5 3681.62M2571.5 3675.62 4312.5 3675.62M2571.5 3669.62 4312.5 3669.62M2571.5 3634.62 4312.5 3634.62M2571.5 3616.62 4312.5 3616.62M2571.5 3603.62 4312.5 3603.62M2571.5 3593.62 4312.5 3593.62M2571.5 3585.62 4312.5 3585.62M2571.5 3578.62 4312.5 3578.62M2571.5 3572.62 4312.5 3572.62M2571.5 3567.62 4312.5 3567.62M2571.5 3531.62 4312.5 3531.62M2571.5 3513.62 4312.5 3513.62M2571.5 3500.62 4312.5 3500.62M2571.5 3490.61 4312.5 3490.61M2571.5 3482.61 4312.5 3482.61M2571.5 3475.61 4312.5 3475.61M2571.5 3469.61 4312.5 3469.61M2571.5 3464.61 4312.5 3464.61M2571.5 3428.61 4312.5 3428.61M2571.5 3410.61 4312.5 3410.61M2571.5 3397.61 4312.5 3397.61M2571.5 3387.61 4312.5 3387.61M2571.5 3379.61 4312.5 3379.61M2571.5 3372.61 4312.5 3372.61M2571.5 3366.61 4312.5 3366.61M2571.5 3361.61 4312.5 3361.61M2571.5 3326.61 4312.5 3326.61M2571.5 3307.61 4312.5 3307.61M2571.5 3295.61 4312.5 3295.61M2571.5 3285.61 4312.5 3285.61M2571.5 3277.61 4312.5 3277.61M2571.5 3270.61 4312.5 3270.61M2571.5 3264.61 4312.5 3264.61M2571.5 3258.61 4312.5 3258.61" stroke="#F2F2F2" stroke-width="3.4375" stroke-linejoin="round" stroke-miterlimit="10" fill="none"/></g><g clip-path="url(#clip6)"><path d="M2571.5 3870.63 4312.5 3870.63M2571.5 3767.62 4312.5 3767.62M2571.5 3665.62 4312.5 3665.62M2571.5 3562.62 4312.5 3562.62M2571.5 3459.61 4312.5 3459.61M2571.5 3356.61 4312.5 3356.61M2571.5 3254.5 4312.5 3254.5" stroke="#D9D9D9" stroke-width="3.4375" stroke-linejoin="round" stroke-miterlimit="10" fill="none"/></g><g clip-path="url(#clip7)"><g clip-path="url(#clip8)" filter="url(#fx0)" transform="translate(2587 3319)"><g clip-path="url(#clip9)"><path d="M19.808 614.851 61.8093 614.851 61.8093 663.723 19.808 663.723ZM237.815 512.848 278.816 512.848 278.816 663.723 237.815 663.723ZM455.822 418.845 496.824 418.845 496.824 663.723 455.822 663.723ZM672.829 346.843 714.831 346.843 714.831 663.723 672.829 663.723ZM890.837 328.842 931.838 328.842 931.838 663.723 890.837 663.723ZM1107.84 234.839 1149.84 234.839 1149.84 663.723 1107.84 663.723ZM1325.85 142.836 1367.85 142.836 1367.85 663.723 1325.85 663.723ZM1543.86 19.8319 1584.86 19.8319 1584.86 663.723 1543.86 663.723Z" fill="#ED7D31"/></g></g></g><g clip-path="url(#clip10)"><g clip-path="url(#clip11)" filter="url(#fx1)" transform="translate(2629 3315)"><g clip-path="url(#clip12)"><path d="M19.8093 618.851 60.8107 618.851 60.8107 667.723 19.8093 667.723ZM236.816 519.848 278.818 519.848 278.818 667.723 236.816 667.723ZM454.824 431.845 495.825 431.845 495.825 667.723 454.824 667.723ZM672.831 348.843 713.832 348.843 713.832 667.723 672.831 667.723ZM889.838 331.842 931.839 331.842 931.839 667.723 889.838 667.723ZM1107.84 239.839 1148.85 239.839 1148.85 667.723 1107.84 667.723ZM1325.85 146.836 1366.85 146.836 1366.85 667.723 1325.85 667.723ZM1542.86 19.8318 1584.86 19.8318 1584.86 667.723 1542.86 667.723Z" fill="#A5A5A5"/></g></g></g><g clip-path="url(#clip13)"><g clip-path="url(#clip14)" filter="url(#fx2)" transform="translate(2670 3248)"><g clip-path="url(#clip15)"><path d="M19.8107 636.85 61.8121 636.85 61.8121 734.723 19.8107 734.723ZM237.818 531.846 278.819 531.846 278.819 734.723 237.818 734.723ZM454.825 439.843 496.826 439.843 496.826 734.723 454.825 734.723ZM672.832 364.841 714.833 364.841 714.833 734.723 672.832 734.723ZM890.839 345.84 931.841 345.84 931.841 734.723 890.839 734.723ZM1107.85 248.837 1149.85 248.837 1149.85 734.723 1107.85 734.723ZM1325.85 139.834 1367.85 139.834 1367.85 734.723 1325.85 734.723ZM1543.86 19.8296 1584.86 19.8296 1584.86 734.723 1543.86 734.723Z" fill="#FFC000"/></g></g></g><g clip-path="url(#clip16)"><g clip-path="url(#clip17)" filter="url(#fx3)" transform="translate(2712 3249)"><g clip-path="url(#clip18)"><path d="M19.8121 635.85 60.8134 635.85 60.8134 733.723 19.8121 733.723ZM236.819 528.846 278.821 528.846 278.821 733.723 236.819 733.723ZM454.826 441.843 495.828 441.843 495.828 733.723 454.826 733.723ZM672.833 366.841 713.835 366.841 713.835 733.723 672.833 733.723ZM889.841 348.84 931.842 348.84 931.842 733.723 889.841 733.723ZM1107.85 251.837 1148.85 251.837 1148.85 733.723 1107.85 733.723ZM1325.85 137.834 1366.86 137.834 1366.86 733.723 1325.85 733.723ZM1542.86 19.8296 1584.86 19.8296 1584.86 733.723 1542.86 733.723Z" fill="#5B9BD5"/></g></g></g><g clip-path="url(#clip19)"><path d="M2597.09 3924.13 2639.09 3924.13 2639.09 3973 2597.09 3973ZM2815.09 3822.13 2856.09 3822.13 2856.09 3973 2815.09 3973ZM3033.1 3728.12 3074.1 3728.12 3074.1 3973 3033.1 3973ZM3250.11 3656.12 3292.11 3656.12 3292.11 3973 3250.11 3973ZM3468.11 3638.12 3509.12 3638.12 3509.12 3973 3468.11 3973ZM3685.12 3544.12 3727.12 3544.12 3727.12 3973 3685.12 3973ZM3903.13 3452.11 3945.13 3452.11 3945.13 3973 3903.13 3973ZM4121.14 3329.11 4162.14 3329.11 4162.14 3973 4121.14 3973Z" fill="#ED7D31"/></g><g clip-path="url(#clip20)"><path d="M2639.09 3924.13 2680.09 3924.13 2680.09 3973 2639.09 3973ZM2856.09 3825.13 2898.1 3825.13 2898.1 3973 2856.09 3973ZM3074.1 3737.12 3115.1 3737.12 3115.1 3973 3074.1 3973ZM3292.11 3654.12 3333.11 3654.12 3333.11 3973 3292.11 3973ZM3509.12 3637.12 3551.12 3637.12 3551.12 3973 3509.12 3973ZM3727.12 3545.12 3768.12 3545.12 3768.12 3973 3727.12 3973ZM3945.13 3452.11 3986.13 3452.11 3986.13 3973 3945.13 3973ZM4162.14 3325.11 4204.14 3325.11 4204.14 3973 4162.14 3973Z" fill="#A5A5A5"/></g><g clip-path="url(#clip21)"><path d="M2680.09 3875.13 2722.09 3875.13 2722.09 3973 2680.09 3973ZM2898.1 3770.12 2939.1 3770.12 2939.1 3973 2898.1 3973ZM3115.1 3678.12 3157.1 3678.12 3157.1 3973 3115.1 3973ZM3333.11 3603.12 3375.11 3603.12 3375.11 3973 3333.11 3973ZM3551.12 3584.12 3592.12 3584.12 3592.12 3973 3551.12 3973ZM3768.12 3487.11 3810.12 3487.11 3810.12 3973 3768.12 3973ZM3986.13 3378.11 4028.13 3378.11 4028.13 3973 3986.13 3973ZM4204.14 3258.11 4245.14 3258.11 4245.14 3973 4204.14 3973Z" fill="#FFC000"/></g><g clip-path="url(#clip22)"><path d="M2722.09 3875.13 2763.09 3875.13 2763.09 3973 2722.09 3973ZM2939.1 3768.12 2981.1 3768.12 2981.1 3973 2939.1 3973ZM3157.1 3681.12 3198.1 3681.12 3198.1 3973 3157.1 3973ZM3375.11 3606.12 3416.11 3606.12 3416.11 3973 3375.11 3973ZM3592.12 3588.12 3634.12 3588.12 3634.12 3973 3592.12 3973ZM3810.12 3491.11 3851.13 3491.11 3851.13 3973 3810.12 3973ZM4028.13 3377.11 4069.13 3377.11 4069.13 3973 4028.13 3973ZM4245.14 3259.11 4287.14 3259.11 4287.14 3973 4245.14 3973Z" fill="#5B9BD5"/></g><g clip-path="url(#clip23)"><path d="M2571.5 3973.5 4312.5 3973.5" stroke="#D9D9D9" stroke-width="3.4375" stroke-linejoin="round" stroke-miterlimit="10" fill="none" fill-rule="evenodd"/></g><g clip-path="url(#clip24)"><text font-family="Arial,Arial_MSFontService,sans-serif" font-weight="400" font-size="41" transform="matrix(1 0 0 1 2512.97 3986)">1</text></g><g clip-path="url(#clip25)"><text font-family="Arial,Arial_MSFontService,sans-serif" font-weight="400" font-size="41" transform="matrix(1 0 0 1 2490.03 3883)">10</text></g><g clip-path="url(#clip26)"><text font-family="Arial,Arial_MSFontService,sans-serif" font-weight="400" font-size="41" transform="matrix(1 0 0 1 2467.09 3781)">100</text></g><g clip-path="url(#clip27)"><text font-family="Arial,Arial_MSFontService,sans-serif" font-weight="400" font-size="41" transform="matrix(1 0 0 1 2444.15 3678)">1000</text></g><g clip-path="url(#clip28)"><text font-family="Arial,Arial_MSFontService,sans-serif" font-weight="400" font-size="41" transform="matrix(1 0 0 1 2421.21 3575)">10000</text></g><g clip-path="url(#clip29)"><text font-family="Arial,Arial_MSFontService,sans-serif" font-weight="400" font-size="41" transform="matrix(1 0 0 1 2398.27 3473)">100000</text></g><g clip-path="url(#clip30)"><text font-family="Arial,Arial_MSFontService,sans-serif" font-weight="400" font-size="41" transform="matrix(1 0 0 1 2375.33 3370)">1000000</text></g><g clip-path="url(#clip31)"><text font-family="Arial,Arial_MSFontService,sans-serif" font-weight="400" font-size="41" transform="matrix(1 0 0 1 2352.39 3267)">10000000</text></g><g clip-path="url(#clip32)"><text font-family="Arial,Arial_MSFontService,sans-serif" font-weight="400" font-size="41" transform="matrix(1 0 0 1 2645.8 4035)">128</text></g><g clip-path="url(#clip33)"><text font-family="Arial,Arial_MSFontService,sans-serif" font-weight="400" font-size="41" transform="matrix(1 0 0 1 2863.46 4035)">256</text></g><g clip-path="url(#clip34)"><text font-family="Arial,Arial_MSFontService,sans-serif" font-weight="400" font-size="41" transform="matrix(1 0 0 1 3081.12 4035)">512</text></g><g clip-path="url(#clip35)"><text font-family="Arial,Arial_MSFontService,sans-serif" font-weight="400" font-size="41" transform="matrix(1 0 0 1 3287.32 4035)">1000</text></g><g clip-path="url(#clip36)"><text font-family="Arial,Arial_MSFontService,sans-serif" font-weight="400" font-size="41" transform="matrix(1 0 0 1 3504.98 4035)">1024</text></g><g clip-path="url(#clip37)"><text font-family="Arial,Arial_MSFontService,sans-serif" font-weight="400" font-size="41" transform="matrix(1 0 0 1 3722.64 4035)">2048</text></g><g clip-path="url(#clip38)"><text font-family="Arial,Arial_MSFontService,sans-serif" font-weight="400" font-size="41" transform="matrix(1 0 0 1 3940.3 4035)">4096</text></g><g clip-path="url(#clip39)"><text font-family="Arial,Arial_MSFontService,sans-serif" font-weight="400" font-size="41" transform="matrix(1 0 0 1 4146.49 4035)">10000</text></g><g clip-path="url(#clip40)"><text font-family="Arial,Arial_MSFontService,sans-serif" font-weight="700" font-size="46" transform="matrix(6.12323e-17 -1 1 6.12323e-17 2329 4096)">Program Duration (Unit: milliseconds)</text></g><g clip-path="url(#clip41)"><text font-family="Arial,Arial_MSFontService,sans-serif" font-weight="700" font-size="46" transform="matrix(1 0 0 1 3128.29 4097)">Matrix Dimension</text></g><g clip-path="url(#clip42)"><text font-family="Arial,Arial_MSFontService,sans-serif" font-weight="700" font-size="48" transform="matrix(1 0 0 1 2520.6 3179)">Intrin and Common Duration for Different Dimensions and Data Types</text></g><g clip-path="url(#clip43)"><rect x="2700" y="4136" width="20" height="21" fill="#ED7D31"/></g><g clip-path="url(#clip44)"><text font-family="Arial,Arial_MSFontService,sans-serif" font-weight="400" font-size="41" transform="matrix(1 0 0 1 2729.11 4159)">Intrin Duration (ms) - Float 0</text></g><g clip-path="url(#clip45)"><rect x="3333" y="4136" width="20" height="21" fill="#A5A5A5"/></g><g clip-path="url(#clip46)"><text font-family="Arial,Arial_MSFontService,sans-serif" font-weight="400" font-size="41" transform="matrix(1 0 0 1 3361.89 4159)">Intrin Duration (ms) - Float 1</text></g><g clip-path="url(#clip47)"><rect x="2700" y="4209" width="20" height="21" fill="#FFC000"/></g><g clip-path="url(#clip48)"><text font-family="Arial,Arial_MSFontService,sans-serif" font-weight="400" font-size="41" transform="matrix(1 0 0 1 2729.11 4232)">Common Duration (ms) - Float 0</text></g><g clip-path="url(#clip49)"><rect x="3333" y="4209" width="20" height="21" fill="#5B9BD5"/></g><g clip-path="url(#clip50)"><text font-family="Arial,Arial_MSFontService,sans-serif" font-weight="400" font-size="41" transform="matrix(1 0 0 1 3361.89 4232)">Common Duration (ms) - Float 1</text></g><rect x="2279.5" y="3099.5" width="2079" height="1178" stroke="#D9D9D9" stroke-width="3.4375" stroke-linejoin="round" stroke-miterlimit="10" fill="none"/></g></svg>