<svg width="2496" height="1483" xmlns="http://www.w3.org/2000/svg" xmlns:xlink="http://www.w3.org/1999/xlink" xml:space="preserve" overflow="hidden"><defs><clipPath id="clip0"><rect x="2435" y="6619" width="2496" height="1483"/></clipPath><clipPath id="clip1"><rect x="2434" y="6618" width="2497" height="1483"/></clipPath><clipPath id="clip2"><rect x="2434" y="6618" width="2497" height="1483"/></clipPath><clipPath id="clip3"><rect x="2434" y="6618" width="2497" height="1483"/></clipPath><clipPath id="clip4"><rect x="2722" y="6911" width="2162" height="760"/></clipPath><clipPath id="clip5"><rect x="2434" y="6618" width="2497" height="1483"/></clipPath><clipPath id="clip6"><rect x="2722" y="6911" width="2162" height="760"/></clipPath><clipPath id="clip7"><rect x="2434" y="6618" width="2497" height="1483"/></clipPath><clipPath id="clip8"><rect x="2722" y="6911" width="2162" height="760"/></clipPath><clipPath id="clip9"><rect x="2434" y="6618" width="2497" height="1483"/></clipPath><clipPath id="clip10"><rect x="2722" y="6911" width="2162" height="760"/></clipPath><clipPath id="clip11"><rect x="2434" y="6618" width="2497" height="1483"/></clipPath><clipPath id="clip12"><rect x="2434" y="6618" width="2497" height="1483"/></clipPath><clipPath id="clip13"><rect x="2434" y="6618" width="2497" height="1483"/></clipPath><clipPath id="clip14"><rect x="2434" y="6618" width="2497" height="1483"/></clipPath><clipPath id="clip15"><rect x="2434" y="6618" width="2497" height="1483"/></clipPath><clipPath id="clip16"><rect x="2434" y="6618" width="2497" height="1483"/></clipPath><clipPath id="clip17"><rect x="2434" y="6618" width="2497" height="1483"/></clipPath><clipPath id="clip18"><rect x="2434" y="6618" width="2497" height="1483"/></clipPath><clipPath id="clip19"><rect x="2434" y="6618" width="2497" height="1483"/></clipPath><clipPath id="clip20"><rect x="2434" y="6618" width="2497" height="1483"/></clipPath><clipPath id="clip21"><rect x="2434" y="6618" width="2497" height="1483"/></clipPath><clipPath id="clip22"><rect x="2434" y="6618" width="2497" height="1483"/></clipPath><clipPath id="clip23"><rect x="2434" y="6618" width="2497" height="1483"/></clipPath><clipPath id="clip24"><rect x="2434" y="6618" width="2497" height="1483"/></clipPath><clipPath id="clip25"><rect x="2434" y="6618" width="2497" height="1483"/></clipPath><clipPath id="clip26"><rect x="2434" y="6618" width="2497" height="1483"/></clipPath><clipPath id="clip27"><rect x="2434" y="6618" width="2497" height="1483"/></clipPath><clipPath id="clip28"><rect x="2434" y="6618" width="2497" height="1483"/></clipPath><clipPath id="clip29"><rect x="2434" y="6618" width="2497" height="1483"/></clipPath><clipPath id="clip30"><rect x="2434" y="6618" width="2497" height="1483"/></clipPath><clipPath id="clip31"><rect x="2434" y="6618" width="2497" height="1483"/></clipPath><clipPath id="clip32"><rect x="2434" y="6618" width="2497" height="1483"/></clipPath><clipPath id="clip33"><rect x="2434" y="6618" width="2497" height="1483"/></clipPath><clipPath id="clip34"><rect x="2434" y="6618" width="2497" height="1483"/></clipPath><clipPath id="clip35"><rect x="2434" y="6618" width="2497" height="1483"/></clipPath><clipPath id="clip36"><rect x="2434" y="6618" width="2497" height="1483"/></clipPath><clipPath id="clip37"><rect x="2434" y="6618" width="2497" height="1483"/></clipPath><clipPath id="clip38"><rect x="2434" y="6618" width="2497" height="1483"/></clipPath><clipPath id="clip39"><rect x="2434" y="6618" width="2497" height="1483"/></clipPath><clipPath id="clip40"><rect x="2434" y="6618" width="2497" height="1483"/></clipPath><clipPath id="clip41"><rect x="2434" y="6618" width="2497" height="1483"/></clipPath><clipPath id="clip42"><rect x="2434" y="6618" width="2497" height="1483"/></clipPath><clipPath id="clip43"><rect x="2434" y="6618" width="2497" height="1483"/></clipPath><clipPath id="clip44"><rect x="2434" y="6618" width="2497" height="1483"/></clipPath><clipPath id="clip45"><rect x="2434" y="6618" width="2497" height="1483"/></clipPath><clipPath id="clip46"><rect x="2434" y="6618" width="2497" height="1483"/></clipPath><clipPath id="clip47"><rect x="2434" y="6618" width="2497" height="1483"/></clipPath><clipPath id="clip48"><rect x="2434" y="6618" width="2497" height="1483"/></clipPath><clipPath id="clip49"><rect x="2434" y="6618" width="2497" height="1483"/></clipPath><clipPath id="clip50"><rect x="2434" y="6618" width="2497" height="1483"/></clipPath><clipPath id="clip51"><rect x="2434" y="6618" width="2497" height="1483"/></clipPath><clipPath id="clip52"><rect x="2434" y="6618" width="2497" height="1483"/></clipPath><clipPath id="clip53"><rect x="2434" y="6618" width="2497" height="1483"/></clipPath><clipPath id="clip54"><rect x="2434" y="6618" width="2497" height="1483"/></clipPath><clipPath id="clip55"><rect x="2434" y="6618" width="2497" height="1483"/></clipPath></defs><g clip-path="url(#clip0)" transform="translate(-2435 -6619)"><rect x="2435" y="6619" width="2496" height="1483" fill="#FFFFFF"/><g clip-path="url(#clip1)"><path d="M2722.5 7649.75 4880.5 7649.75M2722.5 7630.75 4880.5 7630.75M2722.5 7611.75 4880.5 7611.75M2722.5 7592.75 4880.5 7592.75M2722.5 7554.75 4880.5 7554.75M2722.5 7535.75 4880.5 7535.75M2722.5 7516.75 4880.5 7516.75M2722.5 7497.75 4880.5 7497.75M2722.5 7460.75 4880.5 7460.75M2722.5 7441.74 4880.5 7441.74M2722.5 7422.74 4880.5 7422.74M2722.5 7403.74 4880.5 7403.74M2722.5 7365.74 4880.5 7365.74M2722.5 7346.74 4880.5 7346.74M2722.5 7327.74 4880.5 7327.74M2722.5 7308.74 4880.5 7308.74M2722.5 7270.74 4880.5 7270.74M2722.5 7252.74 4880.5 7252.74M2722.5 7233.74 4880.5 7233.74M2722.5 7214.74 4880.5 7214.74M2722.5 7176.74 4880.5 7176.74M2722.5 7157.73 4880.5 7157.73M2722.5 7138.73 4880.5 7138.73M2722.5 7119.73 4880.5 7119.73M2722.5 7081.73 4880.5 7081.73M2722.5 7063.73 4880.5 7063.73M2722.5 7044.73 4880.5 7044.73M2722.5 7025.73 4880.5 7025.73M2722.5 6987.73 4880.5 6987.73M2722.5 6968.73 4880.5 6968.73M2722.5 6949.73 4880.5 6949.73M2722.5 6930.73 4880.5 6930.73" stroke="#F2F2F2" stroke-width="3.4375" stroke-linejoin="round" stroke-miterlimit="10" fill="none"/></g><g clip-path="url(#clip2)"><path d="M2722.5 7573.75 4880.5 7573.75M2722.5 7478.75 4880.5 7478.75M2722.5 7384.74 4880.5 7384.74M2722.5 7289.74 4880.5 7289.74M2722.5 7195.74 4880.5 7195.74M2722.5 7100.73 4880.5 7100.73M2722.5 7006.73 4880.5 7006.73M2722.5 6911.5 4880.5 6911.5" stroke="#D9D9D9" stroke-width="3.4375" stroke-linejoin="round" stroke-miterlimit="10" fill="none"/></g><g clip-path="url(#clip3)"><path d="M2722.5 7668.5 4880.5 7668.5" stroke="#D9D9D9" stroke-width="3.4375" stroke-linejoin="round" stroke-miterlimit="10" fill="none" fill-rule="evenodd"/></g><g clip-path="url(#clip4)"><path d="M2780 6992 2893.09 6992.23 3007.1 6993.23 3120.1 6992.23 3234.11 7223.24 3347.11 7405.24 3461.11 7527.25 3575.12 7570.25 3688.12 7592.25 3802.12 7605.25 3915.13 7620.25 4029.13 7632.25 4142.14 7638.25 4256.14 7643.25 4370.14 7648.25 4483.15 7651.25 4597.15 7653.25 4710.15 7657.25 4824 7658" stroke="#A5A5A5" stroke-width="10.3125" stroke-linecap="round" stroke-linejoin="round" stroke-miterlimit="10" fill="none"/></g><g clip-path="url(#clip5)"><path d="M2790.06 6991.37C2790.06 6997.45 2785.13 7002.37 2779.06 7002.37 2772.98 7002.37 2768.06 6997.45 2768.06 6991.37 2768.06 6985.3 2772.98 6980.37 2779.06 6980.37 2785.13 6980.37 2790.06 6985.3 2790.06 6991.37Z" stroke="#A5A5A5" stroke-width="3.4375" stroke-linejoin="round" stroke-miterlimit="10" fill="#A5A5A5"/><path d="M2904.06 6992.37C2904.06 6998.45 2899.13 7003.37 2893.06 7003.37 2886.98 7003.37 2882.06 6998.45 2882.06 6992.37 2882.06 6986.3 2886.98 6981.37 2893.06 6981.37 2899.13 6981.37 2904.06 6986.3 2904.06 6992.37Z" stroke="#A5A5A5" stroke-width="3.4375" stroke-linejoin="round" stroke-miterlimit="10" fill="#A5A5A5"/><path d="M3017.06 6992.37C3017.06 6998.45 3012.13 7003.37 3006.06 7003.37 2999.98 7003.37 2995.06 6998.45 2995.06 6992.37 2995.06 6986.3 2999.98 6981.37 3006.06 6981.37 3012.13 6981.37 3017.06 6986.3 3017.06 6992.37Z" stroke="#A5A5A5" stroke-width="3.4375" stroke-linejoin="round" stroke-miterlimit="10" fill="#A5A5A5"/><path d="M3131.06 6992.37C3131.06 6998.45 3126.13 7003.37 3120.06 7003.37 3113.98 7003.37 3109.06 6998.45 3109.06 6992.37 3109.06 6986.3 3113.98 6981.37 3120.06 6981.37 3126.13 6981.37 3131.06 6986.3 3131.06 6992.37Z" stroke="#A5A5A5" stroke-width="3.4375" stroke-linejoin="round" stroke-miterlimit="10" fill="#A5A5A5"/><path d="M3244.06 7222.37C3244.06 7228.45 3239.13 7233.37 3233.06 7233.37 3226.98 7233.37 3222.06 7228.45 3222.06 7222.37 3222.06 7216.3 3226.98 7211.37 3233.06 7211.37 3239.13 7211.37 3244.06 7216.3 3244.06 7222.37Z" stroke="#A5A5A5" stroke-width="3.4375" stroke-linejoin="round" stroke-miterlimit="10" fill="#A5A5A5"/><path d="M3358.06 7405.37C3358.06 7411.45 3353.13 7416.37 3347.06 7416.37 3340.98 7416.37 3336.06 7411.45 3336.06 7405.37 3336.06 7399.3 3340.98 7394.37 3347.06 7394.37 3353.13 7394.37 3358.06 7399.3 3358.06 7405.37Z" stroke="#A5A5A5" stroke-width="3.4375" stroke-linejoin="round" stroke-miterlimit="10" fill="#A5A5A5"/><path d="M3472.06 7527.37C3472.06 7533.45 3467.13 7538.37 3461.06 7538.37 3454.98 7538.37 3450.06 7533.45 3450.06 7527.37 3450.06 7521.3 3454.98 7516.37 3461.06 7516.37 3467.13 7516.37 3472.06 7521.3 3472.06 7527.37Z" stroke="#A5A5A5" stroke-width="3.4375" stroke-linejoin="round" stroke-miterlimit="10" fill="#A5A5A5"/><path d="M3585.06 7570.37C3585.06 7576.45 3580.13 7581.37 3574.06 7581.37 3567.98 7581.37 3563.06 7576.45 3563.06 7570.37 3563.06 7564.3 3567.98 7559.37 3574.06 7559.37 3580.13 7559.37 3585.06 7564.3 3585.06 7570.37Z" stroke="#A5A5A5" stroke-width="3.4375" stroke-linejoin="round" stroke-miterlimit="10" fill="#A5A5A5"/><path d="M3699.06 7592.37C3699.06 7598.45 3694.13 7603.37 3688.06 7603.37 3681.98 7603.37 3677.06 7598.45 3677.06 7592.37 3677.06 7586.3 3681.98 7581.37 3688.06 7581.37 3694.13 7581.37 3699.06 7586.3 3699.06 7592.37Z" stroke="#A5A5A5" stroke-width="3.4375" stroke-linejoin="round" stroke-miterlimit="10" fill="#A5A5A5"/><path d="M3812.06 7605.37C3812.06 7611.45 3807.13 7616.37 3801.06 7616.37 3794.98 7616.37 3790.06 7611.45 3790.06 7605.37 3790.06 7599.3 3794.98 7594.37 3801.06 7594.37 3807.13 7594.37 3812.06 7599.3 3812.06 7605.37Z" stroke="#A5A5A5" stroke-width="3.4375" stroke-linejoin="round" stroke-miterlimit="10" fill="#A5A5A5"/><path d="M3926.06 7620.37C3926.06 7626.45 3921.13 7631.37 3915.06 7631.37 3908.98 7631.37 3904.06 7626.45 3904.06 7620.37 3904.06 7614.3 3908.98 7609.37 3915.06 7609.37 3921.13 7609.37 3926.06 7614.3 3926.06 7620.37Z" stroke="#A5A5A5" stroke-width="3.4375" stroke-linejoin="round" stroke-miterlimit="10" fill="#A5A5A5"/><path d="M4039.06 7631.37C4039.06 7637.45 4034.13 7642.37 4028.06 7642.37 4021.98 7642.37 4017.06 7637.45 4017.06 7631.37 4017.06 7625.3 4021.98 7620.37 4028.06 7620.37 4034.13 7620.37 4039.06 7625.3 4039.06 7631.37Z" stroke="#A5A5A5" stroke-width="3.4375" stroke-linejoin="round" stroke-miterlimit="10" fill="#A5A5A5"/><path d="M4153.06 7638.37C4153.06 7644.45 4148.13 7649.37 4142.06 7649.37 4135.98 7649.37 4131.06 7644.45 4131.06 7638.37 4131.06 7632.3 4135.98 7627.37 4142.06 7627.37 4148.13 7627.37 4153.06 7632.3 4153.06 7638.37Z" stroke="#A5A5A5" stroke-width="3.4375" stroke-linejoin="round" stroke-miterlimit="10" fill="#A5A5A5"/><path d="M4267.06 7642.37C4267.06 7648.45 4262.13 7653.37 4256.06 7653.37 4249.98 7653.37 4245.06 7648.45 4245.06 7642.37 4245.06 7636.3 4249.98 7631.37 4256.06 7631.37 4262.13 7631.37 4267.06 7636.3 4267.06 7642.37Z" stroke="#A5A5A5" stroke-width="3.4375" stroke-linejoin="round" stroke-miterlimit="10" fill="#A5A5A5"/><path d="M4380.06 7648.37C4380.06 7654.45 4375.13 7659.37 4369.06 7659.37 4362.98 7659.37 4358.06 7654.45 4358.06 7648.37 4358.06 7642.3 4362.98 7637.37 4369.06 7637.37 4375.13 7637.37 4380.06 7642.3 4380.06 7648.37Z" stroke="#A5A5A5" stroke-width="3.4375" stroke-linejoin="round" stroke-miterlimit="10" fill="#A5A5A5"/><path d="M4494.06 7651.37C4494.06 7657.45 4489.13 7662.37 4483.06 7662.37 4476.98 7662.37 4472.06 7657.45 4472.06 7651.37 4472.06 7645.3 4476.98 7640.37 4483.06 7640.37 4489.13 7640.37 4494.06 7645.3 4494.06 7651.37Z" stroke="#A5A5A5" stroke-width="3.4375" stroke-linejoin="round" stroke-miterlimit="10" fill="#A5A5A5"/><path d="M4607.06 7653.37C4607.06 7659.45 4602.13 7664.37 4596.06 7664.37 4589.98 7664.37 4585.06 7659.45 4585.06 7653.37 4585.06 7647.3 4589.98 7642.37 4596.06 7642.37 4602.13 7642.37 4607.06 7647.3 4607.06 7653.37Z" stroke="#A5A5A5" stroke-width="3.4375" stroke-linejoin="round" stroke-miterlimit="10" fill="#A5A5A5"/><path d="M4721.06 7657.37C4721.06 7663.45 4716.13 7668.37 4710.06 7668.37 4703.98 7668.37 4699.06 7663.45 4699.06 7657.37 4699.06 7651.3 4703.98 7646.37 4710.06 7646.37 4716.13 7646.37 4721.06 7651.3 4721.06 7657.37Z" stroke="#A5A5A5" stroke-width="3.4375" stroke-linejoin="round" stroke-miterlimit="10" fill="#A5A5A5"/><path d="M4834.06 7657.37C4834.06 7663.45 4829.13 7668.37 4823.06 7668.37 4816.98 7668.37 4812.06 7663.45 4812.06 7657.37 4812.06 7651.3 4816.98 7646.37 4823.06 7646.37 4829.13 7646.37 4834.06 7651.3 4834.06 7657.37Z" stroke="#A5A5A5" stroke-width="3.4375" stroke-linejoin="round" stroke-miterlimit="10" fill="#A5A5A5"/></g><g clip-path="url(#clip6)"><path d="M2780 7224 2893.09 7228.24 3007.1 7234.24 3120.1 7238.24 3234.11 7254.24 3347.11 7255.24 3461.11 7256.24 3575.12 7259.24 3688.12 7299.24 3802.12 7358.24 3915.13 7436.24 4029.13 7501.25 4142.14 7536.25 4256.14 7565.25 4370.14 7594.25 4483.15 7613.25 4597.15 7626.25 4710.15 7641.25 4824 7651" stroke="#5B9BD5" stroke-width="10.3125" stroke-linecap="round" stroke-linejoin="round" stroke-miterlimit="10" fill="none"/></g><g clip-path="url(#clip7)"><path d="M2790.06 7224.37C2790.06 7230.45 2785.13 7235.37 2779.06 7235.37 2772.98 7235.37 2768.06 7230.45 2768.06 7224.37 2768.06 7218.3 2772.98 7213.37 2779.06 7213.37 2785.13 7213.37 2790.06 7218.3 2790.06 7224.37Z" stroke="#5B9BD5" stroke-width="3.4375" stroke-linejoin="round" stroke-miterlimit="10" fill="#5B9BD5"/><path d="M2904.06 7227.37C2904.06 7233.45 2899.13 7238.37 2893.06 7238.37 2886.98 7238.37 2882.06 7233.45 2882.06 7227.37 2882.06 7221.3 2886.98 7216.37 2893.06 7216.37 2899.13 7216.37 2904.06 7221.3 2904.06 7227.37Z" stroke="#5B9BD5" stroke-width="3.4375" stroke-linejoin="round" stroke-miterlimit="10" fill="#5B9BD5"/><path d="M3017.06 7234.37C3017.06 7240.45 3012.13 7245.37 3006.06 7245.37 2999.98 7245.37 2995.06 7240.45 2995.06 7234.37 2995.06 7228.3 2999.98 7223.37 3006.06 7223.37 3012.13 7223.37 3017.06 7228.3 3017.06 7234.37Z" stroke="#5B9BD5" stroke-width="3.4375" stroke-linejoin="round" stroke-miterlimit="10" fill="#5B9BD5"/><path d="M3131.06 7238.37C3131.06 7244.45 3126.13 7249.37 3120.06 7249.37 3113.98 7249.37 3109.06 7244.45 3109.06 7238.37 3109.06 7232.3 3113.98 7227.37 3120.06 7227.37 3126.13 7227.37 3131.06 7232.3 3131.06 7238.37Z" stroke="#5B9BD5" stroke-width="3.4375" stroke-linejoin="round" stroke-miterlimit="10" fill="#5B9BD5"/><path d="M3244.06 7254.37C3244.06 7260.45 3239.13 7265.37 3233.06 7265.37 3226.98 7265.37 3222.06 7260.45 3222.06 7254.37 3222.06 7248.3 3226.98 7243.37 3233.06 7243.37 3239.13 7243.37 3244.06 7248.3 3244.06 7254.37Z" stroke="#5B9BD5" stroke-width="3.4375" stroke-linejoin="round" stroke-miterlimit="10" fill="#5B9BD5"/><path d="M3358.06 7255.37C3358.06 7261.45 3353.13 7266.37 3347.06 7266.37 3340.98 7266.37 3336.06 7261.45 3336.06 7255.37 3336.06 7249.3 3340.98 7244.37 3347.06 7244.37 3353.13 7244.37 3358.06 7249.3 3358.06 7255.37Z" stroke="#5B9BD5" stroke-width="3.4375" stroke-linejoin="round" stroke-miterlimit="10" fill="#5B9BD5"/><path d="M3472.06 7256.37C3472.06 7262.45 3467.13 7267.37 3461.06 7267.37 3454.98 7267.37 3450.06 7262.45 3450.06 7256.37 3450.06 7250.3 3454.98 7245.37 3461.06 7245.37 3467.13 7245.37 3472.06 7250.3 3472.06 7256.37Z" stroke="#5B9BD5" stroke-width="3.4375" stroke-linejoin="round" stroke-miterlimit="10" fill="#5B9BD5"/><path d="M3585.06 7258.37C3585.06 7264.45 3580.13 7269.37 3574.06 7269.37 3567.98 7269.37 3563.06 7264.45 3563.06 7258.37 3563.06 7252.3 3567.98 7247.37 3574.06 7247.37 3580.13 7247.37 3585.06 7252.3 3585.06 7258.37Z" stroke="#5B9BD5" stroke-width="3.4375" stroke-linejoin="round" stroke-miterlimit="10" fill="#5B9BD5"/><path d="M3699.06 7299.37C3699.06 7305.45 3694.13 7310.37 3688.06 7310.37 3681.98 7310.37 3677.06 7305.45 3677.06 7299.37 3677.06 7293.3 3681.98 7288.37 3688.06 7288.37 3694.13 7288.37 3699.06 7293.3 3699.06 7299.37Z" stroke="#5B9BD5" stroke-width="3.4375" stroke-linejoin="round" stroke-miterlimit="10" fill="#5B9BD5"/><path d="M3812.06 7357.37C3812.06 7363.45 3807.13 7368.37 3801.06 7368.37 3794.98 7368.37 3790.06 7363.45 3790.06 7357.37 3790.06 7351.3 3794.98 7346.37 3801.06 7346.37 3807.13 7346.37 3812.06 7351.3 3812.06 7357.37Z" stroke="#5B9BD5" stroke-width="3.4375" stroke-linejoin="round" stroke-miterlimit="10" fill="#5B9BD5"/><path d="M3926.06 7436.37C3926.06 7442.45 3921.13 7447.37 3915.06 7447.37 3908.98 7447.37 3904.06 7442.45 3904.06 7436.37 3904.06 7430.3 3908.98 7425.37 3915.06 7425.37 3921.13 7425.37 3926.06 7430.3 3926.06 7436.37Z" stroke="#5B9BD5" stroke-width="3.4375" stroke-linejoin="round" stroke-miterlimit="10" fill="#5B9BD5"/><path d="M4039.06 7500.37C4039.06 7506.45 4034.13 7511.37 4028.06 7511.37 4021.98 7511.37 4017.06 7506.45 4017.06 7500.37 4017.06 7494.3 4021.98 7489.37 4028.06 7489.37 4034.13 7489.37 4039.06 7494.3 4039.06 7500.37Z" stroke="#5B9BD5" stroke-width="3.4375" stroke-linejoin="round" stroke-miterlimit="10" fill="#5B9BD5"/><path d="M4153.06 7536.37C4153.06 7542.45 4148.13 7547.37 4142.06 7547.37 4135.98 7547.37 4131.06 7542.45 4131.06 7536.37 4131.06 7530.3 4135.98 7525.37 4142.06 7525.37 4148.13 7525.37 4153.06 7530.3 4153.06 7536.37Z" stroke="#5B9BD5" stroke-width="3.4375" stroke-linejoin="round" stroke-miterlimit="10" fill="#5B9BD5"/><path d="M4267.06 7565.37C4267.06 7571.45 4262.13 7576.37 4256.06 7576.37 4249.98 7576.37 4245.06 7571.45 4245.06 7565.37 4245.06 7559.3 4249.98 7554.37 4256.06 7554.37 4262.13 7554.37 4267.06 7559.3 4267.06 7565.37Z" stroke="#5B9BD5" stroke-width="3.4375" stroke-linejoin="round" stroke-miterlimit="10" fill="#5B9BD5"/><path d="M4380.06 7594.37C4380.06 7600.45 4375.13 7605.37 4369.06 7605.37 4362.98 7605.37 4358.06 7600.45 4358.06 7594.37 4358.06 7588.3 4362.98 7583.37 4369.06 7583.37 4375.13 7583.37 4380.06 7588.3 4380.06 7594.37Z" stroke="#5B9BD5" stroke-width="3.4375" stroke-linejoin="round" stroke-miterlimit="10" fill="#5B9BD5"/><path d="M4494.06 7612.37C4494.06 7618.45 4489.13 7623.37 4483.06 7623.37 4476.98 7623.37 4472.06 7618.45 4472.06 7612.37 4472.06 7606.3 4476.98 7601.37 4483.06 7601.37 4489.13 7601.37 4494.06 7606.3 4494.06 7612.37Z" stroke="#5B9BD5" stroke-width="3.4375" stroke-linejoin="round" stroke-miterlimit="10" fill="#5B9BD5"/><path d="M4607.06 7626.37C4607.06 7632.45 4602.13 7637.37 4596.06 7637.37 4589.98 7637.37 4585.06 7632.45 4585.06 7626.37 4585.06 7620.3 4589.98 7615.37 4596.06 7615.37 4602.13 7615.37 4607.06 7620.3 4607.06 7626.37Z" stroke="#5B9BD5" stroke-width="3.4375" stroke-linejoin="round" stroke-miterlimit="10" fill="#5B9BD5"/><path d="M4721.06 7640.37C4721.06 7646.45 4716.13 7651.37 4710.06 7651.37 4703.98 7651.37 4699.06 7646.45 4699.06 7640.37 4699.06 7634.3 4703.98 7629.37 4710.06 7629.37 4716.13 7629.37 4721.06 7634.3 4721.06 7640.37Z" stroke="#5B9BD5" stroke-width="3.4375" stroke-linejoin="round" stroke-miterlimit="10" fill="#5B9BD5"/><path d="M4834.06 7650.37C4834.06 7656.45 4829.13 7661.37 4823.06 7661.37 4816.98 7661.37 4812.06 7656.45 4812.06 7650.37 4812.06 7644.3 4816.98 7639.37 4823.06 7639.37 4829.13 7639.37 4834.06 7644.3 4834.06 7650.37Z" stroke="#5B9BD5" stroke-width="3.4375" stroke-linejoin="round" stroke-miterlimit="10" fill="#5B9BD5"/></g><g clip-path="url(#clip8)"><path d="M2780 7199 2893.09 7199.24 3007.1 7206.24 3120.1 7214.24 3234.11 7201.24 3347.11 7204.24 3461.11 7230.24 3575.12 7331.24 3688.12 7404.24 3802.12 7451.24 3915.13 7508.25 4029.13 7552.25 4142.14 7576.25 4256.14 7596.25 4370.14 7616.25 4483.15 7628.25 4597.15 7637.25 4710.15 7647.25 4824 7654" stroke="#264478" stroke-width="10.3125" stroke-linecap="round" stroke-linejoin="round" stroke-miterlimit="10" fill="none"/></g><g clip-path="url(#clip9)"><path d="M2790.06 7199.37C2790.06 7205.45 2785.13 7210.37 2779.06 7210.37 2772.98 7210.37 2768.06 7205.45 2768.06 7199.37 2768.06 7193.3 2772.98 7188.37 2779.06 7188.37 2785.13 7188.37 2790.06 7193.3 2790.06 7199.37Z" stroke="#264478" stroke-width="3.4375" stroke-linejoin="round" stroke-miterlimit="10" fill="#264478"/><path d="M2904.06 7199.37C2904.06 7205.45 2899.13 7210.37 2893.06 7210.37 2886.98 7210.37 2882.06 7205.45 2882.06 7199.37 2882.06 7193.3 2886.98 7188.37 2893.06 7188.37 2899.13 7188.37 2904.06 7193.3 2904.06 7199.37Z" stroke="#264478" stroke-width="3.4375" stroke-linejoin="round" stroke-miterlimit="10" fill="#264478"/><path d="M3017.06 7206.37C3017.06 7212.45 3012.13 7217.37 3006.06 7217.37 2999.98 7217.37 2995.06 7212.45 2995.06 7206.37 2995.06 7200.3 2999.98 7195.37 3006.06 7195.37 3012.13 7195.37 3017.06 7200.3 3017.06 7206.37Z" stroke="#264478" stroke-width="3.4375" stroke-linejoin="round" stroke-miterlimit="10" fill="#264478"/><path d="M3131.06 7213.37C3131.06 7219.45 3126.13 7224.37 3120.06 7224.37 3113.98 7224.37 3109.06 7219.45 3109.06 7213.37 3109.06 7207.3 3113.98 7202.37 3120.06 7202.37 3126.13 7202.37 3131.06 7207.3 3131.06 7213.37Z" stroke="#264478" stroke-width="3.4375" stroke-linejoin="round" stroke-miterlimit="10" fill="#264478"/><path d="M3244.06 7201.37C3244.06 7207.45 3239.13 7212.37 3233.06 7212.37 3226.98 7212.37 3222.06 7207.45 3222.06 7201.37 3222.06 7195.3 3226.98 7190.37 3233.06 7190.37 3239.13 7190.37 3244.06 7195.3 3244.06 7201.37Z" stroke="#264478" stroke-width="3.4375" stroke-linejoin="round" stroke-miterlimit="10" fill="#264478"/><path d="M3358.06 7204.37C3358.06 7210.45 3353.13 7215.37 3347.06 7215.37 3340.98 7215.37 3336.06 7210.45 3336.06 7204.37 3336.06 7198.3 3340.98 7193.37 3347.06 7193.37 3353.13 7193.37 3358.06 7198.3 3358.06 7204.37Z" stroke="#264478" stroke-width="3.4375" stroke-linejoin="round" stroke-miterlimit="10" fill="#264478"/><path d="M3472.06 7229.37C3472.06 7235.45 3467.13 7240.37 3461.06 7240.37 3454.98 7240.37 3450.06 7235.45 3450.06 7229.37 3450.06 7223.3 3454.98 7218.37 3461.06 7218.37 3467.13 7218.37 3472.06 7223.3 3472.06 7229.37Z" stroke="#264478" stroke-width="3.4375" stroke-linejoin="round" stroke-miterlimit="10" fill="#264478"/><path d="M3585.06 7330.37C3585.06 7336.45 3580.13 7341.37 3574.06 7341.37 3567.98 7341.37 3563.06 7336.45 3563.06 7330.37 3563.06 7324.3 3567.98 7319.37 3574.06 7319.37 3580.13 7319.37 3585.06 7324.3 3585.06 7330.37Z" stroke="#264478" stroke-width="3.4375" stroke-linejoin="round" stroke-miterlimit="10" fill="#264478"/><path d="M3699.06 7404.37C3699.06 7410.45 3694.13 7415.37 3688.06 7415.37 3681.98 7415.37 3677.06 7410.45 3677.06 7404.37 3677.06 7398.3 3681.98 7393.37 3688.06 7393.37 3694.13 7393.37 3699.06 7398.3 3699.06 7404.37Z" stroke="#264478" stroke-width="3.4375" stroke-linejoin="round" stroke-miterlimit="10" fill="#264478"/><path d="M3812.06 7451.37C3812.06 7457.45 3807.13 7462.37 3801.06 7462.37 3794.98 7462.37 3790.06 7457.45 3790.06 7451.37 3790.06 7445.3 3794.98 7440.37 3801.06 7440.37 3807.13 7440.37 3812.06 7445.3 3812.06 7451.37Z" stroke="#264478" stroke-width="3.4375" stroke-linejoin="round" stroke-miterlimit="10" fill="#264478"/><path d="M3926.06 7508.37C3926.06 7514.45 3921.13 7519.37 3915.06 7519.37 3908.98 7519.37 3904.06 7514.45 3904.06 7508.37 3904.06 7502.3 3908.98 7497.37 3915.06 7497.37 3921.13 7497.37 3926.06 7502.3 3926.06 7508.37Z" stroke="#264478" stroke-width="3.4375" stroke-linejoin="round" stroke-miterlimit="10" fill="#264478"/><path d="M4039.06 7552.37C4039.06 7558.45 4034.13 7563.37 4028.06 7563.37 4021.98 7563.37 4017.06 7558.45 4017.06 7552.37 4017.06 7546.3 4021.98 7541.37 4028.06 7541.37 4034.13 7541.37 4039.06 7546.3 4039.06 7552.37Z" stroke="#264478" stroke-width="3.4375" stroke-linejoin="round" stroke-miterlimit="10" fill="#264478"/><path d="M4153.06 7576.37C4153.06 7582.45 4148.13 7587.37 4142.06 7587.37 4135.98 7587.37 4131.06 7582.45 4131.06 7576.37 4131.06 7570.3 4135.98 7565.37 4142.06 7565.37 4148.13 7565.37 4153.06 7570.3 4153.06 7576.37Z" stroke="#264478" stroke-width="3.4375" stroke-linejoin="round" stroke-miterlimit="10" fill="#264478"/><path d="M4267.06 7595.37C4267.06 7601.45 4262.13 7606.37 4256.06 7606.37 4249.98 7606.37 4245.06 7601.45 4245.06 7595.37 4245.06 7589.3 4249.98 7584.37 4256.06 7584.37 4262.13 7584.37 4267.06 7589.3 4267.06 7595.37Z" stroke="#264478" stroke-width="3.4375" stroke-linejoin="round" stroke-miterlimit="10" fill="#264478"/><path d="M4380.06 7615.37C4380.06 7621.45 4375.13 7626.37 4369.06 7626.37 4362.98 7626.37 4358.06 7621.45 4358.06 7615.37 4358.06 7609.3 4362.98 7604.37 4369.06 7604.37 4375.13 7604.37 4380.06 7609.3 4380.06 7615.37Z" stroke="#264478" stroke-width="3.4375" stroke-linejoin="round" stroke-miterlimit="10" fill="#264478"/><path d="M4494.06 7628.37C4494.06 7634.45 4489.13 7639.37 4483.06 7639.37 4476.98 7639.37 4472.06 7634.45 4472.06 7628.37 4472.06 7622.3 4476.98 7617.37 4483.06 7617.37 4489.13 7617.37 4494.06 7622.3 4494.06 7628.37Z" stroke="#264478" stroke-width="3.4375" stroke-linejoin="round" stroke-miterlimit="10" fill="#264478"/><path d="M4607.06 7637.37C4607.06 7643.45 4602.13 7648.37 4596.06 7648.37 4589.98 7648.37 4585.06 7643.45 4585.06 7637.37 4585.06 7631.3 4589.98 7626.37 4596.06 7626.37 4602.13 7626.37 4607.06 7631.3 4607.06 7637.37Z" stroke="#264478" stroke-width="3.4375" stroke-linejoin="round" stroke-miterlimit="10" fill="#264478"/><path d="M4721.06 7646.37C4721.06 7652.45 4716.13 7657.37 4710.06 7657.37 4703.98 7657.37 4699.06 7652.45 4699.06 7646.37 4699.06 7640.3 4703.98 7635.37 4710.06 7635.37 4716.13 7635.37 4721.06 7640.3 4721.06 7646.37Z" stroke="#264478" stroke-width="3.4375" stroke-linejoin="round" stroke-miterlimit="10" fill="#264478"/><path d="M4834.06 7653.37C4834.06 7659.45 4829.13 7664.37 4823.06 7664.37 4816.98 7664.37 4812.06 7659.45 4812.06 7653.37 4812.06 7647.3 4816.98 7642.37 4823.06 7642.37 4829.13 7642.37 4834.06 7647.3 4834.06 7653.37Z" stroke="#264478" stroke-width="3.4375" stroke-linejoin="round" stroke-miterlimit="10" fill="#264478"/></g><g clip-path="url(#clip10)"><path d="M2780 7250.24 2893.09 7243 3007.1 7258.24 3120.1 7265.24 3234.11 7288.24 3347.11 7289.24 3461.11 7294.24 3575.12 7348.24 3688.12 7413.24 3802.12 7457.24 3915.13 7511.25 4029.13 7553.25 4142.14 7577.25 4256.14 7596.25 4370.14 7616.25 4483.15 7628.25 4597.15 7638.25 4710.15 7647.25 4824 7654" stroke="#636363" stroke-width="10.3125" stroke-linecap="round" stroke-linejoin="round" stroke-miterlimit="10" fill="none"/></g><g clip-path="url(#clip11)"><path d="M2790.06 7250.37C2790.06 7256.45 2785.13 7261.37 2779.06 7261.37 2772.98 7261.37 2768.06 7256.45 2768.06 7250.37 2768.06 7244.3 2772.98 7239.37 2779.06 7239.37 2785.13 7239.37 2790.06 7244.3 2790.06 7250.37Z" stroke="#636363" stroke-width="3.4375" stroke-linejoin="round" stroke-miterlimit="10" fill="#636363"/><path d="M2904.06 7242.37C2904.06 7248.45 2899.13 7253.37 2893.06 7253.37 2886.98 7253.37 2882.06 7248.45 2882.06 7242.37 2882.06 7236.3 2886.98 7231.37 2893.06 7231.37 2899.13 7231.37 2904.06 7236.3 2904.06 7242.37Z" stroke="#636363" stroke-width="3.4375" stroke-linejoin="round" stroke-miterlimit="10" fill="#636363"/><path d="M3017.06 7257.37C3017.06 7263.45 3012.13 7268.37 3006.06 7268.37 2999.98 7268.37 2995.06 7263.45 2995.06 7257.37 2995.06 7251.3 2999.98 7246.37 3006.06 7246.37 3012.13 7246.37 3017.06 7251.3 3017.06 7257.37Z" stroke="#636363" stroke-width="3.4375" stroke-linejoin="round" stroke-miterlimit="10" fill="#636363"/><path d="M3131.06 7265.37C3131.06 7271.45 3126.13 7276.37 3120.06 7276.37 3113.98 7276.37 3109.06 7271.45 3109.06 7265.37 3109.06 7259.3 3113.98 7254.37 3120.06 7254.37 3126.13 7254.37 3131.06 7259.3 3131.06 7265.37Z" stroke="#636363" stroke-width="3.4375" stroke-linejoin="round" stroke-miterlimit="10" fill="#636363"/><path d="M3244.06 7287.37C3244.06 7293.45 3239.13 7298.37 3233.06 7298.37 3226.98 7298.37 3222.06 7293.45 3222.06 7287.37 3222.06 7281.3 3226.98 7276.37 3233.06 7276.37 3239.13 7276.37 3244.06 7281.3 3244.06 7287.37Z" stroke="#636363" stroke-width="3.4375" stroke-linejoin="round" stroke-miterlimit="10" fill="#636363"/><path d="M3358.06 7289.37C3358.06 7295.45 3353.13 7300.37 3347.06 7300.37 3340.98 7300.37 3336.06 7295.45 3336.06 7289.37 3336.06 7283.3 3340.98 7278.37 3347.06 7278.37 3353.13 7278.37 3358.06 7283.3 3358.06 7289.37Z" stroke="#636363" stroke-width="3.4375" stroke-linejoin="round" stroke-miterlimit="10" fill="#636363"/><path d="M3472.06 7293.37C3472.06 7299.45 3467.13 7304.37 3461.06 7304.37 3454.98 7304.37 3450.06 7299.45 3450.06 7293.37 3450.06 7287.3 3454.98 7282.37 3461.06 7282.37 3467.13 7282.37 3472.06 7287.3 3472.06 7293.37Z" stroke="#636363" stroke-width="3.4375" stroke-linejoin="round" stroke-miterlimit="10" fill="#636363"/><path d="M3585.06 7348.37C3585.06 7354.45 3580.13 7359.37 3574.06 7359.37 3567.98 7359.37 3563.06 7354.45 3563.06 7348.37 3563.06 7342.3 3567.98 7337.37 3574.06 7337.37 3580.13 7337.37 3585.06 7342.3 3585.06 7348.37Z" stroke="#636363" stroke-width="3.4375" stroke-linejoin="round" stroke-miterlimit="10" fill="#636363"/><path d="M3699.06 7412.37C3699.06 7418.45 3694.13 7423.37 3688.06 7423.37 3681.98 7423.37 3677.06 7418.45 3677.06 7412.37 3677.06 7406.3 3681.98 7401.37 3688.06 7401.37 3694.13 7401.37 3699.06 7406.3 3699.06 7412.37Z" stroke="#636363" stroke-width="3.4375" stroke-linejoin="round" stroke-miterlimit="10" fill="#636363"/><path d="M3812.06 7457.37C3812.06 7463.45 3807.13 7468.37 3801.06 7468.37 3794.98 7468.37 3790.06 7463.45 3790.06 7457.37 3790.06 7451.3 3794.98 7446.37 3801.06 7446.37 3807.13 7446.37 3812.06 7451.3 3812.06 7457.37Z" stroke="#636363" stroke-width="3.4375" stroke-linejoin="round" stroke-miterlimit="10" fill="#636363"/><path d="M3926.06 7511.37C3926.06 7517.45 3921.13 7522.37 3915.06 7522.37 3908.98 7522.37 3904.06 7517.45 3904.06 7511.37 3904.06 7505.3 3908.98 7500.37 3915.06 7500.37 3921.13 7500.37 3926.06 7505.3 3926.06 7511.37Z" stroke="#636363" stroke-width="3.4375" stroke-linejoin="round" stroke-miterlimit="10" fill="#636363"/><path d="M4039.06 7553.37C4039.06 7559.45 4034.13 7564.37 4028.06 7564.37 4021.98 7564.37 4017.06 7559.45 4017.06 7553.37 4017.06 7547.3 4021.98 7542.37 4028.06 7542.37 4034.13 7542.37 4039.06 7547.3 4039.06 7553.37Z" stroke="#636363" stroke-width="3.4375" stroke-linejoin="round" stroke-miterlimit="10" fill="#636363"/><path d="M4153.06 7577.37C4153.06 7583.45 4148.13 7588.37 4142.06 7588.37 4135.98 7588.37 4131.06 7583.45 4131.06 7577.37 4131.06 7571.3 4135.98 7566.37 4142.06 7566.37 4148.13 7566.37 4153.06 7571.3 4153.06 7577.37Z" stroke="#636363" stroke-width="3.4375" stroke-linejoin="round" stroke-miterlimit="10" fill="#636363"/><path d="M4267.06 7596.37C4267.06 7602.45 4262.13 7607.37 4256.06 7607.37 4249.98 7607.37 4245.06 7602.45 4245.06 7596.37 4245.06 7590.3 4249.98 7585.37 4256.06 7585.37 4262.13 7585.37 4267.06 7590.3 4267.06 7596.37Z" stroke="#636363" stroke-width="3.4375" stroke-linejoin="round" stroke-miterlimit="10" fill="#636363"/><path d="M4380.06 7616.37C4380.06 7622.45 4375.13 7627.37 4369.06 7627.37 4362.98 7627.37 4358.06 7622.45 4358.06 7616.37 4358.06 7610.3 4362.98 7605.37 4369.06 7605.37 4375.13 7605.37 4380.06 7610.3 4380.06 7616.37Z" stroke="#636363" stroke-width="3.4375" stroke-linejoin="round" stroke-miterlimit="10" fill="#636363"/><path d="M4494.06 7628.37C4494.06 7634.45 4489.13 7639.37 4483.06 7639.37 4476.98 7639.37 4472.06 7634.45 4472.06 7628.37 4472.06 7622.3 4476.98 7617.37 4483.06 7617.37 4489.13 7617.37 4494.06 7622.3 4494.06 7628.37Z" stroke="#636363" stroke-width="3.4375" stroke-linejoin="round" stroke-miterlimit="10" fill="#636363"/><path d="M4607.06 7637.37C4607.06 7643.45 4602.13 7648.37 4596.06 7648.37 4589.98 7648.37 4585.06 7643.45 4585.06 7637.37 4585.06 7631.3 4589.98 7626.37 4596.06 7626.37 4602.13 7626.37 4607.06 7631.3 4607.06 7637.37Z" stroke="#636363" stroke-width="3.4375" stroke-linejoin="round" stroke-miterlimit="10" fill="#636363"/><path d="M4721.06 7647.37C4721.06 7653.45 4716.13 7658.37 4710.06 7658.37 4703.98 7658.37 4699.06 7653.45 4699.06 7647.37 4699.06 7641.3 4703.98 7636.37 4710.06 7636.37 4716.13 7636.37 4721.06 7641.3 4721.06 7647.37Z" stroke="#636363" stroke-width="3.4375" stroke-linejoin="round" stroke-miterlimit="10" fill="#636363"/><path d="M4834.06 7653.37C4834.06 7659.45 4829.13 7664.37 4823.06 7664.37 4816.98 7664.37 4812.06 7659.45 4812.06 7653.37 4812.06 7647.3 4816.98 7642.37 4823.06 7642.37 4829.13 7642.37 4834.06 7647.3 4834.06 7653.37Z" stroke="#636363" stroke-width="3.4375" stroke-linejoin="round" stroke-miterlimit="10" fill="#636363"/></g><g clip-path="url(#clip12)"><text font-family="Arial,Arial_MSFontService,sans-serif" font-weight="400" font-size="41" transform="matrix(1 0 0 1 2664.51 7681)">0</text></g><g clip-path="url(#clip13)"><text font-family="Arial,Arial_MSFontService,sans-serif" font-weight="400" font-size="41" transform="matrix(1 0 0 1 2572.75 7586)">10000</text></g><g clip-path="url(#clip14)"><text font-family="Arial,Arial_MSFontService,sans-serif" font-weight="400" font-size="41" transform="matrix(1 0 0 1 2572.75 7492)">20000</text></g><g clip-path="url(#clip15)"><text font-family="Arial,Arial_MSFontService,sans-serif" font-weight="400" font-size="41" transform="matrix(1 0 0 1 2572.75 7397)">30000</text></g><g clip-path="url(#clip16)"><text font-family="Arial,Arial_MSFontService,sans-serif" font-weight="400" font-size="41" transform="matrix(1 0 0 1 2572.75 7303)">40000</text></g><g clip-path="url(#clip17)"><text font-family="Arial,Arial_MSFontService,sans-serif" font-weight="400" font-size="41" transform="matrix(1 0 0 1 2572.75 7208)">50000</text></g><g clip-path="url(#clip18)"><text font-family="Arial,Arial_MSFontService,sans-serif" font-weight="400" font-size="41" transform="matrix(1 0 0 1 2572.75 7114)">60000</text></g><g clip-path="url(#clip19)"><text font-family="Arial,Arial_MSFontService,sans-serif" font-weight="400" font-size="41" transform="matrix(1 0 0 1 2572.75 7019)">70000</text></g><g clip-path="url(#clip20)"><text font-family="Arial,Arial_MSFontService,sans-serif" font-weight="400" font-size="41" transform="matrix(1 0 0 1 2572.75 6925)">80000</text></g><g clip-path="url(#clip21)"><text font-family="Arial,Arial_MSFontService,sans-serif" font-weight="400" font-size="41" transform="matrix(0.707107 -0.707107 0.707107 0.707107 2773.36 7736)">0</text></g><g clip-path="url(#clip22)"><text font-family="Arial,Arial_MSFontService,sans-serif" font-weight="400" font-size="41" transform="matrix(0.707107 -0.707107 0.707107 0.707107 2886.93 7736)">2</text></g><g clip-path="url(#clip23)"><text font-family="Arial,Arial_MSFontService,sans-serif" font-weight="400" font-size="41" transform="matrix(0.707107 -0.707107 0.707107 0.707107 3000.5 7736)">8</text></g><g clip-path="url(#clip24)"><text font-family="Arial,Arial_MSFontService,sans-serif" font-weight="400" font-size="41" transform="matrix(0.707107 -0.707107 0.707107 0.707107 3097.84 7752)">15</text></g><g clip-path="url(#clip25)"><text font-family="Arial,Arial_MSFontService,sans-serif" font-weight="400" font-size="41" transform="matrix(0.707107 -0.707107 0.707107 0.707107 3211.41 7752)">50</text></g><g clip-path="url(#clip26)"><text font-family="Arial,Arial_MSFontService,sans-serif" font-weight="400" font-size="41" transform="matrix(0.707107 -0.707107 0.707107 0.707107 3308.76 7768)">100</text></g><g clip-path="url(#clip27)"><text font-family="Arial,Arial_MSFontService,sans-serif" font-weight="400" font-size="41" transform="matrix(0.707107 -0.707107 0.707107 0.707107 3422.33 7768)">200</text></g><g clip-path="url(#clip28)"><text font-family="Arial,Arial_MSFontService,sans-serif" font-weight="400" font-size="41" transform="matrix(0.707107 -0.707107 0.707107 0.707107 3535.9 7768)">300</text></g><g clip-path="url(#clip29)"><text font-family="Arial,Arial_MSFontService,sans-serif" font-weight="400" font-size="41" transform="matrix(0.707107 -0.707107 0.707107 0.707107 3649.46 7768)">400</text></g><g clip-path="url(#clip30)"><text font-family="Arial,Arial_MSFontService,sans-serif" font-weight="400" font-size="41" transform="matrix(0.707107 -0.707107 0.707107 0.707107 3763.03 7768)">500</text></g><g clip-path="url(#clip31)"><text font-family="Arial,Arial_MSFontService,sans-serif" font-weight="400" font-size="41" transform="matrix(0.707107 -0.707107 0.707107 0.707107 3876.6 7768)">700</text></g><g clip-path="url(#clip32)"><text font-family="Arial,Arial_MSFontService,sans-serif" font-weight="400" font-size="41" transform="matrix(0.707107 -0.707107 0.707107 0.707107 3973.95 7784)">1000</text></g><g clip-path="url(#clip33)"><text font-family="Arial,Arial_MSFontService,sans-serif" font-weight="400" font-size="41" transform="matrix(0.707107 -0.707107 0.707107 0.707107 4087.51 7784)">1300</text></g><g clip-path="url(#clip34)"><text font-family="Arial,Arial_MSFontService,sans-serif" font-weight="400" font-size="41" transform="matrix(0.707107 -0.707107 0.707107 0.707107 4201.08 7784)">1700</text></g><g clip-path="url(#clip35)"><text font-family="Arial,Arial_MSFontService,sans-serif" font-weight="400" font-size="41" transform="matrix(0.707107 -0.707107 0.707107 0.707107 4314.65 7784)">2500</text></g><g clip-path="url(#clip36)"><text font-family="Arial,Arial_MSFontService,sans-serif" font-weight="400" font-size="41" transform="matrix(0.707107 -0.707107 0.707107 0.707107 4428.22 7784)">3500</text></g><g clip-path="url(#clip37)"><text font-family="Arial,Arial_MSFontService,sans-serif" font-weight="400" font-size="41" transform="matrix(0.707107 -0.707107 0.707107 0.707107 4541.79 7784)">5000</text></g><g clip-path="url(#clip38)"><text font-family="Arial,Arial_MSFontService,sans-serif" font-weight="400" font-size="41" transform="matrix(0.707107 -0.707107 0.707107 0.707107 4655.35 7784)">9000</text></g><g clip-path="url(#clip39)"><text font-family="Arial,Arial_MSFontService,sans-serif" font-weight="400" font-size="41" transform="matrix(0.707107 -0.707107 0.707107 0.707107 4752.7 7800)">20000</text></g><g clip-path="url(#clip40)"><text font-family="Calibri,Calibri_MSFontService,sans-serif" font-weight="700" font-size="55" transform="matrix(6.12323e-17 -1 1 6.12323e-17 2543.85 7525)">Bandwidth (MB/sec)</text></g><g clip-path="url(#clip41)"><text font-family="Calibri,Calibri_MSFontService,sans-serif" font-weight="700" font-size="55" transform="matrix(1 0 0 1 3667.56 7873)">Inject Delay </text></g><g clip-path="url(#clip42)"><text font-family="Calibri,Calibri_MSFontService,sans-serif" font-weight="700" font-size="83" transform="matrix(1 0 0 1 2807.28 6732)">Correlation between Inject Delay and Bandwidth in </text></g><g clip-path="url(#clip43)"><text font-family="Calibri,Calibri_MSFontService,sans-serif" font-weight="700" font-size="83" transform="matrix(1 0 0 1 3187.26 6832)">Memory Systems (256 Bytes)</text></g><g clip-path="url(#clip44)"><path d="M2711 7979 2799 7979" stroke="#A5A5A5" stroke-width="10.3125" stroke-linecap="round" stroke-linejoin="round" stroke-miterlimit="10" fill="none" fill-rule="evenodd"/></g><g clip-path="url(#clip45)"><path d="M2762 7978.5C2762 7983.19 2758.19 7987 2753.5 7987 2748.81 7987 2745 7983.19 2745 7978.5 2745 7973.81 2748.81 7970 2753.5 7970 2758.19 7970 2762 7973.81 2762 7978.5Z" stroke="#A5A5A5" stroke-width="3.4375" stroke-linejoin="round" stroke-miterlimit="10" fill="#A5A5A5"/></g><g clip-path="url(#clip46)"><text font-family="Arial,Arial_MSFontService,sans-serif" font-weight="400" font-size="37" transform="matrix(1 0 0 1 2808.04 7990)">Bandwidth (MB/sec) 100% non-temporal write</text></g><g clip-path="url(#clip47)"><path d="M3697 7979 3785 7979" stroke="#5B9BD5" stroke-width="10.3125" stroke-linecap="round" stroke-linejoin="round" stroke-miterlimit="10" fill="none" fill-rule="evenodd"/></g><g clip-path="url(#clip48)"><path d="M3749 7978.5C3749 7983.19 3745.19 7987 3740.5 7987 3735.81 7987 3732 7983.19 3732 7978.5 3732 7973.81 3735.81 7970 3740.5 7970 3745.19 7970 3749 7973.81 3749 7978.5Z" stroke="#5B9BD5" stroke-width="3.4375" stroke-linejoin="round" stroke-miterlimit="10" fill="#5B9BD5"/></g><g clip-path="url(#clip49)"><text font-family="Arial,Arial_MSFontService,sans-serif" font-weight="400" font-size="37" transform="matrix(1 0 0 1 3794.56 7990)">Bandwidth (MB/sec)2 reads and 1 non-temporal write</text></g><g clip-path="url(#clip50)"><path d="M2711 8047 2799 8047" stroke="#264478" stroke-width="10.3125" stroke-linecap="round" stroke-linejoin="round" stroke-miterlimit="10" fill="none" fill-rule="evenodd"/></g><g clip-path="url(#clip51)"><path d="M2762 8046.5C2762 8051.19 2758.19 8055 2753.5 8055 2748.81 8055 2745 8051.19 2745 8046.5 2745 8041.81 2748.81 8038 2753.5 8038 2758.19 8038 2762 8041.81 2762 8046.5Z" stroke="#264478" stroke-width="3.4375" stroke-linejoin="round" stroke-miterlimit="10" fill="#264478"/></g><g clip-path="url(#clip52)"><text font-family="Arial,Arial_MSFontService,sans-serif" font-weight="400" font-size="37" transform="matrix(1 0 0 1 2808.04 8059)">Bandwidth (MB/sec) 1 read and 1 non-temporal write</text></g><g clip-path="url(#clip53)"><path d="M3697 8047 3785 8047" stroke="#636363" stroke-width="10.3125" stroke-linecap="round" stroke-linejoin="round" stroke-miterlimit="10" fill="none" fill-rule="evenodd"/></g><g clip-path="url(#clip54)"><path d="M3749 8046.5C3749 8051.19 3745.19 8055 3740.5 8055 3735.81 8055 3732 8051.19 3732 8046.5 3732 8041.81 3735.81 8038 3740.5 8038 3745.19 8038 3749 8041.81 3749 8046.5Z" stroke="#636363" stroke-width="3.4375" stroke-linejoin="round" stroke-miterlimit="10" fill="#636363"/></g><g clip-path="url(#clip55)"><text font-family="Arial,Arial_MSFontService,sans-serif" font-weight="400" font-size="37" transform="matrix(1 0 0 1 3794.56 8059)">Bandwidth (MB/sec) 3 reads and 1 non-temporal write</text></g></g></svg>