<svg width="2290" height="1410" xmlns="http://www.w3.org/2000/svg" xmlns:xlink="http://www.w3.org/1999/xlink" xml:space="preserve" overflow="hidden"><defs><clipPath id="clip0"><rect x="2709" y="3085" width="2290" height="1410"/></clipPath><clipPath id="clip1"><rect x="2709" y="3085" width="2290" height="1409"/></clipPath><clipPath id="clip2"><rect x="2709" y="3085" width="2290" height="1409"/></clipPath><clipPath id="clip3"><rect x="2709" y="3085" width="2290" height="1409"/></clipPath><clipPath id="clip4"><rect x="3016" y="3345" width="1936" height="723"/></clipPath><clipPath id="clip5"><rect x="2709" y="3085" width="2290" height="1409"/></clipPath><clipPath id="clip6"><rect x="3016" y="3345" width="1936" height="723"/></clipPath><clipPath id="clip7"><rect x="2709" y="3085" width="2290" height="1409"/></clipPath><clipPath id="clip8"><rect x="3016" y="3345" width="1936" height="723"/></clipPath><clipPath id="clip9"><rect x="2709" y="3085" width="2290" height="1409"/></clipPath><clipPath id="clip10"><rect x="3016" y="3345" width="1936" height="723"/></clipPath><clipPath id="clip11"><rect x="2709" y="3085" width="2290" height="1409"/></clipPath><clipPath id="clip12"><rect x="2709" y="3085" width="2290" height="1409"/></clipPath><clipPath id="clip13"><rect x="2709" y="3085" width="2290" height="1409"/></clipPath><clipPath id="clip14"><rect x="2709" y="3085" width="2290" height="1409"/></clipPath><clipPath id="clip15"><rect x="2709" y="3085" width="2290" height="1409"/></clipPath><clipPath id="clip16"><rect x="2709" y="3085" width="2290" height="1409"/></clipPath><clipPath id="clip17"><rect x="2709" y="3085" width="2290" height="1409"/></clipPath><clipPath id="clip18"><rect x="2709" y="3085" width="2290" height="1409"/></clipPath><clipPath id="clip19"><rect x="2709" y="3085" width="2290" height="1409"/></clipPath><clipPath id="clip20"><rect x="2709" y="3085" width="2290" height="1409"/></clipPath><clipPath id="clip21"><rect x="2709" y="3085" width="2290" height="1409"/></clipPath><clipPath id="clip22"><rect x="2709" y="3085" width="2290" height="1409"/></clipPath><clipPath id="clip23"><rect x="2709" y="3085" width="2290" height="1409"/></clipPath><clipPath id="clip24"><rect x="2709" y="3085" width="2290" height="1409"/></clipPath><clipPath id="clip25"><rect x="2709" y="3085" width="2290" height="1409"/></clipPath><clipPath id="clip26"><rect x="2709" y="3085" width="2290" height="1409"/></clipPath><clipPath id="clip27"><rect x="2709" y="3085" width="2290" height="1409"/></clipPath><clipPath id="clip28"><rect x="2709" y="3085" width="2290" height="1409"/></clipPath><clipPath id="clip29"><rect x="2709" y="3085" width="2290" height="1409"/></clipPath><clipPath id="clip30"><rect x="2709" y="3085" width="2290" height="1409"/></clipPath><clipPath id="clip31"><rect x="2709" y="3085" width="2290" height="1409"/></clipPath><clipPath id="clip32"><rect x="2709" y="3085" width="2290" height="1409"/></clipPath><clipPath id="clip33"><rect x="2709" y="3085" width="2290" height="1409"/></clipPath><clipPath id="clip34"><rect x="2709" y="3085" width="2290" height="1409"/></clipPath><clipPath id="clip35"><rect x="2709" y="3085" width="2290" height="1409"/></clipPath><clipPath id="clip36"><rect x="2709" y="3085" width="2290" height="1409"/></clipPath><clipPath id="clip37"><rect x="2709" y="3085" width="2290" height="1409"/></clipPath><clipPath id="clip38"><rect x="2709" y="3085" width="2290" height="1409"/></clipPath><clipPath id="clip39"><rect x="2709" y="3085" width="2290" height="1409"/></clipPath><clipPath id="clip40"><rect x="2709" y="3085" width="2290" height="1409"/></clipPath><clipPath id="clip41"><rect x="2709" y="3085" width="2290" height="1409"/></clipPath><clipPath id="clip42"><rect x="2709" y="3085" width="2290" height="1409"/></clipPath><clipPath id="clip43"><rect x="2709" y="3085" width="2290" height="1409"/></clipPath><clipPath id="clip44"><rect x="2709" y="3085" width="2290" height="1409"/></clipPath><clipPath id="clip45"><rect x="2709" y="3085" width="2290" height="1409"/></clipPath><clipPath id="clip46"><rect x="2709" y="3085" width="2290" height="1409"/></clipPath><clipPath id="clip47"><rect x="2709" y="3085" width="2290" height="1409"/></clipPath><clipPath id="clip48"><rect x="2709" y="3085" width="2290" height="1409"/></clipPath><clipPath id="clip49"><rect x="2709" y="3085" width="2290" height="1409"/></clipPath><clipPath id="clip50"><rect x="2709" y="3085" width="2290" height="1409"/></clipPath><clipPath id="clip51"><rect x="2709" y="3085" width="2290" height="1409"/></clipPath><clipPath id="clip52"><rect x="2709" y="3085" width="2290" height="1409"/></clipPath><clipPath id="clip53"><rect x="2709" y="3085" width="2290" height="1409"/></clipPath></defs><g clip-path="url(#clip0)" transform="translate(-2709 -3085)"><rect x="2709" y="3085" width="2290" height="1410" fill="#FFFFFF"/><g clip-path="url(#clip1)"><path d="M3016.5 4041.63 4948.5 4041.63M3016.5 4017.63 4948.5 4017.63M3016.5 3993.63 4948.5 3993.63M3016.5 3969.63 4948.5 3969.63M3016.5 3921.63 4948.5 3921.63M3016.5 3897.63 4948.5 3897.63M3016.5 3873.63 4948.5 3873.63M3016.5 3849.63 4948.5 3849.63M3016.5 3801.62 4948.5 3801.62M3016.5 3777.62 4948.5 3777.62M3016.5 3753.62 4948.5 3753.62M3016.5 3729.62 4948.5 3729.62M3016.5 3681.62 4948.5 3681.62M3016.5 3657.62 4948.5 3657.62M3016.5 3633.62 4948.5 3633.62M3016.5 3609.62 4948.5 3609.62M3016.5 3561.62 4948.5 3561.62M3016.5 3537.62 4948.5 3537.62M3016.5 3513.62 4948.5 3513.62M3016.5 3489.61 4948.5 3489.61M3016.5 3441.61 4948.5 3441.61M3016.5 3417.61 4948.5 3417.61M3016.5 3393.61 4948.5 3393.61M3016.5 3369.61 4948.5 3369.61" stroke="#F2F2F2" stroke-width="3.4375" stroke-linejoin="round" stroke-miterlimit="10" fill="none"/></g><g clip-path="url(#clip2)"><path d="M3016.5 3945.63 4948.5 3945.63M3016.5 3825.63 4948.5 3825.63M3016.5 3705.62 4948.5 3705.62M3016.5 3585.62 4948.5 3585.62M3016.5 3465.61 4948.5 3465.61M3016.5 3345.5 4948.5 3345.5" stroke="#D9D9D9" stroke-width="3.4375" stroke-linejoin="round" stroke-miterlimit="10" fill="none"/></g><g clip-path="url(#clip3)"><path d="M3016.5 4065.5 4948.5 4065.5" stroke="#D9D9D9" stroke-width="3.4375" stroke-linejoin="round" stroke-miterlimit="10" fill="none" fill-rule="evenodd"/></g><g clip-path="url(#clip4)"><path d="M3068 3639 3169.1 3639.12 3271.11 3639.12 3373.11 3639.12 3474.11 3783.12 3576.12 3899.13 3678.12 3976.13 3779.12 4004.13 3881.13 4018.13 3983.13 4026.13 4084.13 4036.13 4186.14 4043.13 4288.14 4047.13 4389.14 4050.13 4491.15 4053.13 4593.15 4055.13 4694.15 4057.13 4796.16 4058.13 4898 4059" stroke="#A5A5A5" stroke-width="10.3125" stroke-linecap="round" stroke-linejoin="round" stroke-miterlimit="10" fill="none"/></g><g clip-path="url(#clip5)"><path d="M3078.94 3638.99C3078.94 3645.06 3074.02 3649.99 3067.94 3649.99 3061.87 3649.99 3056.94 3645.06 3056.94 3638.99 3056.94 3632.91 3061.87 3627.99 3067.94 3627.99 3074.02 3627.99 3078.94 3632.91 3078.94 3638.99Z" stroke="#A5A5A5" stroke-width="3.4375" stroke-linejoin="round" stroke-miterlimit="10" fill="#A5A5A5"/><path d="M3180.94 3638.99C3180.94 3645.06 3176.02 3649.99 3169.94 3649.99 3163.87 3649.99 3158.94 3645.06 3158.94 3638.99 3158.94 3632.91 3163.87 3627.99 3169.94 3627.99 3176.02 3627.99 3180.94 3632.91 3180.94 3638.99Z" stroke="#A5A5A5" stroke-width="3.4375" stroke-linejoin="round" stroke-miterlimit="10" fill="#A5A5A5"/><path d="M3282.94 3639.99C3282.94 3646.06 3278.02 3650.99 3271.94 3650.99 3265.87 3650.99 3260.94 3646.06 3260.94 3639.99 3260.94 3633.91 3265.87 3628.99 3271.94 3628.99 3278.02 3628.99 3282.94 3633.91 3282.94 3639.99Z" stroke="#A5A5A5" stroke-width="3.4375" stroke-linejoin="round" stroke-miterlimit="10" fill="#A5A5A5"/><path d="M3383.94 3638.99C3383.94 3645.06 3379.02 3649.99 3372.94 3649.99 3366.87 3649.99 3361.94 3645.06 3361.94 3638.99 3361.94 3632.91 3366.87 3627.99 3372.94 3627.99 3379.02 3627.99 3383.94 3632.91 3383.94 3638.99Z" stroke="#A5A5A5" stroke-width="3.4375" stroke-linejoin="round" stroke-miterlimit="10" fill="#A5A5A5"/><path d="M3485.94 3782.99C3485.94 3789.06 3481.02 3793.99 3474.94 3793.99 3468.87 3793.99 3463.94 3789.06 3463.94 3782.99 3463.94 3776.91 3468.87 3771.99 3474.94 3771.99 3481.02 3771.99 3485.94 3776.91 3485.94 3782.99Z" stroke="#A5A5A5" stroke-width="3.4375" stroke-linejoin="round" stroke-miterlimit="10" fill="#A5A5A5"/><path d="M3587.94 3898.99C3587.94 3905.06 3583.02 3909.99 3576.94 3909.99 3570.87 3909.99 3565.94 3905.06 3565.94 3898.99 3565.94 3892.91 3570.87 3887.99 3576.94 3887.99 3583.02 3887.99 3587.94 3892.91 3587.94 3898.99Z" stroke="#A5A5A5" stroke-width="3.4375" stroke-linejoin="round" stroke-miterlimit="10" fill="#A5A5A5"/><path d="M3688.94 3976.99C3688.94 3983.06 3684.02 3987.99 3677.94 3987.99 3671.87 3987.99 3666.94 3983.06 3666.94 3976.99 3666.94 3970.91 3671.87 3965.99 3677.94 3965.99 3684.02 3965.99 3688.94 3970.91 3688.94 3976.99Z" stroke="#A5A5A5" stroke-width="3.4375" stroke-linejoin="round" stroke-miterlimit="10" fill="#A5A5A5"/><path d="M3790.94 4003.99C3790.94 4010.06 3786.02 4014.99 3779.94 4014.99 3773.87 4014.99 3768.94 4010.06 3768.94 4003.99 3768.94 3997.91 3773.87 3992.99 3779.94 3992.99 3786.02 3992.99 3790.94 3997.91 3790.94 4003.99Z" stroke="#A5A5A5" stroke-width="3.4375" stroke-linejoin="round" stroke-miterlimit="10" fill="#A5A5A5"/><path d="M3892.94 4017.99C3892.94 4024.06 3888.02 4028.98 3881.94 4028.98 3875.87 4028.98 3870.94 4024.06 3870.94 4017.99 3870.94 4011.91 3875.87 4006.99 3881.94 4006.99 3888.02 4006.99 3892.94 4011.91 3892.94 4017.99Z" stroke="#A5A5A5" stroke-width="3.4375" stroke-linejoin="round" stroke-miterlimit="10" fill="#A5A5A5"/><path d="M3993.94 4026.99C3993.94 4033.06 3989.02 4037.99 3982.94 4037.99 3976.87 4037.99 3971.94 4033.06 3971.94 4026.99 3971.94 4020.91 3976.87 4015.99 3982.94 4015.99 3989.02 4015.99 3993.94 4020.91 3993.94 4026.99Z" stroke="#A5A5A5" stroke-width="3.4375" stroke-linejoin="round" stroke-miterlimit="10" fill="#A5A5A5"/><path d="M4095.94 4035.99C4095.94 4042.06 4091.02 4046.99 4084.94 4046.99 4078.87 4046.99 4073.94 4042.06 4073.94 4035.99 4073.94 4029.91 4078.87 4024.99 4084.94 4024.99 4091.02 4024.99 4095.94 4029.91 4095.94 4035.99Z" stroke="#A5A5A5" stroke-width="3.4375" stroke-linejoin="round" stroke-miterlimit="10" fill="#A5A5A5"/><path d="M4197.94 4042.99C4197.94 4049.06 4193.02 4053.99 4186.94 4053.99 4180.87 4053.99 4175.94 4049.06 4175.94 4042.99 4175.94 4036.91 4180.87 4031.99 4186.94 4031.99 4193.02 4031.99 4197.94 4036.91 4197.94 4042.99Z" stroke="#A5A5A5" stroke-width="3.4375" stroke-linejoin="round" stroke-miterlimit="10" fill="#A5A5A5"/><path d="M4298.94 4046.99C4298.94 4053.06 4294.02 4057.99 4287.94 4057.99 4281.87 4057.99 4276.94 4053.06 4276.94 4046.99 4276.94 4040.91 4281.87 4035.99 4287.94 4035.99 4294.02 4035.99 4298.94 4040.91 4298.94 4046.99Z" stroke="#A5A5A5" stroke-width="3.4375" stroke-linejoin="round" stroke-miterlimit="10" fill="#A5A5A5"/><path d="M4400.94 4050.99C4400.94 4057.06 4396.02 4061.98 4389.94 4061.98 4383.87 4061.98 4378.94 4057.06 4378.94 4050.99 4378.94 4044.91 4383.87 4039.99 4389.94 4039.99 4396.02 4039.99 4400.94 4044.91 4400.94 4050.99Z" stroke="#A5A5A5" stroke-width="3.4375" stroke-linejoin="round" stroke-miterlimit="10" fill="#A5A5A5"/><path d="M4502.94 4053.99C4502.94 4060.06 4498.02 4064.99 4491.94 4064.99 4485.87 4064.99 4480.94 4060.06 4480.94 4053.99 4480.94 4047.91 4485.87 4042.99 4491.94 4042.99 4498.02 4042.99 4502.94 4047.91 4502.94 4053.99Z" stroke="#A5A5A5" stroke-width="3.4375" stroke-linejoin="round" stroke-miterlimit="10" fill="#A5A5A5"/><path d="M4603.94 4055.99C4603.94 4062.06 4599.02 4066.99 4592.94 4066.99 4586.87 4066.99 4581.94 4062.06 4581.94 4055.99 4581.94 4049.91 4586.87 4044.99 4592.94 4044.99 4599.02 4044.99 4603.94 4049.91 4603.94 4055.99Z" stroke="#A5A5A5" stroke-width="3.4375" stroke-linejoin="round" stroke-miterlimit="10" fill="#A5A5A5"/><path d="M4705.94 4056.99C4705.94 4063.06 4701.02 4067.99 4694.94 4067.99 4688.87 4067.99 4683.94 4063.06 4683.94 4056.99 4683.94 4050.91 4688.87 4045.99 4694.94 4045.99 4701.02 4045.99 4705.94 4050.91 4705.94 4056.99Z" stroke="#A5A5A5" stroke-width="3.4375" stroke-linejoin="round" stroke-miterlimit="10" fill="#A5A5A5"/><path d="M4807.94 4058.99C4807.94 4065.06 4803.02 4069.99 4796.94 4069.99 4790.87 4069.99 4785.94 4065.06 4785.94 4058.99 4785.94 4052.91 4790.87 4047.99 4796.94 4047.99 4803.02 4047.99 4807.94 4052.91 4807.94 4058.99Z" stroke="#A5A5A5" stroke-width="3.4375" stroke-linejoin="round" stroke-miterlimit="10" fill="#A5A5A5"/><path d="M4908.94 4059.99C4908.94 4066.06 4904.02 4070.99 4897.94 4070.99 4891.87 4070.99 4886.94 4066.06 4886.94 4059.99 4886.94 4053.91 4891.87 4048.99 4897.94 4048.99 4904.02 4048.99 4908.94 4053.91 4908.94 4059.99Z" stroke="#A5A5A5" stroke-width="3.4375" stroke-linejoin="round" stroke-miterlimit="10" fill="#A5A5A5"/></g><g clip-path="url(#clip6)"><path d="M3068 3481.11 3169.1 3481.11 3271.11 3477.11 3373.11 3474.11 3474.11 3453 3576.12 3454.11 3678.12 3577.12 3779.12 3729.12 3881.13 3808.12 3983.13 3857.13 4084.13 3914.13 4186.14 3957.13 4288.14 3981.13 4389.14 3999.13 4491.15 4019.13 4593.15 4031.13 4694.15 4039.13 4796.16 4048.13 4898 4055" stroke="#5B9BD5" stroke-width="10.3125" stroke-linecap="round" stroke-linejoin="round" stroke-miterlimit="10" fill="none"/></g><g clip-path="url(#clip7)"><path d="M3078.94 3481.99C3078.94 3488.06 3074.02 3492.99 3067.94 3492.99 3061.87 3492.99 3056.94 3488.06 3056.94 3481.99 3056.94 3475.91 3061.87 3470.99 3067.94 3470.99 3074.02 3470.99 3078.94 3475.91 3078.94 3481.99Z" stroke="#5B9BD5" stroke-width="3.4375" stroke-linejoin="round" stroke-miterlimit="10" fill="#5B9BD5"/><path d="M3180.94 3481.99C3180.94 3488.06 3176.02 3492.99 3169.94 3492.99 3163.87 3492.99 3158.94 3488.06 3158.94 3481.99 3158.94 3475.91 3163.87 3470.99 3169.94 3470.99 3176.02 3470.99 3180.94 3475.91 3180.94 3481.99Z" stroke="#5B9BD5" stroke-width="3.4375" stroke-linejoin="round" stroke-miterlimit="10" fill="#5B9BD5"/><path d="M3282.94 3477.99C3282.94 3484.06 3278.02 3488.98 3271.94 3488.98 3265.87 3488.98 3260.94 3484.06 3260.94 3477.99 3260.94 3471.91 3265.87 3466.99 3271.94 3466.99 3278.02 3466.99 3282.94 3471.91 3282.94 3477.99Z" stroke="#5B9BD5" stroke-width="3.4375" stroke-linejoin="round" stroke-miterlimit="10" fill="#5B9BD5"/><path d="M3383.94 3474.99C3383.94 3481.06 3379.02 3485.99 3372.94 3485.99 3366.87 3485.99 3361.94 3481.06 3361.94 3474.99 3361.94 3468.91 3366.87 3463.99 3372.94 3463.99 3379.02 3463.99 3383.94 3468.91 3383.94 3474.99Z" stroke="#5B9BD5" stroke-width="3.4375" stroke-linejoin="round" stroke-miterlimit="10" fill="#5B9BD5"/><path d="M3485.94 3452.99C3485.94 3459.06 3481.02 3463.99 3474.94 3463.99 3468.87 3463.99 3463.94 3459.06 3463.94 3452.99 3463.94 3446.91 3468.87 3441.99 3474.94 3441.99 3481.02 3441.99 3485.94 3446.91 3485.94 3452.99Z" stroke="#5B9BD5" stroke-width="3.4375" stroke-linejoin="round" stroke-miterlimit="10" fill="#5B9BD5"/><path d="M3587.94 3454.99C3587.94 3461.06 3583.02 3465.99 3576.94 3465.99 3570.87 3465.99 3565.94 3461.06 3565.94 3454.99 3565.94 3448.91 3570.87 3443.99 3576.94 3443.99 3583.02 3443.99 3587.94 3448.91 3587.94 3454.99Z" stroke="#5B9BD5" stroke-width="3.4375" stroke-linejoin="round" stroke-miterlimit="10" fill="#5B9BD5"/><path d="M3688.94 3576.99C3688.94 3583.06 3684.02 3587.98 3677.94 3587.98 3671.87 3587.98 3666.94 3583.06 3666.94 3576.99 3666.94 3570.91 3671.87 3565.99 3677.94 3565.99 3684.02 3565.99 3688.94 3570.91 3688.94 3576.99Z" stroke="#5B9BD5" stroke-width="3.4375" stroke-linejoin="round" stroke-miterlimit="10" fill="#5B9BD5"/><path d="M3790.94 3729.99C3790.94 3736.06 3786.02 3740.99 3779.94 3740.99 3773.87 3740.99 3768.94 3736.06 3768.94 3729.99 3768.94 3723.91 3773.87 3718.99 3779.94 3718.99 3786.02 3718.99 3790.94 3723.91 3790.94 3729.99Z" stroke="#5B9BD5" stroke-width="3.4375" stroke-linejoin="round" stroke-miterlimit="10" fill="#5B9BD5"/><path d="M3892.94 3808.99C3892.94 3815.06 3888.02 3819.98 3881.94 3819.98 3875.87 3819.98 3870.94 3815.06 3870.94 3808.99 3870.94 3802.91 3875.87 3797.99 3881.94 3797.99 3888.02 3797.99 3892.94 3802.91 3892.94 3808.99Z" stroke="#5B9BD5" stroke-width="3.4375" stroke-linejoin="round" stroke-miterlimit="10" fill="#5B9BD5"/><path d="M3993.94 3857.99C3993.94 3864.06 3989.02 3868.99 3982.94 3868.99 3976.87 3868.99 3971.94 3864.06 3971.94 3857.99 3971.94 3851.91 3976.87 3846.99 3982.94 3846.99 3989.02 3846.99 3993.94 3851.91 3993.94 3857.99Z" stroke="#5B9BD5" stroke-width="3.4375" stroke-linejoin="round" stroke-miterlimit="10" fill="#5B9BD5"/><path d="M4095.94 3913.99C4095.94 3920.06 4091.02 3924.99 4084.94 3924.99 4078.87 3924.99 4073.94 3920.06 4073.94 3913.99 4073.94 3907.91 4078.87 3902.99 4084.94 3902.99 4091.02 3902.99 4095.94 3907.91 4095.94 3913.99Z" stroke="#5B9BD5" stroke-width="3.4375" stroke-linejoin="round" stroke-miterlimit="10" fill="#5B9BD5"/><path d="M4197.94 3957.99C4197.94 3964.06 4193.02 3968.99 4186.94 3968.99 4180.87 3968.99 4175.94 3964.06 4175.94 3957.99 4175.94 3951.91 4180.87 3946.99 4186.94 3946.99 4193.02 3946.99 4197.94 3951.91 4197.94 3957.99Z" stroke="#5B9BD5" stroke-width="3.4375" stroke-linejoin="round" stroke-miterlimit="10" fill="#5B9BD5"/><path d="M4298.94 3980.99C4298.94 3987.06 4294.02 3991.99 4287.94 3991.99 4281.87 3991.99 4276.94 3987.06 4276.94 3980.99 4276.94 3974.91 4281.87 3969.99 4287.94 3969.99 4294.02 3969.99 4298.94 3974.91 4298.94 3980.99Z" stroke="#5B9BD5" stroke-width="3.4375" stroke-linejoin="round" stroke-miterlimit="10" fill="#5B9BD5"/><path d="M4400.94 3999.99C4400.94 4006.06 4396.02 4010.99 4389.94 4010.99 4383.87 4010.99 4378.94 4006.06 4378.94 3999.99 4378.94 3993.91 4383.87 3988.99 4389.94 3988.99 4396.02 3988.99 4400.94 3993.91 4400.94 3999.99Z" stroke="#5B9BD5" stroke-width="3.4375" stroke-linejoin="round" stroke-miterlimit="10" fill="#5B9BD5"/><path d="M4502.94 4018.99C4502.94 4025.06 4498.02 4029.99 4491.94 4029.99 4485.87 4029.99 4480.94 4025.06 4480.94 4018.99 4480.94 4012.91 4485.87 4007.99 4491.94 4007.99 4498.02 4007.99 4502.94 4012.91 4502.94 4018.99Z" stroke="#5B9BD5" stroke-width="3.4375" stroke-linejoin="round" stroke-miterlimit="10" fill="#5B9BD5"/><path d="M4603.94 4030.99C4603.94 4037.06 4599.02 4041.99 4592.94 4041.99 4586.87 4041.99 4581.94 4037.06 4581.94 4030.99 4581.94 4024.91 4586.87 4019.99 4592.94 4019.99 4599.02 4019.99 4603.94 4024.91 4603.94 4030.99Z" stroke="#5B9BD5" stroke-width="3.4375" stroke-linejoin="round" stroke-miterlimit="10" fill="#5B9BD5"/><path d="M4705.94 4039.99C4705.94 4046.06 4701.02 4050.98 4694.94 4050.98 4688.87 4050.98 4683.94 4046.06 4683.94 4039.99 4683.94 4033.91 4688.87 4028.99 4694.94 4028.99 4701.02 4028.99 4705.94 4033.91 4705.94 4039.99Z" stroke="#5B9BD5" stroke-width="3.4375" stroke-linejoin="round" stroke-miterlimit="10" fill="#5B9BD5"/><path d="M4807.94 4048.99C4807.94 4055.06 4803.02 4059.99 4796.94 4059.99 4790.87 4059.99 4785.94 4055.06 4785.94 4048.99 4785.94 4042.91 4790.87 4037.99 4796.94 4037.99 4803.02 4037.99 4807.94 4042.91 4807.94 4048.99Z" stroke="#5B9BD5" stroke-width="3.4375" stroke-linejoin="round" stroke-miterlimit="10" fill="#5B9BD5"/><path d="M4908.94 4054.99C4908.94 4061.06 4904.02 4065.99 4897.94 4065.99 4891.87 4065.99 4886.94 4061.06 4886.94 4054.99 4886.94 4048.91 4891.87 4043.99 4897.94 4043.99 4904.02 4043.99 4908.94 4048.91 4908.94 4054.99Z" stroke="#5B9BD5" stroke-width="3.4375" stroke-linejoin="round" stroke-miterlimit="10" fill="#5B9BD5"/></g><g clip-path="url(#clip8)"><path d="M3068 3503.11 3169.1 3503.11 3271.11 3501.11 3373.11 3495.11 3474.11 3469 3576.12 3498.11 3678.12 3732.12 3779.12 3837.13 3881.13 3891.13 3983.13 3924.13 4084.13 3962.13 4186.14 3991.13 4288.14 4007.13 4389.14 4019.13 4491.15 4032.13 4593.15 4040.13 4694.15 4046.13 4796.16 4052.13 4898 4057" stroke="#264478" stroke-width="10.3125" stroke-linecap="round" stroke-linejoin="round" stroke-miterlimit="10" fill="none"/></g><g clip-path="url(#clip9)"><path d="M3078.94 3503.99C3078.94 3510.06 3074.02 3514.99 3067.94 3514.99 3061.87 3514.99 3056.94 3510.06 3056.94 3503.99 3056.94 3497.91 3061.87 3492.99 3067.94 3492.99 3074.02 3492.99 3078.94 3497.91 3078.94 3503.99Z" stroke="#264478" stroke-width="3.4375" stroke-linejoin="round" stroke-miterlimit="10" fill="#264478"/><path d="M3180.94 3503.99C3180.94 3510.06 3176.02 3514.99 3169.94 3514.99 3163.87 3514.99 3158.94 3510.06 3158.94 3503.99 3158.94 3497.91 3163.87 3492.99 3169.94 3492.99 3176.02 3492.99 3180.94 3497.91 3180.94 3503.99Z" stroke="#264478" stroke-width="3.4375" stroke-linejoin="round" stroke-miterlimit="10" fill="#264478"/><path d="M3282.94 3501.99C3282.94 3508.06 3278.02 3512.99 3271.94 3512.99 3265.87 3512.99 3260.94 3508.06 3260.94 3501.99 3260.94 3495.91 3265.87 3490.99 3271.94 3490.99 3278.02 3490.99 3282.94 3495.91 3282.94 3501.99Z" stroke="#264478" stroke-width="3.4375" stroke-linejoin="round" stroke-miterlimit="10" fill="#264478"/><path d="M3383.94 3494.99C3383.94 3501.06 3379.02 3505.99 3372.94 3505.99 3366.87 3505.99 3361.94 3501.06 3361.94 3494.99 3361.94 3488.91 3366.87 3483.99 3372.94 3483.99 3379.02 3483.99 3383.94 3488.91 3383.94 3494.99Z" stroke="#264478" stroke-width="3.4375" stroke-linejoin="round" stroke-miterlimit="10" fill="#264478"/><path d="M3485.94 3468.99C3485.94 3475.06 3481.02 3479.99 3474.94 3479.99 3468.87 3479.99 3463.94 3475.06 3463.94 3468.99 3463.94 3462.91 3468.87 3457.99 3474.94 3457.99 3481.02 3457.99 3485.94 3462.91 3485.94 3468.99Z" stroke="#264478" stroke-width="3.4375" stroke-linejoin="round" stroke-miterlimit="10" fill="#264478"/><path d="M3587.94 3497.99C3587.94 3504.06 3583.02 3508.99 3576.94 3508.99 3570.87 3508.99 3565.94 3504.06 3565.94 3497.99 3565.94 3491.91 3570.87 3486.99 3576.94 3486.99 3583.02 3486.99 3587.94 3491.91 3587.94 3497.99Z" stroke="#264478" stroke-width="3.4375" stroke-linejoin="round" stroke-miterlimit="10" fill="#264478"/><path d="M3688.94 3731.99C3688.94 3738.06 3684.02 3742.98 3677.94 3742.98 3671.87 3742.98 3666.94 3738.06 3666.94 3731.99 3666.94 3725.91 3671.87 3720.99 3677.94 3720.99 3684.02 3720.99 3688.94 3725.91 3688.94 3731.99Z" stroke="#264478" stroke-width="3.4375" stroke-linejoin="round" stroke-miterlimit="10" fill="#264478"/><path d="M3790.94 3836.99C3790.94 3843.06 3786.02 3847.99 3779.94 3847.99 3773.87 3847.99 3768.94 3843.06 3768.94 3836.99 3768.94 3830.91 3773.87 3825.99 3779.94 3825.99 3786.02 3825.99 3790.94 3830.91 3790.94 3836.99Z" stroke="#264478" stroke-width="3.4375" stroke-linejoin="round" stroke-miterlimit="10" fill="#264478"/><path d="M3892.94 3890.99C3892.94 3897.06 3888.02 3901.99 3881.94 3901.99 3875.87 3901.99 3870.94 3897.06 3870.94 3890.99 3870.94 3884.91 3875.87 3879.99 3881.94 3879.99 3888.02 3879.99 3892.94 3884.91 3892.94 3890.99Z" stroke="#264478" stroke-width="3.4375" stroke-linejoin="round" stroke-miterlimit="10" fill="#264478"/><path d="M3993.94 3923.99C3993.94 3930.06 3989.02 3934.99 3982.94 3934.99 3976.87 3934.99 3971.94 3930.06 3971.94 3923.99 3971.94 3917.91 3976.87 3912.99 3982.94 3912.99 3989.02 3912.99 3993.94 3917.91 3993.94 3923.99Z" stroke="#264478" stroke-width="3.4375" stroke-linejoin="round" stroke-miterlimit="10" fill="#264478"/><path d="M4095.94 3962.99C4095.94 3969.06 4091.02 3973.98 4084.94 3973.98 4078.87 3973.98 4073.94 3969.06 4073.94 3962.99 4073.94 3956.91 4078.87 3951.99 4084.94 3951.99 4091.02 3951.99 4095.94 3956.91 4095.94 3962.99Z" stroke="#264478" stroke-width="3.4375" stroke-linejoin="round" stroke-miterlimit="10" fill="#264478"/><path d="M4197.94 3991.99C4197.94 3998.06 4193.02 4002.99 4186.94 4002.99 4180.87 4002.99 4175.94 3998.06 4175.94 3991.99 4175.94 3985.91 4180.87 3980.99 4186.94 3980.99 4193.02 3980.99 4197.94 3985.91 4197.94 3991.99Z" stroke="#264478" stroke-width="3.4375" stroke-linejoin="round" stroke-miterlimit="10" fill="#264478"/><path d="M4298.94 4007.99C4298.94 4014.06 4294.02 4018.99 4287.94 4018.99 4281.87 4018.99 4276.94 4014.06 4276.94 4007.99 4276.94 4001.91 4281.87 3996.99 4287.94 3996.99 4294.02 3996.99 4298.94 4001.91 4298.94 4007.99Z" stroke="#264478" stroke-width="3.4375" stroke-linejoin="round" stroke-miterlimit="10" fill="#264478"/><path d="M4400.94 4019.99C4400.94 4026.06 4396.02 4030.99 4389.94 4030.99 4383.87 4030.99 4378.94 4026.06 4378.94 4019.99 4378.94 4013.91 4383.87 4008.99 4389.94 4008.99 4396.02 4008.99 4400.94 4013.91 4400.94 4019.99Z" stroke="#264478" stroke-width="3.4375" stroke-linejoin="round" stroke-miterlimit="10" fill="#264478"/><path d="M4502.94 4032.99C4502.94 4039.06 4498.02 4043.99 4491.94 4043.99 4485.87 4043.99 4480.94 4039.06 4480.94 4032.99 4480.94 4026.91 4485.87 4021.99 4491.94 4021.99 4498.02 4021.99 4502.94 4026.91 4502.94 4032.99Z" stroke="#264478" stroke-width="3.4375" stroke-linejoin="round" stroke-miterlimit="10" fill="#264478"/><path d="M4603.94 4040.99C4603.94 4047.06 4599.02 4051.99 4592.94 4051.99 4586.87 4051.99 4581.94 4047.06 4581.94 4040.99 4581.94 4034.91 4586.87 4029.99 4592.94 4029.99 4599.02 4029.99 4603.94 4034.91 4603.94 4040.99Z" stroke="#264478" stroke-width="3.4375" stroke-linejoin="round" stroke-miterlimit="10" fill="#264478"/><path d="M4705.94 4046.99C4705.94 4053.06 4701.02 4057.99 4694.94 4057.99 4688.87 4057.99 4683.94 4053.06 4683.94 4046.99 4683.94 4040.91 4688.87 4035.99 4694.94 4035.99 4701.02 4035.99 4705.94 4040.91 4705.94 4046.99Z" stroke="#264478" stroke-width="3.4375" stroke-linejoin="round" stroke-miterlimit="10" fill="#264478"/><path d="M4807.94 4052.99C4807.94 4059.06 4803.02 4063.99 4796.94 4063.99 4790.87 4063.99 4785.94 4059.06 4785.94 4052.99 4785.94 4046.91 4790.87 4041.99 4796.94 4041.99 4803.02 4041.99 4807.94 4046.91 4807.94 4052.99Z" stroke="#264478" stroke-width="3.4375" stroke-linejoin="round" stroke-miterlimit="10" fill="#264478"/><path d="M4908.94 4056.99C4908.94 4063.06 4904.02 4067.99 4897.94 4067.99 4891.87 4067.99 4886.94 4063.06 4886.94 4056.99 4886.94 4050.91 4891.87 4045.99 4897.94 4045.99 4904.02 4045.99 4908.94 4050.91 4908.94 4056.99Z" stroke="#264478" stroke-width="3.4375" stroke-linejoin="round" stroke-miterlimit="10" fill="#264478"/></g><g clip-path="url(#clip10)"><path d="M3068 3464.11 3169.1 3465.11 3271.11 3459.11 3373.11 3452 3474.11 3456.11 3576.12 3500.11 3678.12 3734.12 3779.12 3838.13 3881.13 3891.13 3983.13 3924.13 4084.13 3962.13 4186.14 3991.13 4288.14 4007.13 4389.14 4020.13 4491.15 4032.13 4593.15 4040.13 4694.15 4046.13 4796.16 4052.13 4898 4057" stroke="#636363" stroke-width="10.3125" stroke-linecap="round" stroke-linejoin="round" stroke-miterlimit="10" fill="none"/></g><g clip-path="url(#clip11)"><path d="M3078.94 3464.99C3078.94 3471.06 3074.02 3475.99 3067.94 3475.99 3061.87 3475.99 3056.94 3471.06 3056.94 3464.99 3056.94 3458.91 3061.87 3453.99 3067.94 3453.99 3074.02 3453.99 3078.94 3458.91 3078.94 3464.99Z" stroke="#636363" stroke-width="3.4375" stroke-linejoin="round" stroke-miterlimit="10" fill="#636363"/><path d="M3180.94 3464.99C3180.94 3471.06 3176.02 3475.99 3169.94 3475.99 3163.87 3475.99 3158.94 3471.06 3158.94 3464.99 3158.94 3458.91 3163.87 3453.99 3169.94 3453.99 3176.02 3453.99 3180.94 3458.91 3180.94 3464.99Z" stroke="#636363" stroke-width="3.4375" stroke-linejoin="round" stroke-miterlimit="10" fill="#636363"/><path d="M3282.94 3459.99C3282.94 3466.06 3278.02 3470.99 3271.94 3470.99 3265.87 3470.99 3260.94 3466.06 3260.94 3459.99 3260.94 3453.91 3265.87 3448.99 3271.94 3448.99 3278.02 3448.99 3282.94 3453.91 3282.94 3459.99Z" stroke="#636363" stroke-width="3.4375" stroke-linejoin="round" stroke-miterlimit="10" fill="#636363"/><path d="M3383.94 3452.99C3383.94 3459.06 3379.02 3463.99 3372.94 3463.99 3366.87 3463.99 3361.94 3459.06 3361.94 3452.99 3361.94 3446.91 3366.87 3441.99 3372.94 3441.99 3379.02 3441.99 3383.94 3446.91 3383.94 3452.99Z" stroke="#636363" stroke-width="3.4375" stroke-linejoin="round" stroke-miterlimit="10" fill="#636363"/><path d="M3485.94 3455.99C3485.94 3462.06 3481.02 3466.98 3474.94 3466.98 3468.87 3466.98 3463.94 3462.06 3463.94 3455.99 3463.94 3449.91 3468.87 3444.99 3474.94 3444.99 3481.02 3444.99 3485.94 3449.91 3485.94 3455.99Z" stroke="#636363" stroke-width="3.4375" stroke-linejoin="round" stroke-miterlimit="10" fill="#636363"/><path d="M3587.94 3499.99C3587.94 3506.06 3583.02 3510.98 3576.94 3510.98 3570.87 3510.98 3565.94 3506.06 3565.94 3499.99 3565.94 3493.91 3570.87 3488.99 3576.94 3488.99 3583.02 3488.99 3587.94 3493.91 3587.94 3499.99Z" stroke="#636363" stroke-width="3.4375" stroke-linejoin="round" stroke-miterlimit="10" fill="#636363"/><path d="M3688.94 3733.99C3688.94 3740.06 3684.02 3744.99 3677.94 3744.99 3671.87 3744.99 3666.94 3740.06 3666.94 3733.99 3666.94 3727.91 3671.87 3722.99 3677.94 3722.99 3684.02 3722.99 3688.94 3727.91 3688.94 3733.99Z" stroke="#636363" stroke-width="3.4375" stroke-linejoin="round" stroke-miterlimit="10" fill="#636363"/><path d="M3790.94 3837.99C3790.94 3844.06 3786.02 3848.99 3779.94 3848.99 3773.87 3848.99 3768.94 3844.06 3768.94 3837.99 3768.94 3831.91 3773.87 3826.99 3779.94 3826.99 3786.02 3826.99 3790.94 3831.91 3790.94 3837.99Z" stroke="#636363" stroke-width="3.4375" stroke-linejoin="round" stroke-miterlimit="10" fill="#636363"/><path d="M3892.94 3891.99C3892.94 3898.06 3888.02 3902.99 3881.94 3902.99 3875.87 3902.99 3870.94 3898.06 3870.94 3891.99 3870.94 3885.91 3875.87 3880.99 3881.94 3880.99 3888.02 3880.99 3892.94 3885.91 3892.94 3891.99Z" stroke="#636363" stroke-width="3.4375" stroke-linejoin="round" stroke-miterlimit="10" fill="#636363"/><path d="M3993.94 3924.99C3993.94 3931.06 3989.02 3935.99 3982.94 3935.99 3976.87 3935.99 3971.94 3931.06 3971.94 3924.99 3971.94 3918.91 3976.87 3913.99 3982.94 3913.99 3989.02 3913.99 3993.94 3918.91 3993.94 3924.99Z" stroke="#636363" stroke-width="3.4375" stroke-linejoin="round" stroke-miterlimit="10" fill="#636363"/><path d="M4095.94 3962.99C4095.94 3969.06 4091.02 3973.98 4084.94 3973.98 4078.87 3973.98 4073.94 3969.06 4073.94 3962.99 4073.94 3956.91 4078.87 3951.99 4084.94 3951.99 4091.02 3951.99 4095.94 3956.91 4095.94 3962.99Z" stroke="#636363" stroke-width="3.4375" stroke-linejoin="round" stroke-miterlimit="10" fill="#636363"/><path d="M4197.94 3991.99C4197.94 3998.06 4193.02 4002.99 4186.94 4002.99 4180.87 4002.99 4175.94 3998.06 4175.94 3991.99 4175.94 3985.91 4180.87 3980.99 4186.94 3980.99 4193.02 3980.99 4197.94 3985.91 4197.94 3991.99Z" stroke="#636363" stroke-width="3.4375" stroke-linejoin="round" stroke-miterlimit="10" fill="#636363"/><path d="M4298.94 4007.99C4298.94 4014.06 4294.02 4018.99 4287.94 4018.99 4281.87 4018.99 4276.94 4014.06 4276.94 4007.99 4276.94 4001.91 4281.87 3996.99 4287.94 3996.99 4294.02 3996.99 4298.94 4001.91 4298.94 4007.99Z" stroke="#636363" stroke-width="3.4375" stroke-linejoin="round" stroke-miterlimit="10" fill="#636363"/><path d="M4400.94 4019.99C4400.94 4026.06 4396.02 4030.99 4389.94 4030.99 4383.87 4030.99 4378.94 4026.06 4378.94 4019.99 4378.94 4013.91 4383.87 4008.99 4389.94 4008.99 4396.02 4008.99 4400.94 4013.91 4400.94 4019.99Z" stroke="#636363" stroke-width="3.4375" stroke-linejoin="round" stroke-miterlimit="10" fill="#636363"/><path d="M4502.94 4032.99C4502.94 4039.06 4498.02 4043.99 4491.94 4043.99 4485.87 4043.99 4480.94 4039.06 4480.94 4032.99 4480.94 4026.91 4485.87 4021.99 4491.94 4021.99 4498.02 4021.99 4502.94 4026.91 4502.94 4032.99Z" stroke="#636363" stroke-width="3.4375" stroke-linejoin="round" stroke-miterlimit="10" fill="#636363"/><path d="M4603.94 4040.99C4603.94 4047.06 4599.02 4051.99 4592.94 4051.99 4586.87 4051.99 4581.94 4047.06 4581.94 4040.99 4581.94 4034.91 4586.87 4029.99 4592.94 4029.99 4599.02 4029.99 4603.94 4034.91 4603.94 4040.99Z" stroke="#636363" stroke-width="3.4375" stroke-linejoin="round" stroke-miterlimit="10" fill="#636363"/><path d="M4705.94 4046.99C4705.94 4053.06 4701.02 4057.99 4694.94 4057.99 4688.87 4057.99 4683.94 4053.06 4683.94 4046.99 4683.94 4040.91 4688.87 4035.99 4694.94 4035.99 4701.02 4035.99 4705.94 4040.91 4705.94 4046.99Z" stroke="#636363" stroke-width="3.4375" stroke-linejoin="round" stroke-miterlimit="10" fill="#636363"/><path d="M4807.94 4052.99C4807.94 4059.06 4803.02 4063.99 4796.94 4063.99 4790.87 4063.99 4785.94 4059.06 4785.94 4052.99 4785.94 4046.91 4790.87 4041.99 4796.94 4041.99 4803.02 4041.99 4807.94 4046.91 4807.94 4052.99Z" stroke="#636363" stroke-width="3.4375" stroke-linejoin="round" stroke-miterlimit="10" fill="#636363"/><path d="M4908.94 4056.99C4908.94 4063.06 4904.02 4067.99 4897.94 4067.99 4891.87 4067.99 4886.94 4063.06 4886.94 4056.99 4886.94 4050.91 4891.87 4045.99 4897.94 4045.99 4904.02 4045.99 4908.94 4050.91 4908.94 4056.99Z" stroke="#636363" stroke-width="3.4375" stroke-linejoin="round" stroke-miterlimit="10" fill="#636363"/></g><g clip-path="url(#clip12)"><text font-family="Arial,Arial_MSFontService,sans-serif" font-weight="400" font-size="41" transform="matrix(1 0 0 1 2958.45 4078)">0</text></g><g clip-path="url(#clip13)"><text font-family="Arial,Arial_MSFontService,sans-serif" font-weight="400" font-size="41" transform="matrix(1 0 0 1 2866.7 3958)">20000</text></g><g clip-path="url(#clip14)"><text font-family="Arial,Arial_MSFontService,sans-serif" font-weight="400" font-size="41" transform="matrix(1 0 0 1 2866.7 3838)">40000</text></g><g clip-path="url(#clip15)"><text font-family="Arial,Arial_MSFontService,sans-serif" font-weight="400" font-size="41" transform="matrix(1 0 0 1 2866.7 3718)">60000</text></g><g clip-path="url(#clip16)"><text font-family="Arial,Arial_MSFontService,sans-serif" font-weight="400" font-size="41" transform="matrix(1 0 0 1 2866.7 3598)">80000</text></g><g clip-path="url(#clip17)"><text font-family="Arial,Arial_MSFontService,sans-serif" font-weight="400" font-size="41" transform="matrix(1 0 0 1 2843.76 3478)">100000</text></g><g clip-path="url(#clip18)"><text font-family="Arial,Arial_MSFontService,sans-serif" font-weight="400" font-size="41" transform="matrix(1 0 0 1 2843.76 3359)">120000</text></g><g clip-path="url(#clip19)"><text font-family="Arial,Arial_MSFontService,sans-serif" font-weight="400" font-size="41" transform="matrix(0.707107 -0.707107 0.707107 0.707107 3061.37 4132)">0</text></g><g clip-path="url(#clip20)"><text font-family="Arial,Arial_MSFontService,sans-serif" font-weight="400" font-size="41" transform="matrix(0.707107 -0.707107 0.707107 0.707107 3163.05 4132)">2</text></g><g clip-path="url(#clip21)"><text font-family="Arial,Arial_MSFontService,sans-serif" font-weight="400" font-size="41" transform="matrix(0.707107 -0.707107 0.707107 0.707107 3264.73 4132)">8</text></g><g clip-path="url(#clip22)"><text font-family="Arial,Arial_MSFontService,sans-serif" font-weight="400" font-size="41" transform="matrix(0.707107 -0.707107 0.707107 0.707107 3350.19 4149)">15</text></g><g clip-path="url(#clip23)"><text font-family="Arial,Arial_MSFontService,sans-serif" font-weight="400" font-size="41" transform="matrix(0.707107 -0.707107 0.707107 0.707107 3451.87 4149)">50</text></g><g clip-path="url(#clip24)"><text font-family="Arial,Arial_MSFontService,sans-serif" font-weight="400" font-size="41" transform="matrix(0.707107 -0.707107 0.707107 0.707107 3537.33 4165)">100</text></g><g clip-path="url(#clip25)"><text font-family="Arial,Arial_MSFontService,sans-serif" font-weight="400" font-size="41" transform="matrix(0.707107 -0.707107 0.707107 0.707107 3639.01 4165)">200</text></g><g clip-path="url(#clip26)"><text font-family="Arial,Arial_MSFontService,sans-serif" font-weight="400" font-size="41" transform="matrix(0.707107 -0.707107 0.707107 0.707107 3740.7 4165)">300</text></g><g clip-path="url(#clip27)"><text font-family="Arial,Arial_MSFontService,sans-serif" font-weight="400" font-size="41" transform="matrix(0.707107 -0.707107 0.707107 0.707107 3842.38 4165)">400</text></g><g clip-path="url(#clip28)"><text font-family="Arial,Arial_MSFontService,sans-serif" font-weight="400" font-size="41" transform="matrix(0.707107 -0.707107 0.707107 0.707107 3944.06 4165)">500</text></g><g clip-path="url(#clip29)"><text font-family="Arial,Arial_MSFontService,sans-serif" font-weight="400" font-size="41" transform="matrix(0.707107 -0.707107 0.707107 0.707107 4045.74 4165)">700</text></g><g clip-path="url(#clip30)"><text font-family="Arial,Arial_MSFontService,sans-serif" font-weight="400" font-size="41" transform="matrix(0.707107 -0.707107 0.707107 0.707107 4131.2 4181)">1000</text></g><g clip-path="url(#clip31)"><text font-family="Arial,Arial_MSFontService,sans-serif" font-weight="400" font-size="41" transform="matrix(0.707107 -0.707107 0.707107 0.707107 4232.88 4181)">1300</text></g><g clip-path="url(#clip32)"><text font-family="Arial,Arial_MSFontService,sans-serif" font-weight="400" font-size="41" transform="matrix(0.707107 -0.707107 0.707107 0.707107 4334.56 4181)">1700</text></g><g clip-path="url(#clip33)"><text font-family="Arial,Arial_MSFontService,sans-serif" font-weight="400" font-size="41" transform="matrix(0.707107 -0.707107 0.707107 0.707107 4436.24 4181)">2500</text></g><g clip-path="url(#clip34)"><text font-family="Arial,Arial_MSFontService,sans-serif" font-weight="400" font-size="41" transform="matrix(0.707107 -0.707107 0.707107 0.707107 4537.92 4181)">3500</text></g><g clip-path="url(#clip35)"><text font-family="Arial,Arial_MSFontService,sans-serif" font-weight="400" font-size="41" transform="matrix(0.707107 -0.707107 0.707107 0.707107 4639.61 4181)">5000</text></g><g clip-path="url(#clip36)"><text font-family="Arial,Arial_MSFontService,sans-serif" font-weight="400" font-size="41" transform="matrix(0.707107 -0.707107 0.707107 0.707107 4741.29 4181)">9000</text></g><g clip-path="url(#clip37)"><text font-family="Arial,Arial_MSFontService,sans-serif" font-weight="400" font-size="41" transform="matrix(0.707107 -0.707107 0.707107 0.707107 4826.75 4197)">20000</text></g><g clip-path="url(#clip38)"><text font-family="Arial,Arial_MSFontService,sans-serif" font-weight="700" font-size="55" transform="matrix(6.12323e-17 -1 1 6.12323e-17 2818.73 3968)">Bandwidth (MB/sec)</text></g><g clip-path="url(#clip39)"><text font-family="Arial,Arial_MSFontService,sans-serif" font-weight="700" font-size="55" transform="matrix(1 0 0 1 3829.98 4270)">Inject Delay</text></g><g clip-path="url(#clip40)"><text font-family="Arial,Arial_MSFontService,sans-serif" font-weight="700" font-size="73" transform="matrix(1 0 0 1 2972.08 3189)">Correlation between Inject Delay and Bandwidth in </text></g><g clip-path="url(#clip41)"><text font-family="Arial,Arial_MSFontService,sans-serif" font-weight="700" font-size="73" transform="matrix(1 0 0 1 3367.23 3273)">Memory Systems (64 Bytes)</text></g><g clip-path="url(#clip42)"><path d="M2882 4372 2970 4372" stroke="#A5A5A5" stroke-width="10.3125" stroke-linecap="round" stroke-linejoin="round" stroke-miterlimit="10" fill="none" fill-rule="evenodd"/></g><g clip-path="url(#clip43)"><path d="M2934.03 4371.5C2934.03 4376.19 2930.43 4380 2926 4380 2921.57 4380 2917.97 4376.19 2917.97 4371.5 2917.97 4366.81 2921.57 4363 2926 4363 2930.43 4363 2934.03 4366.81 2934.03 4371.5Z" stroke="#A5A5A5" stroke-width="3.4375" stroke-linejoin="round" stroke-miterlimit="10" fill="#A5A5A5"/></g><g clip-path="url(#clip44)"><text font-family="Arial,Arial_MSFontService,sans-serif" font-weight="400" font-size="37" transform="matrix(1 0 0 1 2979.53 4384)">Bandwidth (MB/sec) 100% non-temporal write</text></g><g clip-path="url(#clip45)"><path d="M3869 4372 3957 4372" stroke="#5B9BD5" stroke-width="10.3125" stroke-linecap="round" stroke-linejoin="round" stroke-miterlimit="10" fill="none" fill-rule="evenodd"/></g><g clip-path="url(#clip46)"><path d="M3920 4371.5C3920 4376.19 3916.19 4380 3911.5 4380 3906.81 4380 3903 4376.19 3903 4371.5 3903 4366.81 3906.81 4363 3911.5 4363 3916.19 4363 3920 4366.81 3920 4371.5Z" stroke="#5B9BD5" stroke-width="3.4375" stroke-linejoin="round" stroke-miterlimit="10" fill="#5B9BD5"/></g><g clip-path="url(#clip47)"><text font-family="Arial,Arial_MSFontService,sans-serif" font-weight="400" font-size="37" transform="matrix(1 0 0 1 3966.06 4384)">Bandwidth (MB/sec)2 reads and 1 non-temporal write</text></g><g clip-path="url(#clip48)"><path d="M2882 4440 2970 4440" stroke="#264478" stroke-width="10.3125" stroke-linecap="round" stroke-linejoin="round" stroke-miterlimit="10" fill="none" fill-rule="evenodd"/></g><g clip-path="url(#clip49)"><path d="M2934.03 4439.5C2934.03 4444.19 2930.43 4448 2926 4448 2921.57 4448 2917.97 4444.19 2917.97 4439.5 2917.97 4434.81 2921.57 4431 2926 4431 2930.43 4431 2934.03 4434.81 2934.03 4439.5Z" stroke="#264478" stroke-width="3.4375" stroke-linejoin="round" stroke-miterlimit="10" fill="#264478"/></g><g clip-path="url(#clip50)"><text font-family="Arial,Arial_MSFontService,sans-serif" font-weight="400" font-size="37" transform="matrix(1 0 0 1 2979.53 4452)">Bandwidth (MB/sec) 1 read and 1 non-temporal write</text></g><g clip-path="url(#clip51)"><path d="M3869 4440 3957 4440" stroke="#636363" stroke-width="10.3125" stroke-linecap="round" stroke-linejoin="round" stroke-miterlimit="10" fill="none" fill-rule="evenodd"/></g><g clip-path="url(#clip52)"><path d="M3920 4439.5C3920 4444.19 3916.19 4448 3911.5 4448 3906.81 4448 3903 4444.19 3903 4439.5 3903 4434.81 3906.81 4431 3911.5 4431 3916.19 4431 3920 4434.81 3920 4439.5Z" stroke="#636363" stroke-width="3.4375" stroke-linejoin="round" stroke-miterlimit="10" fill="#636363"/></g><g clip-path="url(#clip53)"><text font-family="Arial,Arial_MSFontService,sans-serif" font-weight="400" font-size="37" transform="matrix(1 0 0 1 3966.06 4452)">Bandwidth (MB/sec) 3 reads and 1 non-temporal write</text></g></g></svg>