<svg width="2497" height="1483" xmlns="http://www.w3.org/2000/svg" xmlns:xlink="http://www.w3.org/1999/xlink" xml:space="preserve" overflow="hidden"><defs><clipPath id="clip0"><rect x="2534" y="4831" width="2497" height="1483"/></clipPath><clipPath id="clip1"><rect x="2534" y="4831" width="2496" height="1483"/></clipPath><clipPath id="clip2"><rect x="2534" y="4831" width="2496" height="1483"/></clipPath><clipPath id="clip3"><rect x="2534" y="4831" width="2496" height="1483"/></clipPath><clipPath id="clip4"><rect x="2776" y="5124" width="2207" height="827"/></clipPath><clipPath id="clip5"><rect x="2534" y="4831" width="2496" height="1483"/></clipPath><clipPath id="clip6"><rect x="2776" y="5124" width="2207" height="827"/></clipPath><clipPath id="clip7"><rect x="2534" y="4831" width="2496" height="1483"/></clipPath><clipPath id="clip8"><rect x="2776" y="5124" width="2207" height="827"/></clipPath><clipPath id="clip9"><rect x="2534" y="4831" width="2496" height="1483"/></clipPath><clipPath id="clip10"><rect x="2776" y="5124" width="2207" height="827"/></clipPath><clipPath id="clip11"><rect x="2534" y="4831" width="2496" height="1483"/></clipPath><clipPath id="clip12"><rect x="2534" y="4831" width="2496" height="1483"/></clipPath><clipPath id="clip13"><rect x="2534" y="4831" width="2496" height="1483"/></clipPath><clipPath id="clip14"><rect x="2534" y="4831" width="2496" height="1483"/></clipPath><clipPath id="clip15"><rect x="2534" y="4831" width="2496" height="1483"/></clipPath><clipPath id="clip16"><rect x="2534" y="4831" width="2496" height="1483"/></clipPath><clipPath id="clip17"><rect x="2534" y="4831" width="2496" height="1483"/></clipPath><clipPath id="clip18"><rect x="2534" y="4831" width="2496" height="1483"/></clipPath><clipPath id="clip19"><rect x="2534" y="4831" width="2496" height="1483"/></clipPath><clipPath id="clip20"><rect x="2534" y="4831" width="2496" height="1483"/></clipPath><clipPath id="clip21"><rect x="2534" y="4831" width="2496" height="1483"/></clipPath><clipPath id="clip22"><rect x="2534" y="4831" width="2496" height="1483"/></clipPath><clipPath id="clip23"><rect x="2534" y="4831" width="2496" height="1483"/></clipPath><clipPath id="clip24"><rect x="2534" y="4831" width="2496" height="1483"/></clipPath><clipPath id="clip25"><rect x="2534" y="4831" width="2496" height="1483"/></clipPath><clipPath id="clip26"><rect x="2534" y="4831" width="2496" height="1483"/></clipPath><clipPath id="clip27"><rect x="2534" y="4831" width="2496" height="1483"/></clipPath><clipPath id="clip28"><rect x="2534" y="4831" width="2496" height="1483"/></clipPath><clipPath id="clip29"><rect x="2534" y="4831" width="2496" height="1483"/></clipPath><clipPath id="clip30"><rect x="2534" y="4831" width="2496" height="1483"/></clipPath><clipPath id="clip31"><rect x="2534" y="4831" width="2496" height="1483"/></clipPath><clipPath id="clip32"><rect x="2534" y="4831" width="2496" height="1483"/></clipPath><clipPath id="clip33"><rect x="2534" y="4831" width="2496" height="1483"/></clipPath><clipPath id="clip34"><rect x="2534" y="4831" width="2496" height="1483"/></clipPath><clipPath id="clip35"><rect x="2534" y="4831" width="2496" height="1483"/></clipPath><clipPath id="clip36"><rect x="2534" y="4831" width="2496" height="1483"/></clipPath><clipPath id="clip37"><rect x="2534" y="4831" width="2496" height="1483"/></clipPath><clipPath id="clip38"><rect x="2534" y="4831" width="2496" height="1483"/></clipPath><clipPath id="clip39"><rect x="2534" y="4831" width="2496" height="1483"/></clipPath><clipPath id="clip40"><rect x="2534" y="4831" width="2496" height="1483"/></clipPath><clipPath id="clip41"><rect x="2534" y="4831" width="2496" height="1483"/></clipPath><clipPath id="clip42"><rect x="2534" y="4831" width="2496" height="1483"/></clipPath><clipPath id="clip43"><rect x="2534" y="4831" width="2496" height="1483"/></clipPath><clipPath id="clip44"><rect x="2534" y="4831" width="2496" height="1483"/></clipPath><clipPath id="clip45"><rect x="2534" y="4831" width="2496" height="1483"/></clipPath><clipPath id="clip46"><rect x="2534" y="4831" width="2496" height="1483"/></clipPath><clipPath id="clip47"><rect x="2534" y="4831" width="2496" height="1483"/></clipPath><clipPath id="clip48"><rect x="2534" y="4831" width="2496" height="1483"/></clipPath><clipPath id="clip49"><rect x="2534" y="4831" width="2496" height="1483"/></clipPath><clipPath id="clip50"><rect x="2534" y="4831" width="2496" height="1483"/></clipPath><clipPath id="clip51"><rect x="2534" y="4831" width="2496" height="1483"/></clipPath><clipPath id="clip52"><rect x="2534" y="4831" width="2496" height="1483"/></clipPath><clipPath id="clip53"><rect x="2534" y="4831" width="2496" height="1483"/></clipPath></defs><g clip-path="url(#clip0)" transform="translate(-2534 -4831)"><rect x="2534" y="4831" width="2497" height="1483" fill="#FFFFFF"/><g clip-path="url(#clip1)"><path d="M2776.5 5920.69 4980.5 5920.69M2776.5 5893.69 4980.5 5893.69M2776.5 5865.69 4980.5 5865.69M2776.5 5838.69 4980.5 5838.69M2776.5 5783.69 4980.5 5783.69M2776.5 5755.69 4980.5 5755.69M2776.5 5728.69 4980.5 5728.69M2776.5 5701.69 4980.5 5701.69M2776.5 5646.69 4980.5 5646.69M2776.5 5618.68 4980.5 5618.68M2776.5 5591.68 4980.5 5591.68M2776.5 5563.68 4980.5 5563.68M2776.5 5508.68 4980.5 5508.68M2776.5 5481.68 4980.5 5481.68M2776.5 5453.68 4980.5 5453.68M2776.5 5426.68 4980.5 5426.68M2776.5 5371.68 4980.5 5371.68M2776.5 5344.68 4980.5 5344.68M2776.5 5316.67 4980.5 5316.67M2776.5 5289.67 4980.5 5289.67M2776.5 5234.67 4980.5 5234.67M2776.5 5206.67 4980.5 5206.67M2776.5 5179.67 4980.5 5179.67M2776.5 5151.67 4980.5 5151.67" stroke="#F2F2F2" stroke-width="3.4375" stroke-linejoin="round" stroke-miterlimit="10" fill="none"/></g><g clip-path="url(#clip2)"><path d="M2776.5 5810.69 4980.5 5810.69M2776.5 5673.69 4980.5 5673.69M2776.5 5536.68 4980.5 5536.68M2776.5 5398.68 4980.5 5398.68M2776.5 5261.67 4980.5 5261.67M2776.5 5124.5 4980.5 5124.5" stroke="#D9D9D9" stroke-width="3.4375" stroke-linejoin="round" stroke-miterlimit="10" fill="none"/></g><g clip-path="url(#clip3)"><path d="M2776.5 5948.5 4980.5 5948.5" stroke="#D9D9D9" stroke-width="3.4375" stroke-linejoin="round" stroke-miterlimit="10" fill="none" fill-rule="evenodd"/></g><g clip-path="url(#clip4)"><path d="M2835 5440.18 2951.1 5438.18 3067.1 5394 3183.1 5422.18 3299.11 5691.19 3415.11 5714.19 3531.12 5745.19 3647.12 5751.19 3763.12 5757.19 3879.13 5759.19 3994.13 5762.19 4110.13 5764.19 4226.14 5765.19 4342.14 5766.19 4458.15 5767.19 4574.15 5767.19 4690.15 5768.19 4806.16 5741.19 4922 5769" stroke="#ED7D31" stroke-width="10.3125" stroke-linecap="round" stroke-linejoin="round" stroke-miterlimit="10" fill="none"/></g><g clip-path="url(#clip5)"><path d="M2845.81 5439.87C2845.81 5445.95 2840.89 5450.87 2834.81 5450.87 2828.74 5450.87 2823.81 5445.95 2823.81 5439.87 2823.81 5433.8 2828.74 5428.87 2834.81 5428.87 2840.89 5428.87 2845.81 5433.8 2845.81 5439.87Z" stroke="#ED7D31" stroke-width="3.4375" stroke-linejoin="round" stroke-miterlimit="10" fill="#ED7D31"/><path d="M2961.81 5438.87C2961.81 5444.95 2956.89 5449.87 2950.81 5449.87 2944.74 5449.87 2939.81 5444.95 2939.81 5438.87 2939.81 5432.8 2944.74 5427.87 2950.81 5427.87 2956.89 5427.87 2961.81 5432.8 2961.81 5438.87Z" stroke="#ED7D31" stroke-width="3.4375" stroke-linejoin="round" stroke-miterlimit="10" fill="#ED7D31"/><path d="M3077.81 5394.87C3077.81 5400.95 3072.89 5405.87 3066.81 5405.87 3060.74 5405.87 3055.81 5400.95 3055.81 5394.87 3055.81 5388.8 3060.74 5383.87 3066.81 5383.87 3072.89 5383.87 3077.81 5388.8 3077.81 5394.87Z" stroke="#ED7D31" stroke-width="3.4375" stroke-linejoin="round" stroke-miterlimit="10" fill="#ED7D31"/><path d="M3193.81 5422.87C3193.81 5428.95 3188.89 5433.87 3182.81 5433.87 3176.74 5433.87 3171.81 5428.95 3171.81 5422.87 3171.81 5416.8 3176.74 5411.87 3182.81 5411.87 3188.89 5411.87 3193.81 5416.8 3193.81 5422.87Z" stroke="#ED7D31" stroke-width="3.4375" stroke-linejoin="round" stroke-miterlimit="10" fill="#ED7D31"/><path d="M3309.81 5691.87C3309.81 5697.95 3304.89 5702.87 3298.81 5702.87 3292.74 5702.87 3287.81 5697.95 3287.81 5691.87 3287.81 5685.8 3292.74 5680.87 3298.81 5680.87 3304.89 5680.87 3309.81 5685.8 3309.81 5691.87Z" stroke="#ED7D31" stroke-width="3.4375" stroke-linejoin="round" stroke-miterlimit="10" fill="#ED7D31"/><path d="M3425.81 5714.87C3425.81 5720.95 3420.89 5725.87 3414.81 5725.87 3408.74 5725.87 3403.81 5720.95 3403.81 5714.87 3403.81 5708.8 3408.74 5703.87 3414.81 5703.87 3420.89 5703.87 3425.81 5708.8 3425.81 5714.87Z" stroke="#ED7D31" stroke-width="3.4375" stroke-linejoin="round" stroke-miterlimit="10" fill="#ED7D31"/><path d="M3541.81 5744.87C3541.81 5750.95 3536.89 5755.87 3530.81 5755.87 3524.74 5755.87 3519.81 5750.95 3519.81 5744.87 3519.81 5738.8 3524.74 5733.87 3530.81 5733.87 3536.89 5733.87 3541.81 5738.8 3541.81 5744.87Z" stroke="#ED7D31" stroke-width="3.4375" stroke-linejoin="round" stroke-miterlimit="10" fill="#ED7D31"/><path d="M3657.81 5751.87C3657.81 5757.95 3652.89 5762.87 3646.81 5762.87 3640.74 5762.87 3635.81 5757.95 3635.81 5751.87 3635.81 5745.8 3640.74 5740.87 3646.81 5740.87 3652.89 5740.87 3657.81 5745.8 3657.81 5751.87Z" stroke="#ED7D31" stroke-width="3.4375" stroke-linejoin="round" stroke-miterlimit="10" fill="#ED7D31"/><path d="M3773.81 5756.87C3773.81 5762.95 3768.89 5767.87 3762.81 5767.87 3756.74 5767.87 3751.81 5762.95 3751.81 5756.87 3751.81 5750.8 3756.74 5745.87 3762.81 5745.87 3768.89 5745.87 3773.81 5750.8 3773.81 5756.87Z" stroke="#ED7D31" stroke-width="3.4375" stroke-linejoin="round" stroke-miterlimit="10" fill="#ED7D31"/><path d="M3889.81 5759.87C3889.81 5765.95 3884.89 5770.87 3878.81 5770.87 3872.74 5770.87 3867.81 5765.95 3867.81 5759.87 3867.81 5753.8 3872.74 5748.87 3878.81 5748.87 3884.89 5748.87 3889.81 5753.8 3889.81 5759.87Z" stroke="#ED7D31" stroke-width="3.4375" stroke-linejoin="round" stroke-miterlimit="10" fill="#ED7D31"/><path d="M4005.81 5762.87C4005.81 5768.95 4000.89 5773.87 3994.81 5773.87 3988.74 5773.87 3983.81 5768.95 3983.81 5762.87 3983.81 5756.8 3988.74 5751.87 3994.81 5751.87 4000.89 5751.87 4005.81 5756.8 4005.81 5762.87Z" stroke="#ED7D31" stroke-width="3.4375" stroke-linejoin="round" stroke-miterlimit="10" fill="#ED7D31"/><path d="M4121.81 5764.87C4121.81 5770.95 4116.89 5775.87 4110.81 5775.87 4104.74 5775.87 4099.81 5770.95 4099.81 5764.87 4099.81 5758.8 4104.74 5753.87 4110.81 5753.87 4116.89 5753.87 4121.81 5758.8 4121.81 5764.87Z" stroke="#ED7D31" stroke-width="3.4375" stroke-linejoin="round" stroke-miterlimit="10" fill="#ED7D31"/><path d="M4237.81 5765.87C4237.81 5771.95 4232.89 5776.87 4226.81 5776.87 4220.74 5776.87 4215.81 5771.95 4215.81 5765.87 4215.81 5759.8 4220.74 5754.87 4226.81 5754.87 4232.89 5754.87 4237.81 5759.8 4237.81 5765.87Z" stroke="#ED7D31" stroke-width="3.4375" stroke-linejoin="round" stroke-miterlimit="10" fill="#ED7D31"/><path d="M4353.81 5766.87C4353.81 5772.95 4348.89 5777.87 4342.81 5777.87 4336.74 5777.87 4331.81 5772.95 4331.81 5766.87 4331.81 5760.8 4336.74 5755.87 4342.81 5755.87 4348.89 5755.87 4353.81 5760.8 4353.81 5766.87Z" stroke="#ED7D31" stroke-width="3.4375" stroke-linejoin="round" stroke-miterlimit="10" fill="#ED7D31"/><path d="M4469.81 5766.87C4469.81 5772.95 4464.89 5777.87 4458.81 5777.87 4452.74 5777.87 4447.81 5772.95 4447.81 5766.87 4447.81 5760.8 4452.74 5755.87 4458.81 5755.87 4464.89 5755.87 4469.81 5760.8 4469.81 5766.87Z" stroke="#ED7D31" stroke-width="3.4375" stroke-linejoin="round" stroke-miterlimit="10" fill="#ED7D31"/><path d="M4585.81 5767.87C4585.81 5773.95 4580.89 5778.87 4574.81 5778.87 4568.74 5778.87 4563.81 5773.95 4563.81 5767.87 4563.81 5761.8 4568.74 5756.87 4574.81 5756.87 4580.89 5756.87 4585.81 5761.8 4585.81 5767.87Z" stroke="#ED7D31" stroke-width="3.4375" stroke-linejoin="round" stroke-miterlimit="10" fill="#ED7D31"/><path d="M4701.81 5767.87C4701.81 5773.95 4696.89 5778.87 4690.81 5778.87 4684.74 5778.87 4679.81 5773.95 4679.81 5767.87 4679.81 5761.8 4684.74 5756.87 4690.81 5756.87 4696.89 5756.87 4701.81 5761.8 4701.81 5767.87Z" stroke="#ED7D31" stroke-width="3.4375" stroke-linejoin="round" stroke-miterlimit="10" fill="#ED7D31"/><path d="M4817.81 5741.87C4817.81 5747.95 4812.89 5752.87 4806.81 5752.87 4800.74 5752.87 4795.81 5747.95 4795.81 5741.87 4795.81 5735.8 4800.74 5730.87 4806.81 5730.87 4812.89 5730.87 4817.81 5735.8 4817.81 5741.87Z" stroke="#ED7D31" stroke-width="3.4375" stroke-linejoin="round" stroke-miterlimit="10" fill="#ED7D31"/><path d="M4933.81 5768.87C4933.81 5774.95 4928.89 5779.87 4922.81 5779.87 4916.74 5779.87 4911.81 5774.95 4911.81 5768.87 4911.81 5762.8 4916.74 5757.87 4922.81 5757.87 4928.89 5757.87 4933.81 5762.8 4933.81 5768.87Z" stroke="#ED7D31" stroke-width="3.4375" stroke-linejoin="round" stroke-miterlimit="10" fill="#ED7D31"/></g><g clip-path="url(#clip6)"><path d="M2835 5289.17 2951.1 5288.17 3067.1 5292.17 3183.1 5286 3299.11 5333.18 3415.11 5348.18 3531.12 5390.18 3647.12 5488.18 3763.12 5600.18 3879.13 5630.19 3994.13 5677.19 4110.13 5708.19 4226.14 5721.19 4342.14 5722.19 4458.15 5744.19 4574.15 5750.19 4690.15 5757.19 4806.16 5762.19 4922 5766" stroke="#FFC000" stroke-width="10.3125" stroke-linecap="round" stroke-linejoin="round" stroke-miterlimit="10" fill="none"/></g><g clip-path="url(#clip7)"><path d="M2845.81 5289.87C2845.81 5295.95 2840.89 5300.87 2834.81 5300.87 2828.74 5300.87 2823.81 5295.95 2823.81 5289.87 2823.81 5283.8 2828.74 5278.87 2834.81 5278.87 2840.89 5278.87 2845.81 5283.8 2845.81 5289.87Z" stroke="#FFC000" stroke-width="3.4375" stroke-linejoin="round" stroke-miterlimit="10" fill="#FFC000"/><path d="M2961.81 5288.87C2961.81 5294.95 2956.89 5299.87 2950.81 5299.87 2944.74 5299.87 2939.81 5294.95 2939.81 5288.87 2939.81 5282.8 2944.74 5277.87 2950.81 5277.87 2956.89 5277.87 2961.81 5282.8 2961.81 5288.87Z" stroke="#FFC000" stroke-width="3.4375" stroke-linejoin="round" stroke-miterlimit="10" fill="#FFC000"/><path d="M3077.81 5292.87C3077.81 5298.95 3072.89 5303.87 3066.81 5303.87 3060.74 5303.87 3055.81 5298.95 3055.81 5292.87 3055.81 5286.8 3060.74 5281.87 3066.81 5281.87 3072.89 5281.87 3077.81 5286.8 3077.81 5292.87Z" stroke="#FFC000" stroke-width="3.4375" stroke-linejoin="round" stroke-miterlimit="10" fill="#FFC000"/><path d="M3193.81 5285.87C3193.81 5291.95 3188.89 5296.87 3182.81 5296.87 3176.74 5296.87 3171.81 5291.95 3171.81 5285.87 3171.81 5279.8 3176.74 5274.87 3182.81 5274.87 3188.89 5274.87 3193.81 5279.8 3193.81 5285.87Z" stroke="#FFC000" stroke-width="3.4375" stroke-linejoin="round" stroke-miterlimit="10" fill="#FFC000"/><path d="M3309.81 5333.87C3309.81 5339.95 3304.89 5344.87 3298.81 5344.87 3292.74 5344.87 3287.81 5339.95 3287.81 5333.87 3287.81 5327.8 3292.74 5322.87 3298.81 5322.87 3304.89 5322.87 3309.81 5327.8 3309.81 5333.87Z" stroke="#FFC000" stroke-width="3.4375" stroke-linejoin="round" stroke-miterlimit="10" fill="#FFC000"/><path d="M3425.81 5348.87C3425.81 5354.95 3420.89 5359.87 3414.81 5359.87 3408.74 5359.87 3403.81 5354.95 3403.81 5348.87 3403.81 5342.8 3408.74 5337.87 3414.81 5337.87 3420.89 5337.87 3425.81 5342.8 3425.81 5348.87Z" stroke="#FFC000" stroke-width="3.4375" stroke-linejoin="round" stroke-miterlimit="10" fill="#FFC000"/><path d="M3541.81 5389.87C3541.81 5395.95 3536.89 5400.87 3530.81 5400.87 3524.74 5400.87 3519.81 5395.95 3519.81 5389.87 3519.81 5383.8 3524.74 5378.87 3530.81 5378.87 3536.89 5378.87 3541.81 5383.8 3541.81 5389.87Z" stroke="#FFC000" stroke-width="3.4375" stroke-linejoin="round" stroke-miterlimit="10" fill="#FFC000"/><path d="M3657.81 5488.87C3657.81 5494.95 3652.89 5499.87 3646.81 5499.87 3640.74 5499.87 3635.81 5494.95 3635.81 5488.87 3635.81 5482.8 3640.74 5477.87 3646.81 5477.87 3652.89 5477.87 3657.81 5482.8 3657.81 5488.87Z" stroke="#FFC000" stroke-width="3.4375" stroke-linejoin="round" stroke-miterlimit="10" fill="#FFC000"/><path d="M3773.81 5599.87C3773.81 5605.95 3768.89 5610.87 3762.81 5610.87 3756.74 5610.87 3751.81 5605.95 3751.81 5599.87 3751.81 5593.8 3756.74 5588.87 3762.81 5588.87 3768.89 5588.87 3773.81 5593.8 3773.81 5599.87Z" stroke="#FFC000" stroke-width="3.4375" stroke-linejoin="round" stroke-miterlimit="10" fill="#FFC000"/><path d="M3889.81 5630.87C3889.81 5636.95 3884.89 5641.87 3878.81 5641.87 3872.74 5641.87 3867.81 5636.95 3867.81 5630.87 3867.81 5624.8 3872.74 5619.87 3878.81 5619.87 3884.89 5619.87 3889.81 5624.8 3889.81 5630.87Z" stroke="#FFC000" stroke-width="3.4375" stroke-linejoin="round" stroke-miterlimit="10" fill="#FFC000"/><path d="M4005.81 5677.87C4005.81 5683.95 4000.89 5688.87 3994.81 5688.87 3988.74 5688.87 3983.81 5683.95 3983.81 5677.87 3983.81 5671.8 3988.74 5666.87 3994.81 5666.87 4000.89 5666.87 4005.81 5671.8 4005.81 5677.87Z" stroke="#FFC000" stroke-width="3.4375" stroke-linejoin="round" stroke-miterlimit="10" fill="#FFC000"/><path d="M4121.81 5708.87C4121.81 5714.95 4116.89 5719.87 4110.81 5719.87 4104.74 5719.87 4099.81 5714.95 4099.81 5708.87 4099.81 5702.8 4104.74 5697.87 4110.81 5697.87 4116.89 5697.87 4121.81 5702.8 4121.81 5708.87Z" stroke="#FFC000" stroke-width="3.4375" stroke-linejoin="round" stroke-miterlimit="10" fill="#FFC000"/><path d="M4237.81 5721.87C4237.81 5727.95 4232.89 5732.87 4226.81 5732.87 4220.74 5732.87 4215.81 5727.95 4215.81 5721.87 4215.81 5715.8 4220.74 5710.87 4226.81 5710.87 4232.89 5710.87 4237.81 5715.8 4237.81 5721.87Z" stroke="#FFC000" stroke-width="3.4375" stroke-linejoin="round" stroke-miterlimit="10" fill="#FFC000"/><path d="M4353.81 5722.87C4353.81 5728.95 4348.89 5733.87 4342.81 5733.87 4336.74 5733.87 4331.81 5728.95 4331.81 5722.87 4331.81 5716.8 4336.74 5711.87 4342.81 5711.87 4348.89 5711.87 4353.81 5716.8 4353.81 5722.87Z" stroke="#FFC000" stroke-width="3.4375" stroke-linejoin="round" stroke-miterlimit="10" fill="#FFC000"/><path d="M4469.81 5743.87C4469.81 5749.95 4464.89 5754.87 4458.81 5754.87 4452.74 5754.87 4447.81 5749.95 4447.81 5743.87 4447.81 5737.8 4452.74 5732.87 4458.81 5732.87 4464.89 5732.87 4469.81 5737.8 4469.81 5743.87Z" stroke="#FFC000" stroke-width="3.4375" stroke-linejoin="round" stroke-miterlimit="10" fill="#FFC000"/><path d="M4585.81 5750.87C4585.81 5756.95 4580.89 5761.87 4574.81 5761.87 4568.74 5761.87 4563.81 5756.95 4563.81 5750.87 4563.81 5744.8 4568.74 5739.87 4574.81 5739.87 4580.89 5739.87 4585.81 5744.8 4585.81 5750.87Z" stroke="#FFC000" stroke-width="3.4375" stroke-linejoin="round" stroke-miterlimit="10" fill="#FFC000"/><path d="M4701.81 5756.87C4701.81 5762.95 4696.89 5767.87 4690.81 5767.87 4684.74 5767.87 4679.81 5762.95 4679.81 5756.87 4679.81 5750.8 4684.74 5745.87 4690.81 5745.87 4696.89 5745.87 4701.81 5750.8 4701.81 5756.87Z" stroke="#FFC000" stroke-width="3.4375" stroke-linejoin="round" stroke-miterlimit="10" fill="#FFC000"/><path d="M4817.81 5762.87C4817.81 5768.95 4812.89 5773.87 4806.81 5773.87 4800.74 5773.87 4795.81 5768.95 4795.81 5762.87 4795.81 5756.8 4800.74 5751.87 4806.81 5751.87 4812.89 5751.87 4817.81 5756.8 4817.81 5762.87Z" stroke="#FFC000" stroke-width="3.4375" stroke-linejoin="round" stroke-miterlimit="10" fill="#FFC000"/><path d="M4933.81 5765.87C4933.81 5771.95 4928.89 5776.87 4922.81 5776.87 4916.74 5776.87 4911.81 5771.95 4911.81 5765.87 4911.81 5759.8 4916.74 5754.87 4922.81 5754.87 4928.89 5754.87 4933.81 5759.8 4933.81 5765.87Z" stroke="#FFC000" stroke-width="3.4375" stroke-linejoin="round" stroke-miterlimit="10" fill="#FFC000"/></g><g clip-path="url(#clip8)"><path d="M2835 5258.17 2951.1 5224 3067.1 5261.17 3183.1 5266.17 3299.11 5339.18 3415.11 5394.18 3531.12 5548.18 3647.12 5635.19 3763.12 5652.19 3879.13 5692.19 3994.13 5714.19 4110.13 5731.19 4226.14 5739.19 4342.14 5746.19 4458.15 5753.19 4574.15 5757.19 4690.15 5761.19 4806.16 5765.19 4922 5766" stroke="#70AD47" stroke-width="10.3125" stroke-linecap="round" stroke-linejoin="round" stroke-miterlimit="10" fill="none"/></g><g clip-path="url(#clip9)"><path d="M2845.81 5257.87C2845.81 5263.95 2840.89 5268.87 2834.81 5268.87 2828.74 5268.87 2823.81 5263.95 2823.81 5257.87 2823.81 5251.8 2828.74 5246.87 2834.81 5246.87 2840.89 5246.87 2845.81 5251.8 2845.81 5257.87Z" stroke="#70AD47" stroke-width="3.4375" stroke-linejoin="round" stroke-miterlimit="10" fill="#70AD47"/><path d="M2961.81 5223.87C2961.81 5229.95 2956.89 5234.87 2950.81 5234.87 2944.74 5234.87 2939.81 5229.95 2939.81 5223.87 2939.81 5217.8 2944.74 5212.87 2950.81 5212.87 2956.89 5212.87 2961.81 5217.8 2961.81 5223.87Z" stroke="#70AD47" stroke-width="3.4375" stroke-linejoin="round" stroke-miterlimit="10" fill="#70AD47"/><path d="M3077.81 5261.87C3077.81 5267.95 3072.89 5272.87 3066.81 5272.87 3060.74 5272.87 3055.81 5267.95 3055.81 5261.87 3055.81 5255.8 3060.74 5250.87 3066.81 5250.87 3072.89 5250.87 3077.81 5255.8 3077.81 5261.87Z" stroke="#70AD47" stroke-width="3.4375" stroke-linejoin="round" stroke-miterlimit="10" fill="#70AD47"/><path d="M3193.81 5266.87C3193.81 5272.95 3188.89 5277.87 3182.81 5277.87 3176.74 5277.87 3171.81 5272.95 3171.81 5266.87 3171.81 5260.8 3176.74 5255.87 3182.81 5255.87 3188.89 5255.87 3193.81 5260.8 3193.81 5266.87Z" stroke="#70AD47" stroke-width="3.4375" stroke-linejoin="round" stroke-miterlimit="10" fill="#70AD47"/><path d="M3309.81 5338.87C3309.81 5344.95 3304.89 5349.87 3298.81 5349.87 3292.74 5349.87 3287.81 5344.95 3287.81 5338.87 3287.81 5332.8 3292.74 5327.87 3298.81 5327.87 3304.89 5327.87 3309.81 5332.8 3309.81 5338.87Z" stroke="#70AD47" stroke-width="3.4375" stroke-linejoin="round" stroke-miterlimit="10" fill="#70AD47"/><path d="M3425.81 5394.87C3425.81 5400.95 3420.89 5405.87 3414.81 5405.87 3408.74 5405.87 3403.81 5400.95 3403.81 5394.87 3403.81 5388.8 3408.74 5383.87 3414.81 5383.87 3420.89 5383.87 3425.81 5388.8 3425.81 5394.87Z" stroke="#70AD47" stroke-width="3.4375" stroke-linejoin="round" stroke-miterlimit="10" fill="#70AD47"/><path d="M3541.81 5547.87C3541.81 5553.95 3536.89 5558.87 3530.81 5558.87 3524.74 5558.87 3519.81 5553.95 3519.81 5547.87 3519.81 5541.8 3524.74 5536.87 3530.81 5536.87 3536.89 5536.87 3541.81 5541.8 3541.81 5547.87Z" stroke="#70AD47" stroke-width="3.4375" stroke-linejoin="round" stroke-miterlimit="10" fill="#70AD47"/><path d="M3657.81 5635.87C3657.81 5641.95 3652.89 5646.87 3646.81 5646.87 3640.74 5646.87 3635.81 5641.95 3635.81 5635.87 3635.81 5629.8 3640.74 5624.87 3646.81 5624.87 3652.89 5624.87 3657.81 5629.8 3657.81 5635.87Z" stroke="#70AD47" stroke-width="3.4375" stroke-linejoin="round" stroke-miterlimit="10" fill="#70AD47"/><path d="M3773.81 5652.87C3773.81 5658.95 3768.89 5663.87 3762.81 5663.87 3756.74 5663.87 3751.81 5658.95 3751.81 5652.87 3751.81 5646.8 3756.74 5641.87 3762.81 5641.87 3768.89 5641.87 3773.81 5646.8 3773.81 5652.87Z" stroke="#70AD47" stroke-width="3.4375" stroke-linejoin="round" stroke-miterlimit="10" fill="#70AD47"/><path d="M3889.81 5691.87C3889.81 5697.95 3884.89 5702.87 3878.81 5702.87 3872.74 5702.87 3867.81 5697.95 3867.81 5691.87 3867.81 5685.8 3872.74 5680.87 3878.81 5680.87 3884.89 5680.87 3889.81 5685.8 3889.81 5691.87Z" stroke="#70AD47" stroke-width="3.4375" stroke-linejoin="round" stroke-miterlimit="10" fill="#70AD47"/><path d="M4005.81 5714.87C4005.81 5720.95 4000.89 5725.87 3994.81 5725.87 3988.74 5725.87 3983.81 5720.95 3983.81 5714.87 3983.81 5708.8 3988.74 5703.87 3994.81 5703.87 4000.89 5703.87 4005.81 5708.8 4005.81 5714.87Z" stroke="#70AD47" stroke-width="3.4375" stroke-linejoin="round" stroke-miterlimit="10" fill="#70AD47"/><path d="M4121.81 5731.87C4121.81 5737.95 4116.89 5742.87 4110.81 5742.87 4104.74 5742.87 4099.81 5737.95 4099.81 5731.87 4099.81 5725.8 4104.74 5720.87 4110.81 5720.87 4116.89 5720.87 4121.81 5725.8 4121.81 5731.87Z" stroke="#70AD47" stroke-width="3.4375" stroke-linejoin="round" stroke-miterlimit="10" fill="#70AD47"/><path d="M4237.81 5739.87C4237.81 5745.95 4232.89 5750.87 4226.81 5750.87 4220.74 5750.87 4215.81 5745.95 4215.81 5739.87 4215.81 5733.8 4220.74 5728.87 4226.81 5728.87 4232.89 5728.87 4237.81 5733.8 4237.81 5739.87Z" stroke="#70AD47" stroke-width="3.4375" stroke-linejoin="round" stroke-miterlimit="10" fill="#70AD47"/><path d="M4353.81 5746.87C4353.81 5752.95 4348.89 5757.87 4342.81 5757.87 4336.74 5757.87 4331.81 5752.95 4331.81 5746.87 4331.81 5740.8 4336.74 5735.87 4342.81 5735.87 4348.89 5735.87 4353.81 5740.8 4353.81 5746.87Z" stroke="#70AD47" stroke-width="3.4375" stroke-linejoin="round" stroke-miterlimit="10" fill="#70AD47"/><path d="M4469.81 5753.87C4469.81 5759.95 4464.89 5764.87 4458.81 5764.87 4452.74 5764.87 4447.81 5759.95 4447.81 5753.87 4447.81 5747.8 4452.74 5742.87 4458.81 5742.87 4464.89 5742.87 4469.81 5747.8 4469.81 5753.87Z" stroke="#70AD47" stroke-width="3.4375" stroke-linejoin="round" stroke-miterlimit="10" fill="#70AD47"/><path d="M4585.81 5757.87C4585.81 5763.95 4580.89 5768.87 4574.81 5768.87 4568.74 5768.87 4563.81 5763.95 4563.81 5757.87 4563.81 5751.8 4568.74 5746.87 4574.81 5746.87 4580.89 5746.87 4585.81 5751.8 4585.81 5757.87Z" stroke="#70AD47" stroke-width="3.4375" stroke-linejoin="round" stroke-miterlimit="10" fill="#70AD47"/><path d="M4701.81 5761.87C4701.81 5767.95 4696.89 5772.87 4690.81 5772.87 4684.74 5772.87 4679.81 5767.95 4679.81 5761.87 4679.81 5755.8 4684.74 5750.87 4690.81 5750.87 4696.89 5750.87 4701.81 5755.8 4701.81 5761.87Z" stroke="#70AD47" stroke-width="3.4375" stroke-linejoin="round" stroke-miterlimit="10" fill="#70AD47"/><path d="M4817.81 5764.87C4817.81 5770.95 4812.89 5775.87 4806.81 5775.87 4800.74 5775.87 4795.81 5770.95 4795.81 5764.87 4795.81 5758.8 4800.74 5753.87 4806.81 5753.87 4812.89 5753.87 4817.81 5758.8 4817.81 5764.87Z" stroke="#70AD47" stroke-width="3.4375" stroke-linejoin="round" stroke-miterlimit="10" fill="#70AD47"/><path d="M4933.81 5765.87C4933.81 5771.95 4928.89 5776.87 4922.81 5776.87 4916.74 5776.87 4911.81 5771.95 4911.81 5765.87 4911.81 5759.8 4916.74 5754.87 4922.81 5754.87 4928.89 5754.87 4933.81 5759.8 4933.81 5765.87Z" stroke="#70AD47" stroke-width="3.4375" stroke-linejoin="round" stroke-miterlimit="10" fill="#70AD47"/></g><g clip-path="url(#clip10)"><path d="M2835 5302.17 2951.1 5296 3067.1 5303.17 3183.1 5306.17 3299.11 5351.18 3415.11 5380.18 3531.12 5492.18 3647.12 5608.18 3763.12 5640.19 3879.13 5653.19 3994.13 5687.19 4110.13 5722.19 4226.14 5732.19 4342.14 5741.19 4458.15 5750.19 4574.15 5755.19 4690.15 5749.19 4806.16 5762.19 4922 5767" stroke="#9E480E" stroke-width="10.3125" stroke-linecap="round" stroke-linejoin="round" stroke-miterlimit="10" fill="none"/></g><g clip-path="url(#clip11)"><path d="M2845.81 5301.87C2845.81 5307.95 2840.89 5312.87 2834.81 5312.87 2828.74 5312.87 2823.81 5307.95 2823.81 5301.87 2823.81 5295.8 2828.74 5290.87 2834.81 5290.87 2840.89 5290.87 2845.81 5295.8 2845.81 5301.87Z" stroke="#9E480E" stroke-width="3.4375" stroke-linejoin="round" stroke-miterlimit="10" fill="#9E480E"/><path d="M2961.81 5296.87C2961.81 5302.95 2956.89 5307.87 2950.81 5307.87 2944.74 5307.87 2939.81 5302.95 2939.81 5296.87 2939.81 5290.8 2944.74 5285.87 2950.81 5285.87 2956.89 5285.87 2961.81 5290.8 2961.81 5296.87Z" stroke="#9E480E" stroke-width="3.4375" stroke-linejoin="round" stroke-miterlimit="10" fill="#9E480E"/><path d="M3077.81 5303.87C3077.81 5309.95 3072.89 5314.87 3066.81 5314.87 3060.74 5314.87 3055.81 5309.95 3055.81 5303.87 3055.81 5297.8 3060.74 5292.87 3066.81 5292.87 3072.89 5292.87 3077.81 5297.8 3077.81 5303.87Z" stroke="#9E480E" stroke-width="3.4375" stroke-linejoin="round" stroke-miterlimit="10" fill="#9E480E"/><path d="M3193.81 5306.87C3193.81 5312.95 3188.89 5317.87 3182.81 5317.87 3176.74 5317.87 3171.81 5312.95 3171.81 5306.87 3171.81 5300.8 3176.74 5295.87 3182.81 5295.87 3188.89 5295.87 3193.81 5300.8 3193.81 5306.87Z" stroke="#9E480E" stroke-width="3.4375" stroke-linejoin="round" stroke-miterlimit="10" fill="#9E480E"/><path d="M3309.81 5350.87C3309.81 5356.95 3304.89 5361.87 3298.81 5361.87 3292.74 5361.87 3287.81 5356.95 3287.81 5350.87 3287.81 5344.8 3292.74 5339.87 3298.81 5339.87 3304.89 5339.87 3309.81 5344.8 3309.81 5350.87Z" stroke="#9E480E" stroke-width="3.4375" stroke-linejoin="round" stroke-miterlimit="10" fill="#9E480E"/><path d="M3425.81 5380.87C3425.81 5386.95 3420.89 5391.87 3414.81 5391.87 3408.74 5391.87 3403.81 5386.95 3403.81 5380.87 3403.81 5374.8 3408.74 5369.87 3414.81 5369.87 3420.89 5369.87 3425.81 5374.8 3425.81 5380.87Z" stroke="#9E480E" stroke-width="3.4375" stroke-linejoin="round" stroke-miterlimit="10" fill="#9E480E"/><path d="M3541.81 5492.87C3541.81 5498.95 3536.89 5503.87 3530.81 5503.87 3524.74 5503.87 3519.81 5498.95 3519.81 5492.87 3519.81 5486.8 3524.74 5481.87 3530.81 5481.87 3536.89 5481.87 3541.81 5486.8 3541.81 5492.87Z" stroke="#9E480E" stroke-width="3.4375" stroke-linejoin="round" stroke-miterlimit="10" fill="#9E480E"/><path d="M3657.81 5608.87C3657.81 5614.95 3652.89 5619.87 3646.81 5619.87 3640.74 5619.87 3635.81 5614.95 3635.81 5608.87 3635.81 5602.8 3640.74 5597.87 3646.81 5597.87 3652.89 5597.87 3657.81 5602.8 3657.81 5608.87Z" stroke="#9E480E" stroke-width="3.4375" stroke-linejoin="round" stroke-miterlimit="10" fill="#9E480E"/><path d="M3773.81 5639.87C3773.81 5645.95 3768.89 5650.87 3762.81 5650.87 3756.74 5650.87 3751.81 5645.95 3751.81 5639.87 3751.81 5633.8 3756.74 5628.87 3762.81 5628.87 3768.89 5628.87 3773.81 5633.8 3773.81 5639.87Z" stroke="#9E480E" stroke-width="3.4375" stroke-linejoin="round" stroke-miterlimit="10" fill="#9E480E"/><path d="M3889.81 5652.87C3889.81 5658.95 3884.89 5663.87 3878.81 5663.87 3872.74 5663.87 3867.81 5658.95 3867.81 5652.87 3867.81 5646.8 3872.74 5641.87 3878.81 5641.87 3884.89 5641.87 3889.81 5646.8 3889.81 5652.87Z" stroke="#9E480E" stroke-width="3.4375" stroke-linejoin="round" stroke-miterlimit="10" fill="#9E480E"/><path d="M4005.81 5687.87C4005.81 5693.95 4000.89 5698.87 3994.81 5698.87 3988.74 5698.87 3983.81 5693.95 3983.81 5687.87 3983.81 5681.8 3988.74 5676.87 3994.81 5676.87 4000.89 5676.87 4005.81 5681.8 4005.81 5687.87Z" stroke="#9E480E" stroke-width="3.4375" stroke-linejoin="round" stroke-miterlimit="10" fill="#9E480E"/><path d="M4121.81 5722.87C4121.81 5728.95 4116.89 5733.87 4110.81 5733.87 4104.74 5733.87 4099.81 5728.95 4099.81 5722.87 4099.81 5716.8 4104.74 5711.87 4110.81 5711.87 4116.89 5711.87 4121.81 5716.8 4121.81 5722.87Z" stroke="#9E480E" stroke-width="3.4375" stroke-linejoin="round" stroke-miterlimit="10" fill="#9E480E"/><path d="M4237.81 5732.87C4237.81 5738.95 4232.89 5743.87 4226.81 5743.87 4220.74 5743.87 4215.81 5738.95 4215.81 5732.87 4215.81 5726.8 4220.74 5721.87 4226.81 5721.87 4232.89 5721.87 4237.81 5726.8 4237.81 5732.87Z" stroke="#9E480E" stroke-width="3.4375" stroke-linejoin="round" stroke-miterlimit="10" fill="#9E480E"/><path d="M4353.81 5740.87C4353.81 5746.95 4348.89 5751.87 4342.81 5751.87 4336.74 5751.87 4331.81 5746.95 4331.81 5740.87 4331.81 5734.8 4336.74 5729.87 4342.81 5729.87 4348.89 5729.87 4353.81 5734.8 4353.81 5740.87Z" stroke="#9E480E" stroke-width="3.4375" stroke-linejoin="round" stroke-miterlimit="10" fill="#9E480E"/><path d="M4469.81 5750.87C4469.81 5756.95 4464.89 5761.87 4458.81 5761.87 4452.74 5761.87 4447.81 5756.95 4447.81 5750.87 4447.81 5744.8 4452.74 5739.87 4458.81 5739.87 4464.89 5739.87 4469.81 5744.8 4469.81 5750.87Z" stroke="#9E480E" stroke-width="3.4375" stroke-linejoin="round" stroke-miterlimit="10" fill="#9E480E"/><path d="M4585.81 5754.87C4585.81 5760.95 4580.89 5765.87 4574.81 5765.87 4568.74 5765.87 4563.81 5760.95 4563.81 5754.87 4563.81 5748.8 4568.74 5743.87 4574.81 5743.87 4580.89 5743.87 4585.81 5748.8 4585.81 5754.87Z" stroke="#9E480E" stroke-width="3.4375" stroke-linejoin="round" stroke-miterlimit="10" fill="#9E480E"/><path d="M4701.81 5749.87C4701.81 5755.95 4696.89 5760.87 4690.81 5760.87 4684.74 5760.87 4679.81 5755.95 4679.81 5749.87 4679.81 5743.8 4684.74 5738.87 4690.81 5738.87 4696.89 5738.87 4701.81 5743.8 4701.81 5749.87Z" stroke="#9E480E" stroke-width="3.4375" stroke-linejoin="round" stroke-miterlimit="10" fill="#9E480E"/><path d="M4817.81 5762.87C4817.81 5768.95 4812.89 5773.87 4806.81 5773.87 4800.74 5773.87 4795.81 5768.95 4795.81 5762.87 4795.81 5756.8 4800.74 5751.87 4806.81 5751.87 4812.89 5751.87 4817.81 5756.8 4817.81 5762.87Z" stroke="#9E480E" stroke-width="3.4375" stroke-linejoin="round" stroke-miterlimit="10" fill="#9E480E"/><path d="M4933.81 5766.87C4933.81 5772.95 4928.89 5777.87 4922.81 5777.87 4916.74 5777.87 4911.81 5772.95 4911.81 5766.87 4911.81 5760.8 4916.74 5755.87 4922.81 5755.87 4928.89 5755.87 4933.81 5760.8 4933.81 5766.87Z" stroke="#9E480E" stroke-width="3.4375" stroke-linejoin="round" stroke-miterlimit="10" fill="#9E480E"/></g><g clip-path="url(#clip12)"><text font-family="Arial,Arial_MSFontService,sans-serif" font-weight="400" font-size="41" transform="matrix(1 0 0 1 2718.38 5961)">0</text></g><g clip-path="url(#clip13)"><text font-family="Arial,Arial_MSFontService,sans-serif" font-weight="400" font-size="41" transform="matrix(1 0 0 1 2695.44 5824)">50</text></g><g clip-path="url(#clip14)"><text font-family="Arial,Arial_MSFontService,sans-serif" font-weight="400" font-size="41" transform="matrix(1 0 0 1 2672.5 5686)">100</text></g><g clip-path="url(#clip15)"><text font-family="Arial,Arial_MSFontService,sans-serif" font-weight="400" font-size="41" transform="matrix(1 0 0 1 2672.5 5549)">150</text></g><g clip-path="url(#clip16)"><text font-family="Arial,Arial_MSFontService,sans-serif" font-weight="400" font-size="41" transform="matrix(1 0 0 1 2672.5 5412)">200</text></g><g clip-path="url(#clip17)"><text font-family="Arial,Arial_MSFontService,sans-serif" font-weight="400" font-size="41" transform="matrix(1 0 0 1 2672.5 5275)">250</text></g><g clip-path="url(#clip18)"><text font-family="Arial,Arial_MSFontService,sans-serif" font-weight="400" font-size="41" transform="matrix(1 0 0 1 2672.5 5137)">300</text></g><g clip-path="url(#clip19)"><text font-family="Arial,Arial_MSFontService,sans-serif" font-weight="400" font-size="41" transform="matrix(1 0 0 1 2823.32 6010)">0</text></g><g clip-path="url(#clip20)"><text font-family="Arial,Arial_MSFontService,sans-serif" font-weight="400" font-size="41" transform="matrix(1 0 0 1 2939.3 6010)">2</text></g><g clip-path="url(#clip21)"><text font-family="Arial,Arial_MSFontService,sans-serif" font-weight="400" font-size="41" transform="matrix(1 0 0 1 3055.28 6010)">8</text></g><g clip-path="url(#clip22)"><text font-family="Arial,Arial_MSFontService,sans-serif" font-weight="400" font-size="41" transform="matrix(1 0 0 1 3159.79 6010)">15</text></g><g clip-path="url(#clip23)"><text font-family="Arial,Arial_MSFontService,sans-serif" font-weight="400" font-size="41" transform="matrix(1 0 0 1 3275.78 6010)">50</text></g><g clip-path="url(#clip24)"><text font-family="Arial,Arial_MSFontService,sans-serif" font-weight="400" font-size="41" transform="matrix(1 0 0 1 3380.29 6010)">100</text></g><g clip-path="url(#clip25)"><text font-family="Arial,Arial_MSFontService,sans-serif" font-weight="400" font-size="41" transform="matrix(1 0 0 1 3496.27 6010)">200</text></g><g clip-path="url(#clip26)"><text font-family="Arial,Arial_MSFontService,sans-serif" font-weight="400" font-size="41" transform="matrix(1 0 0 1 3612.26 6010)">300</text></g><g clip-path="url(#clip27)"><text font-family="Arial,Arial_MSFontService,sans-serif" font-weight="400" font-size="41" transform="matrix(1 0 0 1 3728.24 6010)">400</text></g><g clip-path="url(#clip28)"><text font-family="Arial,Arial_MSFontService,sans-serif" font-weight="400" font-size="41" transform="matrix(1 0 0 1 3844.22 6010)">500</text></g><g clip-path="url(#clip29)"><text font-family="Arial,Arial_MSFontService,sans-serif" font-weight="400" font-size="41" transform="matrix(1 0 0 1 3960.2 6010)">700</text></g><g clip-path="url(#clip30)"><text font-family="Arial,Arial_MSFontService,sans-serif" font-weight="400" font-size="41" transform="matrix(1 0 0 1 4064.72 6010)">1000</text></g><g clip-path="url(#clip31)"><text font-family="Arial,Arial_MSFontService,sans-serif" font-weight="400" font-size="41" transform="matrix(1 0 0 1 4180.7 6010)">1300</text></g><g clip-path="url(#clip32)"><text font-family="Arial,Arial_MSFontService,sans-serif" font-weight="400" font-size="41" transform="matrix(1 0 0 1 4296.68 6010)">1700</text></g><g clip-path="url(#clip33)"><text font-family="Arial,Arial_MSFontService,sans-serif" font-weight="400" font-size="41" transform="matrix(1 0 0 1 4412.66 6010)">2500</text></g><g clip-path="url(#clip34)"><text font-family="Arial,Arial_MSFontService,sans-serif" font-weight="400" font-size="41" transform="matrix(1 0 0 1 4528.65 6010)">3500</text></g><g clip-path="url(#clip35)"><text font-family="Arial,Arial_MSFontService,sans-serif" font-weight="400" font-size="41" transform="matrix(1 0 0 1 4644.63 6010)">5000</text></g><g clip-path="url(#clip36)"><text font-family="Arial,Arial_MSFontService,sans-serif" font-weight="400" font-size="41" transform="matrix(1 0 0 1 4760.61 6010)">9000</text></g><g clip-path="url(#clip37)"><text font-family="Arial,Arial_MSFontService,sans-serif" font-weight="400" font-size="41" transform="matrix(1 0 0 1 4865.12 6010)">20000</text></g><g clip-path="url(#clip38)"><text font-family="Calibri,Calibri_MSFontService,sans-serif" font-weight="700" font-size="55" transform="matrix(6.12323e-17 -1 1 6.12323e-17 2643.6 5673)">Latency (ns)</text></g><g clip-path="url(#clip39)"><text font-family="Calibri,Calibri_MSFontService,sans-serif" font-weight="700" font-size="55" transform="matrix(1 0 0 1 3744.37 6085)">Inject Delay </text></g><g clip-path="url(#clip40)"><text font-family="Calibri,Calibri_MSFontService,sans-serif" font-weight="700" font-size="83" transform="matrix(1 0 0 1 2935.45 4945)">Injected Latency Measurements for Intel Memory </text></g><g clip-path="url(#clip41)"><text font-family="Calibri,Calibri_MSFontService,sans-serif" font-weight="700" font-size="83" transform="matrix(1 0 0 1 3305.71 5045)">Latency Checker (256 Bytes)</text></g><g clip-path="url(#clip42)"><path d="M2937 6192 3025 6192" stroke="#ED7D31" stroke-width="10.3125" stroke-linecap="round" stroke-linejoin="round" stroke-miterlimit="10" fill="none" fill-rule="evenodd"/></g><g clip-path="url(#clip43)"><path d="M2988.03 6191C2988.03 6195.43 2984.43 6199.03 2980 6199.03 2975.57 6199.03 2971.97 6195.43 2971.97 6191 2971.97 6186.57 2975.57 6182.97 2980 6182.97 2984.43 6182.97 2988.03 6186.57 2988.03 6191Z" stroke="#ED7D31" stroke-width="3.4375" stroke-linejoin="round" stroke-miterlimit="10" fill="#ED7D31"/></g><g clip-path="url(#clip44)"><text font-family="Arial,Arial_MSFontService,sans-serif" font-weight="400" font-size="37" transform="matrix(1 0 0 1 3034.11 6203)">Latency (ns) 100% non-temporal write</text></g><g clip-path="url(#clip45)"><path d="M3797 6192 3885 6192" stroke="#FFC000" stroke-width="10.3125" stroke-linecap="round" stroke-linejoin="round" stroke-miterlimit="10" fill="none" fill-rule="evenodd"/></g><g clip-path="url(#clip46)"><path d="M3849 6191C3849 6195.43 3845.19 6199.03 3840.5 6199.03 3835.81 6199.03 3832 6195.43 3832 6191 3832 6186.57 3835.81 6182.97 3840.5 6182.97 3845.19 6182.97 3849 6186.57 3849 6191Z" stroke="#FFC000" stroke-width="3.4375" stroke-linejoin="round" stroke-miterlimit="10" fill="#FFC000"/></g><g clip-path="url(#clip47)"><text font-family="Arial,Arial_MSFontService,sans-serif" font-weight="400" font-size="37" transform="matrix(1 0 0 1 3894.32 6203)">Latency (ns)2 reads and 1 non-temporal write</text></g><g clip-path="url(#clip48)"><path d="M2937 6260 3025 6260" stroke="#70AD47" stroke-width="10.3125" stroke-linecap="round" stroke-linejoin="round" stroke-miterlimit="10" fill="none" fill-rule="evenodd"/></g><g clip-path="url(#clip49)"><path d="M2988.03 6259C2988.03 6263.43 2984.43 6267.03 2980 6267.03 2975.57 6267.03 2971.97 6263.43 2971.97 6259 2971.97 6254.57 2975.57 6250.97 2980 6250.97 2984.43 6250.97 2988.03 6254.57 2988.03 6259Z" stroke="#70AD47" stroke-width="3.4375" stroke-linejoin="round" stroke-miterlimit="10" fill="#70AD47"/></g><g clip-path="url(#clip50)"><text font-family="Arial,Arial_MSFontService,sans-serif" font-weight="400" font-size="37" transform="matrix(1 0 0 1 3034.11 6271)">Latency (ns) 1 read and 1 non-temporal write</text></g><g clip-path="url(#clip51)"><path d="M3797 6260 3885 6260" stroke="#9E480E" stroke-width="10.3125" stroke-linecap="round" stroke-linejoin="round" stroke-miterlimit="10" fill="none" fill-rule="evenodd"/></g><g clip-path="url(#clip52)"><path d="M3849 6259C3849 6263.43 3845.19 6267.03 3840.5 6267.03 3835.81 6267.03 3832 6263.43 3832 6259 3832 6254.57 3835.81 6250.97 3840.5 6250.97 3845.19 6250.97 3849 6254.57 3849 6259Z" stroke="#9E480E" stroke-width="3.4375" stroke-linejoin="round" stroke-miterlimit="10" fill="#9E480E"/></g><g clip-path="url(#clip53)"><text font-family="Arial,Arial_MSFontService,sans-serif" font-weight="400" font-size="37" transform="matrix(1 0 0 1 3894.32 6271)">Latency (ns) 3 reads and 1 non-temporal write</text></g></g></svg>