<svg width="2292" height="1401" xmlns="http://www.w3.org/2000/svg" xmlns:xlink="http://www.w3.org/1999/xlink" xml:space="preserve" overflow="hidden"><defs><clipPath id="clip0"><rect x="2588" y="1419" width="2292" height="1401"/></clipPath><clipPath id="clip1"><rect x="2588" y="1419" width="2291" height="1400"/></clipPath><clipPath id="clip2"><rect x="2588" y="1419" width="2291" height="1400"/></clipPath><clipPath id="clip3"><rect x="2588" y="1419" width="2291" height="1400"/></clipPath><clipPath id="clip4"><rect x="2826" y="1700" width="2006" height="683"/></clipPath><clipPath id="clip5"><rect x="2588" y="1419" width="2291" height="1400"/></clipPath><clipPath id="clip6"><rect x="2826" y="1700" width="2006" height="683"/></clipPath><clipPath id="clip7"><rect x="2588" y="1419" width="2291" height="1400"/></clipPath><clipPath id="clip8"><rect x="2826" y="1700" width="2006" height="683"/></clipPath><clipPath id="clip9"><rect x="2588" y="1419" width="2291" height="1400"/></clipPath><clipPath id="clip10"><rect x="2826" y="1700" width="2006" height="683"/></clipPath><clipPath id="clip11"><rect x="2588" y="1419" width="2291" height="1400"/></clipPath><clipPath id="clip12"><rect x="2588" y="1419" width="2291" height="1400"/></clipPath><clipPath id="clip13"><rect x="2588" y="1419" width="2291" height="1400"/></clipPath><clipPath id="clip14"><rect x="2588" y="1419" width="2291" height="1400"/></clipPath><clipPath id="clip15"><rect x="2588" y="1419" width="2291" height="1400"/></clipPath><clipPath id="clip16"><rect x="2588" y="1419" width="2291" height="1400"/></clipPath><clipPath id="clip17"><rect x="2588" y="1419" width="2291" height="1400"/></clipPath><clipPath id="clip18"><rect x="2588" y="1419" width="2291" height="1400"/></clipPath><clipPath id="clip19"><rect x="2588" y="1419" width="2291" height="1400"/></clipPath><clipPath id="clip20"><rect x="2588" y="1419" width="2291" height="1400"/></clipPath><clipPath id="clip21"><rect x="2588" y="1419" width="2291" height="1400"/></clipPath><clipPath id="clip22"><rect x="2588" y="1419" width="2291" height="1400"/></clipPath><clipPath id="clip23"><rect x="2588" y="1419" width="2291" height="1400"/></clipPath><clipPath id="clip24"><rect x="2588" y="1419" width="2291" height="1400"/></clipPath><clipPath id="clip25"><rect x="2588" y="1419" width="2291" height="1400"/></clipPath><clipPath id="clip26"><rect x="2588" y="1419" width="2291" height="1400"/></clipPath><clipPath id="clip27"><rect x="2588" y="1419" width="2291" height="1400"/></clipPath><clipPath id="clip28"><rect x="2588" y="1419" width="2291" height="1400"/></clipPath><clipPath id="clip29"><rect x="2588" y="1419" width="2291" height="1400"/></clipPath><clipPath id="clip30"><rect x="2588" y="1419" width="2291" height="1400"/></clipPath><clipPath id="clip31"><rect x="2588" y="1419" width="2291" height="1400"/></clipPath><clipPath id="clip32"><rect x="2588" y="1419" width="2291" height="1400"/></clipPath><clipPath id="clip33"><rect x="2588" y="1419" width="2291" height="1400"/></clipPath><clipPath id="clip34"><rect x="2588" y="1419" width="2291" height="1400"/></clipPath><clipPath id="clip35"><rect x="2588" y="1419" width="2291" height="1400"/></clipPath><clipPath id="clip36"><rect x="2588" y="1419" width="2291" height="1400"/></clipPath><clipPath id="clip37"><rect x="2588" y="1419" width="2291" height="1400"/></clipPath><clipPath id="clip38"><rect x="2588" y="1419" width="2291" height="1400"/></clipPath><clipPath id="clip39"><rect x="2588" y="1419" width="2291" height="1400"/></clipPath><clipPath id="clip40"><rect x="2588" y="1419" width="2291" height="1400"/></clipPath><clipPath id="clip41"><rect x="2588" y="1419" width="2291" height="1400"/></clipPath><clipPath id="clip42"><rect x="2588" y="1419" width="2291" height="1400"/></clipPath><clipPath id="clip43"><rect x="2588" y="1419" width="2291" height="1400"/></clipPath><clipPath id="clip44"><rect x="2588" y="1419" width="2291" height="1400"/></clipPath><clipPath id="clip45"><rect x="2588" y="1419" width="2291" height="1400"/></clipPath><clipPath id="clip46"><rect x="2588" y="1419" width="2291" height="1400"/></clipPath><clipPath id="clip47"><rect x="2588" y="1419" width="2291" height="1400"/></clipPath><clipPath id="clip48"><rect x="2588" y="1419" width="2291" height="1400"/></clipPath><clipPath id="clip49"><rect x="2588" y="1419" width="2291" height="1400"/></clipPath><clipPath id="clip50"><rect x="2588" y="1419" width="2291" height="1400"/></clipPath><clipPath id="clip51"><rect x="2588" y="1419" width="2291" height="1400"/></clipPath><clipPath id="clip52"><rect x="2588" y="1419" width="2291" height="1400"/></clipPath><clipPath id="clip53"><rect x="2588" y="1419" width="2291" height="1400"/></clipPath></defs><g clip-path="url(#clip0)" transform="translate(-2588 -1419)"><rect x="2588" y="1419" width="2292" height="1401" fill="#FFFFFF"/><g clip-path="url(#clip1)"><path d="M2826.5 2357.58 4829.5 2357.58M2826.5 2334.58 4829.5 2334.58M2826.5 2312.58 4829.5 2312.58M2826.5 2289.58 4829.5 2289.58M2826.5 2244.57 4829.5 2244.57M2826.5 2221.57 4829.5 2221.57M2826.5 2198.57 4829.5 2198.57M2826.5 2176.57 4829.5 2176.57M2826.5 2130.57 4829.5 2130.57M2826.5 2108.57 4829.5 2108.57M2826.5 2085.57 4829.5 2085.57M2826.5 2062.57 4829.5 2062.57M2826.5 2017.57 4829.5 2017.57M2826.5 1995.57 4829.5 1995.57M2826.5 1972.56 4829.5 1972.56M2826.5 1949.56 4829.5 1949.56M2826.5 1904.56 4829.5 1904.56M2826.5 1881.56 4829.5 1881.56M2826.5 1859.56 4829.5 1859.56M2826.5 1836.56 4829.5 1836.56M2826.5 1791.56 4829.5 1791.56M2826.5 1768.56 4829.5 1768.56M2826.5 1745.56 4829.5 1745.56M2826.5 1723.56 4829.5 1723.56" stroke="#F2F2F2" stroke-width="3.4375" stroke-linejoin="round" stroke-miterlimit="10" fill="none"/></g><g clip-path="url(#clip2)"><path d="M2826.5 2266.57 4829.5 2266.57M2826.5 2153.57 4829.5 2153.57M2826.5 2040.57 4829.5 2040.57M2826.5 1927.56 4829.5 1927.56M2826.5 1813.56 4829.5 1813.56M2826.5 1700.5 4829.5 1700.5" stroke="#D9D9D9" stroke-width="3.4375" stroke-linejoin="round" stroke-miterlimit="10" fill="none"/></g><g clip-path="url(#clip3)"><path d="M2826.5 2380.5 4829.5 2380.5" stroke="#D9D9D9" stroke-width="3.4375" stroke-linejoin="round" stroke-miterlimit="10" fill="none" fill-rule="evenodd"/></g><g clip-path="url(#clip4)"><path d="M2880 1959.06 2985.1 1961.06 3090.1 1923 3196.1 1955.06 3301.11 2163.07 3406.11 2177.07 3512.12 2193.07 3617.12 2197.07 3723.12 2199.07 3828.13 2201.07 3933.13 2203.07 4039.13 2205.07 4144.14 2205.07 4250.14 2204.07 4355.14 2205.07 4460.15 2207.07 4566.15 2207.07 4671.15 2207.07 4777 2208" stroke="#ED7D31" stroke-width="10.3125" stroke-linecap="round" stroke-linejoin="round" stroke-miterlimit="10" fill="none"/></g><g clip-path="url(#clip5)"><path d="M2890.73 1959.72C2890.73 1965.79 2885.81 1970.72 2879.73 1970.72 2873.66 1970.72 2868.74 1965.79 2868.74 1959.72 2868.74 1953.64 2873.66 1948.72 2879.73 1948.72 2885.81 1948.72 2890.73 1953.64 2890.73 1959.72Z" stroke="#ED7D31" stroke-width="3.4375" stroke-linejoin="round" stroke-miterlimit="10" fill="#ED7D31"/><path d="M2995.73 1960.72C2995.73 1966.79 2990.81 1971.72 2984.73 1971.72 2978.66 1971.72 2973.74 1966.79 2973.74 1960.72 2973.74 1954.64 2978.66 1949.72 2984.73 1949.72 2990.81 1949.72 2995.73 1954.64 2995.73 1960.72Z" stroke="#ED7D31" stroke-width="3.4375" stroke-linejoin="round" stroke-miterlimit="10" fill="#ED7D31"/><path d="M3101.73 1923.72C3101.73 1929.79 3096.81 1934.72 3090.74 1934.72 3084.66 1934.72 3079.74 1929.79 3079.74 1923.72 3079.74 1917.64 3084.66 1912.72 3090.74 1912.72 3096.81 1912.72 3101.73 1917.64 3101.73 1923.72Z" stroke="#ED7D31" stroke-width="3.4375" stroke-linejoin="round" stroke-miterlimit="10" fill="#ED7D31"/><path d="M3206.73 1954.72C3206.73 1960.79 3201.81 1965.72 3195.73 1965.72 3189.66 1965.72 3184.74 1960.79 3184.74 1954.72 3184.74 1948.64 3189.66 1943.72 3195.73 1943.72 3201.81 1943.72 3206.73 1948.64 3206.73 1954.72Z" stroke="#ED7D31" stroke-width="3.4375" stroke-linejoin="round" stroke-miterlimit="10" fill="#ED7D31"/><path d="M3312.73 2163.72C3312.73 2169.79 3307.81 2174.72 3301.73 2174.72 3295.66 2174.72 3290.74 2169.79 3290.74 2163.72 3290.74 2157.64 3295.66 2152.72 3301.73 2152.72 3307.81 2152.72 3312.73 2157.64 3312.73 2163.72Z" stroke="#ED7D31" stroke-width="3.4375" stroke-linejoin="round" stroke-miterlimit="10" fill="#ED7D31"/><path d="M3417.73 2177.72C3417.73 2183.79 3412.81 2188.72 3406.73 2188.72 3400.66 2188.72 3395.74 2183.79 3395.74 2177.72 3395.74 2171.64 3400.66 2166.72 3406.73 2166.72 3412.81 2166.72 3417.73 2171.64 3417.73 2177.72Z" stroke="#ED7D31" stroke-width="3.4375" stroke-linejoin="round" stroke-miterlimit="10" fill="#ED7D31"/><path d="M3522.73 2192.72C3522.73 2198.79 3517.81 2203.72 3511.73 2203.72 3505.66 2203.72 3500.74 2198.79 3500.74 2192.72 3500.74 2186.64 3505.66 2181.72 3511.73 2181.72 3517.81 2181.72 3522.73 2186.64 3522.73 2192.72Z" stroke="#ED7D31" stroke-width="3.4375" stroke-linejoin="round" stroke-miterlimit="10" fill="#ED7D31"/><path d="M3628.73 2196.72C3628.73 2202.79 3623.81 2207.72 3617.74 2207.72 3611.66 2207.72 3606.74 2202.79 3606.74 2196.72 3606.74 2190.64 3611.66 2185.72 3617.74 2185.72 3623.81 2185.72 3628.73 2190.64 3628.73 2196.72Z" stroke="#ED7D31" stroke-width="3.4375" stroke-linejoin="round" stroke-miterlimit="10" fill="#ED7D31"/><path d="M3733.73 2199.72C3733.73 2205.79 3728.81 2210.72 3722.73 2210.72 3716.66 2210.72 3711.74 2205.79 3711.74 2199.72 3711.74 2193.64 3716.66 2188.72 3722.73 2188.72 3728.81 2188.72 3733.73 2193.64 3733.73 2199.72Z" stroke="#ED7D31" stroke-width="3.4375" stroke-linejoin="round" stroke-miterlimit="10" fill="#ED7D31"/><path d="M3839.73 2201.72C3839.73 2207.79 3834.81 2212.72 3828.74 2212.72 3822.66 2212.72 3817.74 2207.79 3817.74 2201.72 3817.74 2195.64 3822.66 2190.72 3828.74 2190.72 3834.81 2190.72 3839.73 2195.64 3839.73 2201.72Z" stroke="#ED7D31" stroke-width="3.4375" stroke-linejoin="round" stroke-miterlimit="10" fill="#ED7D31"/><path d="M3944.73 2203.72C3944.73 2209.79 3939.81 2214.72 3933.73 2214.72 3927.66 2214.72 3922.74 2209.79 3922.74 2203.72 3922.74 2197.64 3927.66 2192.72 3933.73 2192.72 3939.81 2192.72 3944.73 2197.64 3944.73 2203.72Z" stroke="#ED7D31" stroke-width="3.4375" stroke-linejoin="round" stroke-miterlimit="10" fill="#ED7D31"/><path d="M4049.73 2204.72C4049.73 2210.79 4044.81 2215.72 4038.73 2215.72 4032.66 2215.72 4027.74 2210.79 4027.74 2204.72 4027.74 2198.64 4032.66 2193.72 4038.73 2193.72 4044.81 2193.72 4049.73 2198.64 4049.73 2204.72Z" stroke="#ED7D31" stroke-width="3.4375" stroke-linejoin="round" stroke-miterlimit="10" fill="#ED7D31"/><path d="M4155.73 2205.72C4155.73 2211.79 4150.81 2216.72 4144.74 2216.72 4138.66 2216.72 4133.74 2211.79 4133.74 2205.72 4133.74 2199.64 4138.66 2194.72 4144.74 2194.72 4150.81 2194.72 4155.73 2199.64 4155.73 2205.72Z" stroke="#ED7D31" stroke-width="3.4375" stroke-linejoin="round" stroke-miterlimit="10" fill="#ED7D31"/><path d="M4260.73 2204.72C4260.73 2210.79 4255.81 2215.72 4249.73 2215.72 4243.66 2215.72 4238.73 2210.79 4238.73 2204.72 4238.73 2198.64 4243.66 2193.72 4249.73 2193.72 4255.81 2193.72 4260.73 2198.64 4260.73 2204.72Z" stroke="#ED7D31" stroke-width="3.4375" stroke-linejoin="round" stroke-miterlimit="10" fill="#ED7D31"/><path d="M4366.73 2205.72C4366.73 2211.79 4361.81 2216.72 4355.74 2216.72 4349.66 2216.72 4344.74 2211.79 4344.74 2205.72 4344.74 2199.64 4349.66 2194.72 4355.74 2194.72 4361.81 2194.72 4366.73 2199.64 4366.73 2205.72Z" stroke="#ED7D31" stroke-width="3.4375" stroke-linejoin="round" stroke-miterlimit="10" fill="#ED7D31"/><path d="M4471.73 2206.72C4471.73 2212.79 4466.81 2217.72 4460.73 2217.72 4454.66 2217.72 4449.73 2212.79 4449.73 2206.72 4449.73 2200.64 4454.66 2195.72 4460.73 2195.72 4466.81 2195.72 4471.73 2200.64 4471.73 2206.72Z" stroke="#ED7D31" stroke-width="3.4375" stroke-linejoin="round" stroke-miterlimit="10" fill="#ED7D31"/><path d="M4576.73 2207.72C4576.73 2213.79 4571.81 2218.72 4565.74 2218.72 4559.66 2218.72 4554.74 2213.79 4554.74 2207.72 4554.74 2201.64 4559.66 2196.72 4565.74 2196.72 4571.81 2196.72 4576.73 2201.64 4576.73 2207.72Z" stroke="#ED7D31" stroke-width="3.4375" stroke-linejoin="round" stroke-miterlimit="10" fill="#ED7D31"/><path d="M4682.73 2206.72C4682.73 2212.79 4677.81 2217.72 4671.74 2217.72 4665.66 2217.72 4660.74 2212.79 4660.74 2206.72 4660.74 2200.64 4665.66 2195.72 4671.74 2195.72 4677.81 2195.72 4682.73 2200.64 4682.73 2206.72Z" stroke="#ED7D31" stroke-width="3.4375" stroke-linejoin="round" stroke-miterlimit="10" fill="#ED7D31"/><path d="M4787.73 2207.72C4787.73 2213.79 4782.81 2218.72 4776.73 2218.72 4770.66 2218.72 4765.73 2213.79 4765.73 2207.72 4765.73 2201.64 4770.66 2196.72 4776.73 2196.72 4782.81 2196.72 4787.73 2201.64 4787.73 2207.72Z" stroke="#ED7D31" stroke-width="3.4375" stroke-linejoin="round" stroke-miterlimit="10" fill="#ED7D31"/></g><g clip-path="url(#clip6)"><path d="M2880 1832.06 2985.1 1823 3090.1 1832.06 3196.1 1831.06 3301.11 1834.06 3406.11 1855.06 3512.12 2122.07 3617.12 2154.07 3723.12 2168.07 3828.13 2174.07 3933.13 2181.07 4039.13 2186.07 4144.14 2183.07 4250.14 2196.07 4355.14 2199.07 4460.15 2195.07 4566.15 2204.07 4671.15 2205.07 4777 2206" stroke="#FFC000" stroke-width="10.3125" stroke-linecap="round" stroke-linejoin="round" stroke-miterlimit="10" fill="none"/></g><g clip-path="url(#clip7)"><path d="M2890.73 1832.72C2890.73 1838.79 2885.81 1843.72 2879.73 1843.72 2873.66 1843.72 2868.74 1838.79 2868.74 1832.72 2868.74 1826.64 2873.66 1821.72 2879.73 1821.72 2885.81 1821.72 2890.73 1826.64 2890.73 1832.72Z" stroke="#FFC000" stroke-width="3.4375" stroke-linejoin="round" stroke-miterlimit="10" fill="#FFC000"/><path d="M2995.73 1823.72C2995.73 1829.79 2990.81 1834.72 2984.73 1834.72 2978.66 1834.72 2973.74 1829.79 2973.74 1823.72 2973.74 1817.64 2978.66 1812.72 2984.73 1812.72 2990.81 1812.72 2995.73 1817.64 2995.73 1823.72Z" stroke="#FFC000" stroke-width="3.4375" stroke-linejoin="round" stroke-miterlimit="10" fill="#FFC000"/><path d="M3101.73 1831.72C3101.73 1837.79 3096.81 1842.72 3090.74 1842.72 3084.66 1842.72 3079.74 1837.79 3079.74 1831.72 3079.74 1825.64 3084.66 1820.72 3090.74 1820.72 3096.81 1820.72 3101.73 1825.64 3101.73 1831.72Z" stroke="#FFC000" stroke-width="3.4375" stroke-linejoin="round" stroke-miterlimit="10" fill="#FFC000"/><path d="M3206.73 1830.72C3206.73 1836.79 3201.81 1841.72 3195.73 1841.72 3189.66 1841.72 3184.74 1836.79 3184.74 1830.72 3184.74 1824.64 3189.66 1819.72 3195.73 1819.72 3201.81 1819.72 3206.73 1824.64 3206.73 1830.72Z" stroke="#FFC000" stroke-width="3.4375" stroke-linejoin="round" stroke-miterlimit="10" fill="#FFC000"/><path d="M3312.73 1834.72C3312.73 1840.79 3307.81 1845.72 3301.73 1845.72 3295.66 1845.72 3290.74 1840.79 3290.74 1834.72 3290.74 1828.64 3295.66 1823.72 3301.73 1823.72 3307.81 1823.72 3312.73 1828.64 3312.73 1834.72Z" stroke="#FFC000" stroke-width="3.4375" stroke-linejoin="round" stroke-miterlimit="10" fill="#FFC000"/><path d="M3417.73 1855.72C3417.73 1861.79 3412.81 1866.72 3406.73 1866.72 3400.66 1866.72 3395.74 1861.79 3395.74 1855.72 3395.74 1849.64 3400.66 1844.72 3406.73 1844.72 3412.81 1844.72 3417.73 1849.64 3417.73 1855.72Z" stroke="#FFC000" stroke-width="3.4375" stroke-linejoin="round" stroke-miterlimit="10" fill="#FFC000"/><path d="M3522.73 2122.72C3522.73 2128.79 3517.81 2133.72 3511.73 2133.72 3505.66 2133.72 3500.74 2128.79 3500.74 2122.72 3500.74 2116.64 3505.66 2111.72 3511.73 2111.72 3517.81 2111.72 3522.73 2116.64 3522.73 2122.72Z" stroke="#FFC000" stroke-width="3.4375" stroke-linejoin="round" stroke-miterlimit="10" fill="#FFC000"/><path d="M3628.73 2154.72C3628.73 2160.79 3623.81 2165.72 3617.74 2165.72 3611.66 2165.72 3606.74 2160.79 3606.74 2154.72 3606.74 2148.64 3611.66 2143.72 3617.74 2143.72 3623.81 2143.72 3628.73 2148.64 3628.73 2154.72Z" stroke="#FFC000" stroke-width="3.4375" stroke-linejoin="round" stroke-miterlimit="10" fill="#FFC000"/><path d="M3733.73 2167.72C3733.73 2173.79 3728.81 2178.72 3722.73 2178.72 3716.66 2178.72 3711.74 2173.79 3711.74 2167.72 3711.74 2161.64 3716.66 2156.72 3722.73 2156.72 3728.81 2156.72 3733.73 2161.64 3733.73 2167.72Z" stroke="#FFC000" stroke-width="3.4375" stroke-linejoin="round" stroke-miterlimit="10" fill="#FFC000"/><path d="M3839.73 2174.72C3839.73 2180.79 3834.81 2185.72 3828.74 2185.72 3822.66 2185.72 3817.74 2180.79 3817.74 2174.72 3817.74 2168.64 3822.66 2163.72 3828.74 2163.72 3834.81 2163.72 3839.73 2168.64 3839.73 2174.72Z" stroke="#FFC000" stroke-width="3.4375" stroke-linejoin="round" stroke-miterlimit="10" fill="#FFC000"/><path d="M3944.73 2180.72C3944.73 2186.79 3939.81 2191.72 3933.73 2191.72 3927.66 2191.72 3922.74 2186.79 3922.74 2180.72 3922.74 2174.64 3927.66 2169.72 3933.73 2169.72 3939.81 2169.72 3944.73 2174.64 3944.73 2180.72Z" stroke="#FFC000" stroke-width="3.4375" stroke-linejoin="round" stroke-miterlimit="10" fill="#FFC000"/><path d="M4049.73 2185.72C4049.73 2191.79 4044.81 2196.72 4038.73 2196.72 4032.66 2196.72 4027.74 2191.79 4027.74 2185.72 4027.74 2179.64 4032.66 2174.72 4038.73 2174.72 4044.81 2174.72 4049.73 2179.64 4049.73 2185.72Z" stroke="#FFC000" stroke-width="3.4375" stroke-linejoin="round" stroke-miterlimit="10" fill="#FFC000"/><path d="M4155.73 2183.72C4155.73 2189.79 4150.81 2194.72 4144.74 2194.72 4138.66 2194.72 4133.74 2189.79 4133.74 2183.72 4133.74 2177.64 4138.66 2172.72 4144.74 2172.72 4150.81 2172.72 4155.73 2177.64 4155.73 2183.72Z" stroke="#FFC000" stroke-width="3.4375" stroke-linejoin="round" stroke-miterlimit="10" fill="#FFC000"/><path d="M4260.73 2195.72C4260.73 2201.79 4255.81 2206.72 4249.73 2206.72 4243.66 2206.72 4238.73 2201.79 4238.73 2195.72 4238.73 2189.64 4243.66 2184.72 4249.73 2184.72 4255.81 2184.72 4260.73 2189.64 4260.73 2195.72Z" stroke="#FFC000" stroke-width="3.4375" stroke-linejoin="round" stroke-miterlimit="10" fill="#FFC000"/><path d="M4366.73 2198.72C4366.73 2204.79 4361.81 2209.72 4355.74 2209.72 4349.66 2209.72 4344.74 2204.79 4344.74 2198.72 4344.74 2192.64 4349.66 2187.72 4355.74 2187.72 4361.81 2187.72 4366.73 2192.64 4366.73 2198.72Z" stroke="#FFC000" stroke-width="3.4375" stroke-linejoin="round" stroke-miterlimit="10" fill="#FFC000"/><path d="M4471.73 2194.72C4471.73 2200.79 4466.81 2205.72 4460.73 2205.72 4454.66 2205.72 4449.73 2200.79 4449.73 2194.72 4449.73 2188.64 4454.66 2183.72 4460.73 2183.72 4466.81 2183.72 4471.73 2188.64 4471.73 2194.72Z" stroke="#FFC000" stroke-width="3.4375" stroke-linejoin="round" stroke-miterlimit="10" fill="#FFC000"/><path d="M4576.73 2203.72C4576.73 2209.79 4571.81 2214.72 4565.74 2214.72 4559.66 2214.72 4554.74 2209.79 4554.74 2203.72 4554.74 2197.64 4559.66 2192.72 4565.74 2192.72 4571.81 2192.72 4576.73 2197.64 4576.73 2203.72Z" stroke="#FFC000" stroke-width="3.4375" stroke-linejoin="round" stroke-miterlimit="10" fill="#FFC000"/><path d="M4682.73 2205.72C4682.73 2211.79 4677.81 2216.72 4671.74 2216.72 4665.66 2216.72 4660.74 2211.79 4660.74 2205.72 4660.74 2199.64 4665.66 2194.72 4671.74 2194.72 4677.81 2194.72 4682.73 2199.64 4682.73 2205.72Z" stroke="#FFC000" stroke-width="3.4375" stroke-linejoin="round" stroke-miterlimit="10" fill="#FFC000"/><path d="M4787.73 2205.72C4787.73 2211.79 4782.81 2216.72 4776.73 2216.72 4770.66 2216.72 4765.73 2211.79 4765.73 2205.72 4765.73 2199.64 4770.66 2194.72 4776.73 2194.72 4782.81 2194.72 4787.73 2199.64 4787.73 2205.72Z" stroke="#FFC000" stroke-width="3.4375" stroke-linejoin="round" stroke-miterlimit="10" fill="#FFC000"/></g><g clip-path="url(#clip8)"><path d="M2880 1812.06 2985.1 1812 3090.1 1812.06 3196.1 1812.06 3301.11 1873.06 3406.11 2057.07 3512.12 2160.07 3617.12 2173.07 3723.12 2179.07 3828.13 2184.07 3933.13 2191.07 4039.13 2196.07 4144.14 2199.07 4250.14 2201.07 4355.14 2203.07 4460.15 2204.07 4566.15 2206.07 4671.15 2206.07 4777 2207" stroke="#70AD47" stroke-width="10.3125" stroke-linecap="round" stroke-linejoin="round" stroke-miterlimit="10" fill="none"/></g><g clip-path="url(#clip9)"><path d="M2890.73 1811.72C2890.73 1817.79 2885.81 1822.72 2879.73 1822.72 2873.66 1822.72 2868.74 1817.79 2868.74 1811.72 2868.74 1805.64 2873.66 1800.72 2879.73 1800.72 2885.81 1800.72 2890.73 1805.64 2890.73 1811.72Z" stroke="#70AD47" stroke-width="3.4375" stroke-linejoin="round" stroke-miterlimit="10" fill="#70AD47"/><path d="M2995.73 1811.72C2995.73 1817.79 2990.81 1822.72 2984.73 1822.72 2978.66 1822.72 2973.74 1817.79 2973.74 1811.72 2973.74 1805.64 2978.66 1800.72 2984.73 1800.72 2990.81 1800.72 2995.73 1805.64 2995.73 1811.72Z" stroke="#70AD47" stroke-width="3.4375" stroke-linejoin="round" stroke-miterlimit="10" fill="#70AD47"/><path d="M3101.73 1812.72C3101.73 1818.79 3096.81 1823.72 3090.74 1823.72 3084.66 1823.72 3079.74 1818.79 3079.74 1812.72 3079.74 1806.64 3084.66 1801.72 3090.74 1801.72 3096.81 1801.72 3101.73 1806.64 3101.73 1812.72Z" stroke="#70AD47" stroke-width="3.4375" stroke-linejoin="round" stroke-miterlimit="10" fill="#70AD47"/><path d="M3206.73 1812.72C3206.73 1818.79 3201.81 1823.72 3195.73 1823.72 3189.66 1823.72 3184.74 1818.79 3184.74 1812.72 3184.74 1806.64 3189.66 1801.72 3195.73 1801.72 3201.81 1801.72 3206.73 1806.64 3206.73 1812.72Z" stroke="#70AD47" stroke-width="3.4375" stroke-linejoin="round" stroke-miterlimit="10" fill="#70AD47"/><path d="M3312.73 1873.72C3312.73 1879.79 3307.81 1884.72 3301.73 1884.72 3295.66 1884.72 3290.74 1879.79 3290.74 1873.72 3290.74 1867.64 3295.66 1862.72 3301.73 1862.72 3307.81 1862.72 3312.73 1867.64 3312.73 1873.72Z" stroke="#70AD47" stroke-width="3.4375" stroke-linejoin="round" stroke-miterlimit="10" fill="#70AD47"/><path d="M3417.73 2057.72C3417.73 2063.79 3412.81 2068.72 3406.73 2068.72 3400.66 2068.72 3395.74 2063.79 3395.74 2057.72 3395.74 2051.64 3400.66 2046.72 3406.73 2046.72 3412.81 2046.72 3417.73 2051.64 3417.73 2057.72Z" stroke="#70AD47" stroke-width="3.4375" stroke-linejoin="round" stroke-miterlimit="10" fill="#70AD47"/><path d="M3522.73 2159.72C3522.73 2165.79 3517.81 2170.72 3511.73 2170.72 3505.66 2170.72 3500.74 2165.79 3500.74 2159.72 3500.74 2153.64 3505.66 2148.72 3511.73 2148.72 3517.81 2148.72 3522.73 2153.64 3522.73 2159.72Z" stroke="#70AD47" stroke-width="3.4375" stroke-linejoin="round" stroke-miterlimit="10" fill="#70AD47"/><path d="M3628.73 2172.72C3628.73 2178.79 3623.81 2183.72 3617.74 2183.72 3611.66 2183.72 3606.74 2178.79 3606.74 2172.72 3606.74 2166.64 3611.66 2161.72 3617.74 2161.72 3623.81 2161.72 3628.73 2166.64 3628.73 2172.72Z" stroke="#70AD47" stroke-width="3.4375" stroke-linejoin="round" stroke-miterlimit="10" fill="#70AD47"/><path d="M3733.73 2178.72C3733.73 2184.79 3728.81 2189.72 3722.73 2189.72 3716.66 2189.72 3711.74 2184.79 3711.74 2178.72 3711.74 2172.64 3716.66 2167.72 3722.73 2167.72 3728.81 2167.72 3733.73 2172.64 3733.73 2178.72Z" stroke="#70AD47" stroke-width="3.4375" stroke-linejoin="round" stroke-miterlimit="10" fill="#70AD47"/><path d="M3839.73 2184.72C3839.73 2190.79 3834.81 2195.72 3828.74 2195.72 3822.66 2195.72 3817.74 2190.79 3817.74 2184.72 3817.74 2178.64 3822.66 2173.72 3828.74 2173.72 3834.81 2173.72 3839.73 2178.64 3839.73 2184.72Z" stroke="#70AD47" stroke-width="3.4375" stroke-linejoin="round" stroke-miterlimit="10" fill="#70AD47"/><path d="M3944.73 2191.72C3944.73 2197.79 3939.81 2202.72 3933.73 2202.72 3927.66 2202.72 3922.74 2197.79 3922.74 2191.72 3922.74 2185.64 3927.66 2180.72 3933.73 2180.72 3939.81 2180.72 3944.73 2185.64 3944.73 2191.72Z" stroke="#70AD47" stroke-width="3.4375" stroke-linejoin="round" stroke-miterlimit="10" fill="#70AD47"/><path d="M4049.73 2196.72C4049.73 2202.79 4044.81 2207.72 4038.73 2207.72 4032.66 2207.72 4027.74 2202.79 4027.74 2196.72 4027.74 2190.64 4032.66 2185.72 4038.73 2185.72 4044.81 2185.72 4049.73 2190.64 4049.73 2196.72Z" stroke="#70AD47" stroke-width="3.4375" stroke-linejoin="round" stroke-miterlimit="10" fill="#70AD47"/><path d="M4155.73 2198.72C4155.73 2204.79 4150.81 2209.72 4144.74 2209.72 4138.66 2209.72 4133.74 2204.79 4133.74 2198.72 4133.74 2192.64 4138.66 2187.72 4144.74 2187.72 4150.81 2187.72 4155.73 2192.64 4155.73 2198.72Z" stroke="#70AD47" stroke-width="3.4375" stroke-linejoin="round" stroke-miterlimit="10" fill="#70AD47"/><path d="M4260.73 2200.72C4260.73 2206.79 4255.81 2211.72 4249.73 2211.72 4243.66 2211.72 4238.73 2206.79 4238.73 2200.72 4238.73 2194.64 4243.66 2189.72 4249.73 2189.72 4255.81 2189.72 4260.73 2194.64 4260.73 2200.72Z" stroke="#70AD47" stroke-width="3.4375" stroke-linejoin="round" stroke-miterlimit="10" fill="#70AD47"/><path d="M4366.73 2202.72C4366.73 2208.79 4361.81 2213.72 4355.74 2213.72 4349.66 2213.72 4344.74 2208.79 4344.74 2202.72 4344.74 2196.64 4349.66 2191.72 4355.74 2191.72 4361.81 2191.72 4366.73 2196.64 4366.73 2202.72Z" stroke="#70AD47" stroke-width="3.4375" stroke-linejoin="round" stroke-miterlimit="10" fill="#70AD47"/><path d="M4471.73 2204.72C4471.73 2210.79 4466.81 2215.72 4460.73 2215.72 4454.66 2215.72 4449.73 2210.79 4449.73 2204.72 4449.73 2198.64 4454.66 2193.72 4460.73 2193.72 4466.81 2193.72 4471.73 2198.64 4471.73 2204.72Z" stroke="#70AD47" stroke-width="3.4375" stroke-linejoin="round" stroke-miterlimit="10" fill="#70AD47"/><path d="M4576.73 2205.72C4576.73 2211.79 4571.81 2216.72 4565.74 2216.72 4559.66 2216.72 4554.74 2211.79 4554.74 2205.72 4554.74 2199.64 4559.66 2194.72 4565.74 2194.72 4571.81 2194.72 4576.73 2199.64 4576.73 2205.72Z" stroke="#70AD47" stroke-width="3.4375" stroke-linejoin="round" stroke-miterlimit="10" fill="#70AD47"/><path d="M4682.73 2206.72C4682.73 2212.79 4677.81 2217.72 4671.74 2217.72 4665.66 2217.72 4660.74 2212.79 4660.74 2206.72 4660.74 2200.64 4665.66 2195.72 4671.74 2195.72 4677.81 2195.72 4682.73 2200.64 4682.73 2206.72Z" stroke="#70AD47" stroke-width="3.4375" stroke-linejoin="round" stroke-miterlimit="10" fill="#70AD47"/><path d="M4787.73 2207.72C4787.73 2213.79 4782.81 2218.72 4776.73 2218.72 4770.66 2218.72 4765.73 2213.79 4765.73 2207.72 4765.73 2201.64 4770.66 2196.72 4776.73 2196.72 4782.81 2196.72 4787.73 2201.64 4787.73 2207.72Z" stroke="#70AD47" stroke-width="3.4375" stroke-linejoin="round" stroke-miterlimit="10" fill="#70AD47"/></g><g clip-path="url(#clip10)"><path d="M2880 1853.06 2985.1 1851 3090.1 1854.06 3196.1 1856.06 3301.11 1955.06 3406.11 2080.07 3512.12 2153.07 3617.12 2171.07 3723.12 2179.07 3828.13 2182.07 3933.13 2190.07 4039.13 2195.07 4144.14 2197.07 4250.14 2186.07 4355.14 2202.07 4460.15 2203.07 4566.15 2203.07 4671.15 2206.07 4777 2207" stroke="#9E480E" stroke-width="10.3125" stroke-linecap="round" stroke-linejoin="round" stroke-miterlimit="10" fill="none"/></g><g clip-path="url(#clip11)"><path d="M2890.73 1853.72C2890.73 1859.79 2885.81 1864.72 2879.73 1864.72 2873.66 1864.72 2868.74 1859.79 2868.74 1853.72 2868.74 1847.64 2873.66 1842.72 2879.73 1842.72 2885.81 1842.72 2890.73 1847.64 2890.73 1853.72Z" stroke="#9E480E" stroke-width="3.4375" stroke-linejoin="round" stroke-miterlimit="10" fill="#9E480E"/><path d="M2995.73 1850.72C2995.73 1856.79 2990.81 1861.72 2984.73 1861.72 2978.66 1861.72 2973.74 1856.79 2973.74 1850.72 2973.74 1844.64 2978.66 1839.72 2984.73 1839.72 2990.81 1839.72 2995.73 1844.64 2995.73 1850.72Z" stroke="#9E480E" stroke-width="3.4375" stroke-linejoin="round" stroke-miterlimit="10" fill="#9E480E"/><path d="M3101.73 1853.72C3101.73 1859.79 3096.81 1864.72 3090.74 1864.72 3084.66 1864.72 3079.74 1859.79 3079.74 1853.72 3079.74 1847.64 3084.66 1842.72 3090.74 1842.72 3096.81 1842.72 3101.73 1847.64 3101.73 1853.72Z" stroke="#9E480E" stroke-width="3.4375" stroke-linejoin="round" stroke-miterlimit="10" fill="#9E480E"/><path d="M3206.73 1855.72C3206.73 1861.79 3201.81 1866.72 3195.73 1866.72 3189.66 1866.72 3184.74 1861.79 3184.74 1855.72 3184.74 1849.64 3189.66 1844.72 3195.73 1844.72 3201.81 1844.72 3206.73 1849.64 3206.73 1855.72Z" stroke="#9E480E" stroke-width="3.4375" stroke-linejoin="round" stroke-miterlimit="10" fill="#9E480E"/><path d="M3312.73 1954.72C3312.73 1960.79 3307.81 1965.72 3301.73 1965.72 3295.66 1965.72 3290.74 1960.79 3290.74 1954.72 3290.74 1948.64 3295.66 1943.72 3301.73 1943.72 3307.81 1943.72 3312.73 1948.64 3312.73 1954.72Z" stroke="#9E480E" stroke-width="3.4375" stroke-linejoin="round" stroke-miterlimit="10" fill="#9E480E"/><path d="M3417.73 2079.72C3417.73 2085.79 3412.81 2090.72 3406.73 2090.72 3400.66 2090.72 3395.74 2085.79 3395.74 2079.72 3395.74 2073.64 3400.66 2068.72 3406.73 2068.72 3412.81 2068.72 3417.73 2073.64 3417.73 2079.72Z" stroke="#9E480E" stroke-width="3.4375" stroke-linejoin="round" stroke-miterlimit="10" fill="#9E480E"/><path d="M3522.73 2153.72C3522.73 2159.79 3517.81 2164.72 3511.73 2164.72 3505.66 2164.72 3500.74 2159.79 3500.74 2153.72 3500.74 2147.64 3505.66 2142.72 3511.73 2142.72 3517.81 2142.72 3522.73 2147.64 3522.73 2153.72Z" stroke="#9E480E" stroke-width="3.4375" stroke-linejoin="round" stroke-miterlimit="10" fill="#9E480E"/><path d="M3628.73 2171.72C3628.73 2177.79 3623.81 2182.72 3617.74 2182.72 3611.66 2182.72 3606.74 2177.79 3606.74 2171.72 3606.74 2165.64 3611.66 2160.72 3617.74 2160.72 3623.81 2160.72 3628.73 2165.64 3628.73 2171.72Z" stroke="#9E480E" stroke-width="3.4375" stroke-linejoin="round" stroke-miterlimit="10" fill="#9E480E"/><path d="M3733.73 2179.72C3733.73 2185.79 3728.81 2190.72 3722.73 2190.72 3716.66 2190.72 3711.74 2185.79 3711.74 2179.72 3711.74 2173.64 3716.66 2168.72 3722.73 2168.72 3728.81 2168.72 3733.73 2173.64 3733.73 2179.72Z" stroke="#9E480E" stroke-width="3.4375" stroke-linejoin="round" stroke-miterlimit="10" fill="#9E480E"/><path d="M3839.73 2182.72C3839.73 2188.79 3834.81 2193.72 3828.74 2193.72 3822.66 2193.72 3817.74 2188.79 3817.74 2182.72 3817.74 2176.64 3822.66 2171.72 3828.74 2171.72 3834.81 2171.72 3839.73 2176.64 3839.73 2182.72Z" stroke="#9E480E" stroke-width="3.4375" stroke-linejoin="round" stroke-miterlimit="10" fill="#9E480E"/><path d="M3944.73 2189.72C3944.73 2195.79 3939.81 2200.72 3933.73 2200.72 3927.66 2200.72 3922.74 2195.79 3922.74 2189.72 3922.74 2183.64 3927.66 2178.72 3933.73 2178.72 3939.81 2178.72 3944.73 2183.64 3944.73 2189.72Z" stroke="#9E480E" stroke-width="3.4375" stroke-linejoin="round" stroke-miterlimit="10" fill="#9E480E"/><path d="M4049.73 2194.72C4049.73 2200.79 4044.81 2205.72 4038.73 2205.72 4032.66 2205.72 4027.74 2200.79 4027.74 2194.72 4027.74 2188.64 4032.66 2183.72 4038.73 2183.72 4044.81 2183.72 4049.73 2188.64 4049.73 2194.72Z" stroke="#9E480E" stroke-width="3.4375" stroke-linejoin="round" stroke-miterlimit="10" fill="#9E480E"/><path d="M4155.73 2197.72C4155.73 2203.79 4150.81 2208.72 4144.74 2208.72 4138.66 2208.72 4133.74 2203.79 4133.74 2197.72 4133.74 2191.64 4138.66 2186.72 4144.74 2186.72 4150.81 2186.72 4155.73 2191.64 4155.73 2197.72Z" stroke="#9E480E" stroke-width="3.4375" stroke-linejoin="round" stroke-miterlimit="10" fill="#9E480E"/><path d="M4260.73 2186.72C4260.73 2192.79 4255.81 2197.72 4249.73 2197.72 4243.66 2197.72 4238.73 2192.79 4238.73 2186.72 4238.73 2180.64 4243.66 2175.72 4249.73 2175.72 4255.81 2175.72 4260.73 2180.64 4260.73 2186.72Z" stroke="#9E480E" stroke-width="3.4375" stroke-linejoin="round" stroke-miterlimit="10" fill="#9E480E"/><path d="M4366.73 2202.72C4366.73 2208.79 4361.81 2213.72 4355.74 2213.72 4349.66 2213.72 4344.74 2208.79 4344.74 2202.72 4344.74 2196.64 4349.66 2191.72 4355.74 2191.72 4361.81 2191.72 4366.73 2196.64 4366.73 2202.72Z" stroke="#9E480E" stroke-width="3.4375" stroke-linejoin="round" stroke-miterlimit="10" fill="#9E480E"/><path d="M4471.73 2203.72C4471.73 2209.79 4466.81 2214.72 4460.73 2214.72 4454.66 2214.72 4449.73 2209.79 4449.73 2203.72 4449.73 2197.64 4454.66 2192.72 4460.73 2192.72 4466.81 2192.72 4471.73 2197.64 4471.73 2203.72Z" stroke="#9E480E" stroke-width="3.4375" stroke-linejoin="round" stroke-miterlimit="10" fill="#9E480E"/><path d="M4576.73 2203.72C4576.73 2209.79 4571.81 2214.72 4565.74 2214.72 4559.66 2214.72 4554.74 2209.79 4554.74 2203.72 4554.74 2197.64 4559.66 2192.72 4565.74 2192.72 4571.81 2192.72 4576.73 2197.64 4576.73 2203.72Z" stroke="#9E480E" stroke-width="3.4375" stroke-linejoin="round" stroke-miterlimit="10" fill="#9E480E"/><path d="M4682.73 2205.72C4682.73 2211.79 4677.81 2216.72 4671.74 2216.72 4665.66 2216.72 4660.74 2211.79 4660.74 2205.72 4660.74 2199.64 4665.66 2194.72 4671.74 2194.72 4677.81 2194.72 4682.73 2199.64 4682.73 2205.72Z" stroke="#9E480E" stroke-width="3.4375" stroke-linejoin="round" stroke-miterlimit="10" fill="#9E480E"/><path d="M4787.73 2206.72C4787.73 2212.79 4782.81 2217.72 4776.73 2217.72 4770.66 2217.72 4765.73 2212.79 4765.73 2206.72 4765.73 2200.64 4770.66 2195.72 4776.73 2195.72 4782.81 2195.72 4787.73 2200.64 4787.73 2206.72Z" stroke="#9E480E" stroke-width="3.4375" stroke-linejoin="round" stroke-miterlimit="10" fill="#9E480E"/></g><g clip-path="url(#clip12)"><text font-family="Arial,Arial_MSFontService,sans-serif" font-weight="400" font-size="41" transform="matrix(1 0 0 1 2768.43 2393)">0</text></g><g clip-path="url(#clip13)"><text font-family="Arial,Arial_MSFontService,sans-serif" font-weight="400" font-size="41" transform="matrix(1 0 0 1 2745.49 2280)">50</text></g><g clip-path="url(#clip14)"><text font-family="Arial,Arial_MSFontService,sans-serif" font-weight="400" font-size="41" transform="matrix(1 0 0 1 2722.55 2166)">100</text></g><g clip-path="url(#clip15)"><text font-family="Arial,Arial_MSFontService,sans-serif" font-weight="400" font-size="41" transform="matrix(1 0 0 1 2722.55 2053)">150</text></g><g clip-path="url(#clip16)"><text font-family="Arial,Arial_MSFontService,sans-serif" font-weight="400" font-size="41" transform="matrix(1 0 0 1 2722.55 1940)">200</text></g><g clip-path="url(#clip17)"><text font-family="Arial,Arial_MSFontService,sans-serif" font-weight="400" font-size="41" transform="matrix(1 0 0 1 2722.55 1827)">250</text></g><g clip-path="url(#clip18)"><text font-family="Arial,Arial_MSFontService,sans-serif" font-weight="400" font-size="41" transform="matrix(1 0 0 1 2722.55 1713)">300</text></g><g clip-path="url(#clip19)"><text font-family="Arial,Arial_MSFontService,sans-serif" font-weight="400" font-size="41" transform="matrix(0.707107 -0.707107 0.707107 0.707107 2873.2 2447)">0</text></g><g clip-path="url(#clip20)"><text font-family="Arial,Arial_MSFontService,sans-serif" font-weight="400" font-size="41" transform="matrix(0.707107 -0.707107 0.707107 0.707107 2978.6 2447)">2</text></g><g clip-path="url(#clip21)"><text font-family="Arial,Arial_MSFontService,sans-serif" font-weight="400" font-size="41" transform="matrix(0.707107 -0.707107 0.707107 0.707107 3084.01 2447)">8</text></g><g clip-path="url(#clip22)"><text font-family="Arial,Arial_MSFontService,sans-serif" font-weight="400" font-size="41" transform="matrix(0.707107 -0.707107 0.707107 0.707107 3173.19 2464)">15</text></g><g clip-path="url(#clip23)"><text font-family="Arial,Arial_MSFontService,sans-serif" font-weight="400" font-size="41" transform="matrix(0.707107 -0.707107 0.707107 0.707107 3278.59 2464)">50</text></g><g clip-path="url(#clip24)"><text font-family="Arial,Arial_MSFontService,sans-serif" font-weight="400" font-size="41" transform="matrix(0.707107 -0.707107 0.707107 0.707107 3367.77 2480)">100</text></g><g clip-path="url(#clip25)"><text font-family="Arial,Arial_MSFontService,sans-serif" font-weight="400" font-size="41" transform="matrix(0.707107 -0.707107 0.707107 0.707107 3473.17 2480)">200</text></g><g clip-path="url(#clip26)"><text font-family="Arial,Arial_MSFontService,sans-serif" font-weight="400" font-size="41" transform="matrix(0.707107 -0.707107 0.707107 0.707107 3578.58 2480)">300</text></g><g clip-path="url(#clip27)"><text font-family="Arial,Arial_MSFontService,sans-serif" font-weight="400" font-size="41" transform="matrix(0.707107 -0.707107 0.707107 0.707107 3683.98 2480)">400</text></g><g clip-path="url(#clip28)"><text font-family="Arial,Arial_MSFontService,sans-serif" font-weight="400" font-size="41" transform="matrix(0.707107 -0.707107 0.707107 0.707107 3789.38 2480)">500</text></g><g clip-path="url(#clip29)"><text font-family="Arial,Arial_MSFontService,sans-serif" font-weight="400" font-size="41" transform="matrix(0.707107 -0.707107 0.707107 0.707107 3894.78 2480)">700</text></g><g clip-path="url(#clip30)"><text font-family="Arial,Arial_MSFontService,sans-serif" font-weight="400" font-size="41" transform="matrix(0.707107 -0.707107 0.707107 0.707107 3983.96 2496)">1000</text></g><g clip-path="url(#clip31)"><text font-family="Arial,Arial_MSFontService,sans-serif" font-weight="400" font-size="41" transform="matrix(0.707107 -0.707107 0.707107 0.707107 4089.36 2496)">1300</text></g><g clip-path="url(#clip32)"><text font-family="Arial,Arial_MSFontService,sans-serif" font-weight="400" font-size="41" transform="matrix(0.707107 -0.707107 0.707107 0.707107 4194.77 2496)">1700</text></g><g clip-path="url(#clip33)"><text font-family="Arial,Arial_MSFontService,sans-serif" font-weight="400" font-size="41" transform="matrix(0.707107 -0.707107 0.707107 0.707107 4300.17 2496)">2500</text></g><g clip-path="url(#clip34)"><text font-family="Arial,Arial_MSFontService,sans-serif" font-weight="400" font-size="41" transform="matrix(0.707107 -0.707107 0.707107 0.707107 4405.57 2496)">3500</text></g><g clip-path="url(#clip35)"><text font-family="Arial,Arial_MSFontService,sans-serif" font-weight="400" font-size="41" transform="matrix(0.707107 -0.707107 0.707107 0.707107 4510.97 2496)">5000</text></g><g clip-path="url(#clip36)"><text font-family="Arial,Arial_MSFontService,sans-serif" font-weight="400" font-size="41" transform="matrix(0.707107 -0.707107 0.707107 0.707107 4616.38 2496)">9000</text></g><g clip-path="url(#clip37)"><text font-family="Arial,Arial_MSFontService,sans-serif" font-weight="400" font-size="41" transform="matrix(0.707107 -0.707107 0.707107 0.707107 4705.56 2512)">20000</text></g><g clip-path="url(#clip38)"><text font-family="Arial,Arial_MSFontService,sans-serif" font-weight="700" font-size="55" transform="matrix(6.12323e-17 -1 1 6.12323e-17 2697.52 2202)">Latency (ns)</text></g><g clip-path="url(#clip39)"><text font-family="Arial,Arial_MSFontService,sans-serif" font-weight="700" font-size="55" transform="matrix(1 0 0 1 3675.3 2584)">Inject Delay </text></g><g clip-path="url(#clip40)"><text font-family="Arial,Arial_MSFontService,sans-serif" font-weight="700" font-size="83" transform="matrix(1 0 0 1 2947.83 1531)">Injected Latency Measurements for Intel </text></g><g clip-path="url(#clip41)"><text font-family="Arial,Arial_MSFontService,sans-serif" font-weight="700" font-size="83" transform="matrix(1 0 0 1 3025.68 1626)">Memory Latency Checker (64 Bytes)</text></g><g clip-path="url(#clip42)"><path d="M2795 2690 2883 2690" stroke="#ED7D31" stroke-width="10.3125" stroke-linecap="round" stroke-linejoin="round" stroke-miterlimit="10" fill="none" fill-rule="evenodd"/></g><g clip-path="url(#clip43)"><path d="M2849.02 2689C2849.02 2695.07 2844.31 2700 2838.5 2700 2832.69 2700 2827.98 2695.07 2827.98 2689 2827.98 2682.92 2832.69 2678 2838.5 2678 2844.31 2678 2849.02 2682.92 2849.02 2689Z" stroke="#ED7D31" stroke-width="3.4375" stroke-linejoin="round" stroke-miterlimit="10" fill="#ED7D31"/></g><g clip-path="url(#clip44)"><text font-family="Arial,Arial_MSFontService,sans-serif" font-weight="400" font-size="41" transform="matrix(1 0 0 1 2892.13 2702)">Latency (ns) 100% non-temporal write</text></g><g clip-path="url(#clip45)"><path d="M3749 2690 3837 2690" stroke="#FFC000" stroke-width="10.3125" stroke-linecap="round" stroke-linejoin="round" stroke-miterlimit="10" fill="none" fill-rule="evenodd"/></g><g clip-path="url(#clip46)"><path d="M3803 2689C3803 2695.07 3798.07 2700 3792 2700 3785.93 2700 3781 2695.07 3781 2689 3781 2682.92 3785.93 2678 3792 2678 3798.07 2678 3803 2682.92 3803 2689Z" stroke="#FFC000" stroke-width="3.4375" stroke-linejoin="round" stroke-miterlimit="10" fill="#FFC000"/></g><g clip-path="url(#clip47)"><text font-family="Arial,Arial_MSFontService,sans-serif" font-weight="400" font-size="41" transform="matrix(1 0 0 1 3845.79 2702)">Latency (ns)2 reads and 1 non-temporal write</text></g><g clip-path="url(#clip48)"><path d="M2795 2763 2883 2763" stroke="#70AD47" stroke-width="10.3125" stroke-linecap="round" stroke-linejoin="round" stroke-miterlimit="10" fill="none" fill-rule="evenodd"/></g><g clip-path="url(#clip49)"><path d="M2849.02 2762C2849.02 2768.07 2844.31 2773 2838.5 2773 2832.69 2773 2827.98 2768.07 2827.98 2762 2827.98 2755.92 2832.69 2751 2838.5 2751 2844.31 2751 2849.02 2755.92 2849.02 2762Z" stroke="#70AD47" stroke-width="3.4375" stroke-linejoin="round" stroke-miterlimit="10" fill="#70AD47"/></g><g clip-path="url(#clip50)"><text font-family="Arial,Arial_MSFontService,sans-serif" font-weight="400" font-size="41" transform="matrix(1 0 0 1 2892.13 2775)">Latency (ns) 1 read and 1 non-temporal write</text></g><g clip-path="url(#clip51)"><path d="M3749 2763 3837 2763" stroke="#9E480E" stroke-width="10.3125" stroke-linecap="round" stroke-linejoin="round" stroke-miterlimit="10" fill="none" fill-rule="evenodd"/></g><g clip-path="url(#clip52)"><path d="M3803 2762C3803 2768.07 3798.07 2773 3792 2773 3785.93 2773 3781 2768.07 3781 2762 3781 2755.92 3785.93 2751 3792 2751 3798.07 2751 3803 2755.92 3803 2762Z" stroke="#9E480E" stroke-width="3.4375" stroke-linejoin="round" stroke-miterlimit="10" fill="#9E480E"/></g><g clip-path="url(#clip53)"><text font-family="Arial,Arial_MSFontService,sans-serif" font-weight="400" font-size="41" transform="matrix(1 0 0 1 3845.79 2775)">Latency (ns) 3 reads and 1 non-temporal write</text></g></g></svg>